SplineFontDB: 3.0
FontName: MonomakhUnicode
FullName: Monomakh Unicode
FamilyName: Monomakh Unicode
Weight: Medium
Copyright: Copyright 2016-2017 Aleksandr Andreev.\n\nThis font is part of the Ponomar Project Slavonic Computing Initiative. See http://www.ponomar.net/ for more information.\n\nBased on Monomachus Copyright (c) Alexey Kryukov, 2011. All rights reserved. Used with permission.
UComments: "2011-5-3: Created.+AAoACgAA-Ratios for superscript digits:+AAoA-thin stems: 82+AAoA-thick stems: 72+AAoA-vertical: 56+AAoA-horizontal: 64+AAoACgAA-Ratios for combining letters:+AAoA-ZONES:+AAoA--582,-22+AD0A-960+AAoA-0,-48+AD0A-1100+AAoA-946,34+AD0A-1572+AAoA-vscale+AD0A-50%+AAoA-csize+AD0A-44%+AAoA-wstem+AD0A-66%+AAoA-nstem+AD0A-73%" 
Version: 1.1
ItalicAngle: 0
UnderlinePosition: -125
UnderlineWidth: 59
Ascent: 732
Descent: 268
LayerCount: 3
Layer: 0 0 "Back"  1
Layer: 1 0 "Fore"  0
Layer: 2 1 "TTF"  0
XUID: [1021 211 1460294968 11180153]
FSType: 0
OS2Version: 0
OS2_WeightWidthSlopeOnly: 0
OS2_UseTypoMetrics: 1
CreationTime: 1315915564
ModificationTime: 1513672191
PfmFamily: 17
TTFWeight: 500
TTFWidth: 5
LineGap: 273
VLineGap: 90
Panose: 2 6 7 3 8 0 6 0 0 0
OS2TypoAscent: 0
OS2TypoAOffset: 1
OS2TypoDescent: 0
OS2TypoDOffset: 1
OS2TypoLinegap: 273
OS2WinAscent: 0
OS2WinAOffset: 1
OS2WinDescent: 0
OS2WinDOffset: 1
HheadAscent: 0
HheadAOffset: 1
HheadDescent: 0
HheadDOffset: 1
OS2Vendor: 'PfEd'
Lookup: 1 0 0 "'ss06' Cyrillic i with dot above"  {"'ss06' Cyrillic i with dot above-1"  } ['ss06' ('DFLT' <'dflt' > 'cyrl' <'dflt' > 'latn' <'MOL ' 'ROM ' 'dflt' > ) ]
Lookup: 1 0 0 "'ss07' Cyrillic i with two dots above"  {"'ss07' Cyrillic i with two dots above-1"  } ['ss07' ('DFLT' <'dflt' > 'cyrl' <'dflt' > 'latn' <'MOL ' 'ROM ' 'dflt' > ) ]
Lookup: 1 0 0 "'ss08' Sharp Cyrillic Zemlya"  {"'ss08' Sharp Cyrillic Zemlya-1"  } ['ss08' ('DFLT' <'dflt' > 'cyrl' <'dflt' > 'latn' <'MOL ' 'ROM ' 'dflt' > ) ]

StartChar: exclam
Encoding: 1 33 1
Width: 257
VWidth: 1014
Flags: W
HStem: -18 157<76.5856 181.414>
VStem: 47 173<498.75 632.297> 51 156<6.73829 114.785>
LayerCount: 3
Fore
SplineSet
47 588 m 0xc0
 47 612 75 643 105 665 c 0
 136 688 173 707 189 707 c 0
 214 707 220 691 220 681 c 0
 220 659 211 588 208 564 c 2
 156 216 l 2
 154 204 143 193 129 193 c 0
 115 193 105 198 102 216 c 2
 59 494 l 2
 55 520 47 578 47 588 c 0xc0
51 61 m 0xa0
 51 104 86 139 129 139 c 0
 172 139 207 104 207 61 c 0
 207 18 172 -18 129 -18 c 0
 86 -18 51 18 51 61 c 0xa0
EndSplineSet
Validated: 19457
Layer: 2
SplineSet
46.875 588.379 m 0,0,1
 46.875 620.605 46.875 620.605 105.469 664.551 c 0,2,3
 128.906 682.129 128.906 682.129 153.076 694.58 c 128,-1,4
 177.246 707.031 177.246 707.031 188.965 707.031 c 0,5,6
 206.055 707.031 206.055 707.031 212.891 698.975 c 128,-1,7
 219.727 690.918 219.727 690.918 219.727 680.664 c 0,8,9
 219.727 651.367 219.727 651.367 207.52 563.965 c 1,10,-1
 156.25 215.82 l 2,11,12
 154.785 206.543 154.785 206.543 146.973 199.951 c 128,-1,13
 139.16 193.359 139.16 193.359 128.906 193.359 c 0,14,15
 105.469 193.359 105.469 193.359 101.562 215.82 c 2,16,-1
 58.5938 493.652 l 1,17,18
 46.875 572.754 46.875 572.754 46.875 588.379 c 0,0,1
50.7812 60.5469 m 128,-1,20
 50.7812 92.7734 50.7812 92.7734 73.7305 115.723 c 128,-1,21
 96.6797 138.672 96.6797 138.672 128.906 138.672 c 128,-1,22
 161.133 138.672 161.133 138.672 184.082 115.723 c 128,-1,23
 207.031 92.7734 207.031 92.7734 207.031 60.5469 c 128,-1,24
 207.031 28.3203 207.031 28.3203 184.082 5.37109 c 128,-1,25
 161.133 -17.5781 161.133 -17.5781 128.906 -17.5781 c 128,-1,26
 96.6797 -17.5781 96.6797 -17.5781 73.7305 5.37109 c 128,-1,19
 50.7812 28.3203 50.7812 28.3203 50.7812 60.5469 c 128,-1,20
EndSplineSet
Validated: 19457
EndChar

StartChar: numbersign
Encoding: 3 35 3
Width: 800
VWidth: 1014
Flags: W
HStem: 209 60<83.1873 217 296 449 529 718.352> 427 59<82.6476 272 352 504 584 718.352>
VStem: 170 59<-0.232769 29.8654> 340 58<665.66 695.233> 402 59<-0.232769 29.3396> 572 59<665.135 695.233>
DStem2: 217 209 281 209 0.247354 0.968925<-191.797 0 77.6765 224.83 301.785 493.334> 449 209 514 209 0.245979 0.969275<-191.797 0 77.8348 224.831 301.696 493.493>
LayerCount: 3
Fore
SplineSet
74 220 m 0
 74 226 76 232 82 245 c 0
 89 261 93 269 100 269 c 2
 232 269 l 1
 272 427 l 1
 90 427 l 2
 83 427 74 432 74 438 c 0
 74 444 76 450 82 463 c 0
 89 479 93 486 100 486 c 2
 287 486 l 1
 340 693 l 2
 342 700 349 707 355 707 c 0
 360 707 366 703 378 694 c 0
 390 685 398 678 398 672 c 0
 398 671 397 665 397 664 c 2
 352 486 l 1
 520 486 l 1
 572 693 l 2
 574 700 581 707 587 707 c 0
 592 707 599 703 611 694 c 0
 623 685 631 678 631 672 c 0
 631 671 629 665 629 664 c 2
 584 486 l 1
 710 486 l 2
 717 486 727 481 727 475 c 0
 727 469 725 463 719 450 c 0
 712 434 708 427 701 427 c 2
 569 427 l 1
 529 269 l 1
 710 269 l 2
 717 269 727 263 727 257 c 0
 727 251 725 245 719 232 c 0
 712 216 708 209 701 209 c 2
 514 209 l 1
 461 2 l 2
 459 -5 452 -12 446 -12 c 0
 441 -12 434 -8 422 1 c 0
 410 10 402 17 402 23 c 0
 402 24 404 30 404 31 c 2
 449 209 l 1
 281 209 l 1
 229 2 l 2
 227 -5 219 -12 213 -12 c 0
 208 -12 202 -8 190 1 c 0
 178 10 170 17 170 23 c 0
 170 24 171 30 171 31 c 2
 217 209 l 1
 90 209 l 2
 83 209 74 214 74 220 c 0
296 269 m 1
 464 269 l 1
 504 427 l 1
 336 427 l 1
 296 269 l 1
EndSplineSet
Validated: 19457
Layer: 2
SplineSet
74.2188 220.215 m 0,0,1
 74.2188 227.539 74.2188 227.539 82.0312 245.117 c 0,2,3
 87.8906 258.301 87.8906 258.301 91.3086 263.428 c 128,-1,4
 94.7266 268.555 94.7266 268.555 99.6094 268.555 c 2,5,-1
 231.934 268.555 l 1,6,-1
 271.973 426.758 l 1,7,-1
 90.332 426.758 l 2,8,9
 84.4727 426.758 84.4727 426.758 79.3457 430.176 c 128,-1,10
 74.2188 433.594 74.2188 433.594 74.2188 437.988 c 0,11,12
 74.2188 445.312 74.2188 445.312 82.0312 462.891 c 0,13,14
 87.8906 476.074 87.8906 476.074 91.3086 481.201 c 128,-1,15
 94.7266 486.328 94.7266 486.328 99.6094 486.328 c 2,16,-1
 287.109 486.328 l 1,17,-1
 339.844 693.359 l 2,18,19
 341.309 698.73 341.309 698.73 345.947 702.881 c 128,-1,20
 350.586 707.031 350.586 707.031 354.98 707.031 c 0,21,22
 360.84 707.031 360.84 707.031 378.418 693.848 c 0,23,24
 398.438 679.199 398.438 679.199 398.438 671.875 c 0,25,26
 398.438 666.992 398.438 666.992 396.973 664.062 c 1,27,-1
 351.562 486.328 l 1,28,-1
 519.531 486.328 l 1,29,-1
 572.266 693.359 l 2,30,31
 573.73 698.73 573.73 698.73 578.369 702.881 c 128,-1,32
 583.008 707.031 583.008 707.031 587.402 707.031 c 0,33,34
 593.262 707.031 593.262 707.031 610.84 693.848 c 0,35,36
 630.859 679.199 630.859 679.199 630.859 671.875 c 0,37,38
 630.859 666.992 630.859 666.992 629.395 664.062 c 1,39,-1
 583.984 486.328 l 1,40,-1
 710.449 486.328 l 2,41,42
 716.309 486.328 716.309 486.328 721.436 482.91 c 128,-1,43
 726.562 479.492 726.562 479.492 726.562 475.098 c 0,44,45
 726.562 467.773 726.562 467.773 718.75 450.195 c 0,46,47
 712.891 437.012 712.891 437.012 709.473 431.885 c 128,-1,48
 706.055 426.758 706.055 426.758 701.172 426.758 c 2,49,-1
 568.848 426.758 l 1,50,-1
 528.809 268.555 l 1,51,-1
 710.449 268.555 l 2,52,53
 716.309 268.555 716.309 268.555 721.436 265.137 c 128,-1,54
 726.562 261.719 726.562 261.719 726.562 257.324 c 0,55,56
 726.562 250 726.562 250 718.75 232.422 c 0,57,58
 712.891 219.238 712.891 219.238 709.473 214.111 c 128,-1,59
 706.055 208.984 706.055 208.984 701.172 208.984 c 2,60,-1
 513.672 208.984 l 1,61,-1
 460.938 1.95312 l 2,62,63
 459.473 -3.41797 459.473 -3.41797 454.834 -7.56836 c 128,-1,64
 450.195 -11.7188 450.195 -11.7188 445.801 -11.7188 c 0,65,66
 439.941 -11.7188 439.941 -11.7188 422.363 1.46484 c 0,67,68
 402.344 16.1133 402.344 16.1133 402.344 23.4375 c 0,69,70
 402.344 26.8555 402.344 26.8555 403.809 31.25 c 2,71,-1
 449.219 208.984 l 1,72,-1
 281.25 208.984 l 1,73,-1
 228.516 1.95312 l 2,74,75
 227.051 -3.41797 227.051 -3.41797 222.412 -7.56836 c 128,-1,76
 217.773 -11.7188 217.773 -11.7188 213.379 -11.7188 c 0,77,78
 207.52 -11.7188 207.52 -11.7188 189.941 1.46484 c 0,79,80
 169.922 16.1133 169.922 16.1133 169.922 23.4375 c 0,81,82
 169.922 26.8555 169.922 26.8555 171.387 31.25 c 2,83,-1
 216.797 208.984 l 1,84,-1
 90.332 208.984 l 2,85,86
 84.4727 208.984 84.4727 208.984 79.3457 212.402 c 128,-1,87
 74.2188 215.82 74.2188 215.82 74.2188 220.215 c 0,0,1
296.387 268.555 m 1,88,-1
 464.355 268.555 l 1,89,-1
 504.395 426.758 l 1,90,-1
 336.426 426.758 l 1,91,-1
 296.387 268.555 l 1,88,-1
EndSplineSet
Validated: 19457
EndChar

StartChar: dollar
Encoding: 4 36 4
Width: 605
VWidth: 0
Flags: W
HStem: -16 30<246.672 296 335 383.609> 680 30<252.154 296 335 371.717>
VStem: 89 109<498.105 620.78> 296 39<-97.9342 -16 15 282 436 680 710 780.763> 449 113<84.004 208.598>
LayerCount: 3
Fore
SplineSet
65 68 m 0
 65 72 66 86 66 94 c 2
 73 223 l 2
 73 234 80 239 87 239 c 0
 105 239 115 221 121 204 c 0
 156 107 208 21 296 14 c 1
 296 303 l 1
 186 356 89 411 89 538 c 0
 89 630 154 704 296 710 c 1
 296 771 l 2
 296 779 300 785 304 785 c 0
 308 785 310 784 319 779 c 0
 329 773 335 770 335 763 c 2
 335 710 l 1
 380 708 431 697 466 681 c 0
 511 661 520 651 520 628 c 0
 520 620 519 605 513 572 c 0
 508 548 500 511 490 511 c 0
 478 511 471 522 462 543 c 0
 436 602 397 669 335 680 c 1
 335 416 l 1
 471 344 562 291 562 171 c 0
 562 52 472 -9 335 -16 c 1
 335 -88 l 2
 335 -96 331 -103 327 -103 c 0
 323 -103 321 -101 312 -96 c 0
 302 -90 296 -87 296 -80 c 2
 296 -16 l 1
 239 -14 167 2 116 23 c 0
 71 42 65 45 65 68 c 0
198 573 m 0
 198 501 240 467 296 436 c 1
 296 680 l 1
 233 672 198 628 198 573 c 0
335 15 m 1
 408 24 449 71 449 137 c 0
 449 209 404 244 335 282 c 1
 335 15 l 1
EndSplineSet
Validated: 19457
Layer: 2
SplineSet
65.4297 68.3594 m 0,0,1
 65.4297 78.6133 65.4297 78.6133 66.4062 94.2383 c 2,2,-1
 72.7539 223.145 l 2,3,4
 73.2422 230.957 73.2422 230.957 77.3926 235.107 c 128,-1,5
 81.543 239.258 81.543 239.258 86.9141 239.258 c 0,6,7
 107.422 239.258 107.422 239.258 120.605 204.102 c 0,8,9
 186.035 22.9492 186.035 22.9492 295.898 13.6719 c 1,10,-1
 295.898 303.223 l 1,11,12
 268.066 316.406 268.066 316.406 249.268 326.416 c 128,-1,13
 230.469 336.426 230.469 336.426 206.787 350.586 c 128,-1,14
 183.105 364.746 183.105 364.746 167.725 377.686 c 128,-1,15
 152.344 390.625 152.344 390.625 135.986 408.447 c 128,-1,16
 119.629 426.27 119.629 426.27 110.352 444.824 c 128,-1,17
 101.074 463.379 101.074 463.379 94.9707 487.061 c 128,-1,18
 88.8672 510.742 88.8672 510.742 88.8672 537.598 c 0,19,20
 88.8672 610.352 88.8672 610.352 141.602 658.203 c 128,-1,21
 194.336 706.055 194.336 706.055 295.898 710.449 c 1,22,-1
 295.898 770.996 l 2,23,24
 295.898 776.855 295.898 776.855 298.34 781.006 c 128,-1,25
 300.781 785.156 300.781 785.156 303.711 785.156 c 0,26,27
 308.105 785.156 308.105 785.156 319.336 778.809 c 0,28,29
 334.961 770.02 334.961 770.02 334.961 762.695 c 2,30,-1
 334.961 710.449 l 1,31,32
 407.715 706.543 407.715 706.543 465.82 680.664 c 0,33,34
 499.512 666.016 499.512 666.016 509.766 655.762 c 128,-1,35
 520.02 645.508 520.02 645.508 520.02 627.93 c 0,36,37
 520.02 609.863 520.02 609.863 512.695 572.266 c 0,38,39
 500.488 511.23 500.488 511.23 489.746 511.23 c 0,40,41
 481.445 511.23 481.445 511.23 475.342 518.555 c 128,-1,42
 469.238 525.879 469.238 525.879 461.914 542.969 c 0,43,44
 407.227 666.992 407.227 666.992 334.961 680.176 c 1,45,-1
 334.961 415.527 l 1,46,47
 365.234 399.414 365.234 399.414 384.033 389.16 c 128,-1,48
 402.832 378.906 402.832 378.906 427.49 364.258 c 128,-1,49
 452.148 349.609 452.148 349.609 467.041 338.135 c 128,-1,50
 481.934 326.66 481.934 326.66 499.268 311.523 c 128,-1,51
 516.602 296.387 516.602 296.387 526.611 281.982 c 128,-1,52
 536.621 267.578 536.621 267.578 545.654 250 c 128,-1,53
 554.688 232.422 554.688 232.422 558.594 212.891 c 128,-1,54
 562.5 193.359 562.5 193.359 562.5 170.898 c 0,55,56
 562.5 83.9844 562.5 83.9844 501.953 36.8652 c 128,-1,57
 441.406 -10.2539 441.406 -10.2539 334.961 -15.625 c 1,58,-1
 334.961 -88.3789 l 2,59,60
 334.961 -94.2383 334.961 -94.2383 332.52 -98.3887 c 128,-1,61
 330.078 -102.539 330.078 -102.539 327.148 -102.539 c 0,62,63
 322.754 -102.539 322.754 -102.539 311.523 -96.1914 c 0,64,65
 295.898 -87.4023 295.898 -87.4023 295.898 -80.0781 c 2,66,-1
 295.898 -16.1133 l 1,67,68
 252.93 -14.6484 252.93 -14.6484 203.613 -3.90625 c 128,-1,69
 154.297 6.83594 154.297 6.83594 115.723 22.9492 c 0,70,71
 81.543 37.1094 81.543 37.1094 73.4863 44.1895 c 128,-1,72
 65.4297 51.2695 65.4297 51.2695 65.4297 68.3594 c 0,0,1
198.242 573.242 m 0,73,74
 198.242 523.926 198.242 523.926 222.9 493.408 c 128,-1,75
 247.559 462.891 247.559 462.891 295.898 436.035 c 1,76,-1
 295.898 680.176 l 1,77,78
 250 674.316 250 674.316 224.121 644.775 c 128,-1,79
 198.242 615.234 198.242 615.234 198.242 573.242 c 0,73,74
334.961 14.6484 m 1,80,81
 389.16 21.4844 389.16 21.4844 419.189 54.1992 c 128,-1,82
 449.219 86.9141 449.219 86.9141 449.219 136.719 c 0,83,84
 449.219 163.086 449.219 163.086 441.65 184.326 c 128,-1,85
 434.082 205.566 434.082 205.566 417.725 222.9 c 128,-1,86
 401.367 240.234 401.367 240.234 382.568 253.418 c 128,-1,87
 363.77 266.602 363.77 266.602 334.961 282.227 c 1,88,-1
 334.961 14.6484 l 1,80,81
EndSplineSet
Validated: 19457
EndChar

StartChar: percent
Encoding: 5 37 5
Width: 726
VWidth: 0
Flags: W
HStem: -12 24<507.902 574.844> 267 24<495.54 562.52> 402 24<163.902 230.993> 572 30<370.359 498.525> 682 23<151.985 217.474>
VStem: 31 86<474.032 633.692> 266 86<476.498 614.652> 375 86<60.032 219.555> 609 86<59.8186 219.342>
DStem2: 515 588 634 656 0.608732 0.793376<-703.534 0 31.3094 136.68>
LayerCount: 3
Fore
SplineSet
31 554 m 0
 31 648 106 705 190 705 c 0
 233 705 276 689 302 665 c 0
 340 631 382 602 430 602 c 0
 498 602 550 641 603 703 c 0
 606 708 609 711 614 711 c 0
 620 711 626 702 632 688 c 0
 636 678 638 672 638 666 c 0
 638 664 636 659 634 656 c 2
 124 -10 l 2
 121 -15 117 -18 112 -18 c 0
 106 -18 100 -9 94 5 c 0
 90 15 89 22 89 28 c 0
 89 30 90 34 92 37 c 2
 515 588 l 25
 513 590 l 17
 493 577 468 572 437 572 c 0
 407 572 371 580 349 596 c 1
 347 594 l 1
 350 581 352 568 352 554 c 0
 352 460 276 402 191 402 c 0
 106 402 31 460 31 554 c 0
117 578 m 0
 117 490 149 426 197 426 c 0
 240 426 266 468 266 529 c 0
 266 617 234 682 186 682 c 0
 143 682 117 639 117 578 c 0
375 140 m 0
 375 234 450 291 535 291 c 0
 620 291 695 234 695 140 c 0
 695 46 620 -12 535 -12 c 0
 450 -12 375 46 375 140 c 0
461 164 m 0
 461 76 493 12 541 12 c 0
 584 12 609 54 609 115 c 0
 609 203 578 267 530 267 c 0
 487 267 461 225 461 164 c 0
EndSplineSet
Validated: 19457
Layer: 2
SplineSet
31.25 554.199 m 0,0,1
 31.25 622.07 31.25 622.07 77.8809 663.574 c 128,-1,2
 124.512 705.078 124.512 705.078 190.43 705.078 c 0,3,4
 222.168 705.078 222.168 705.078 251.709 694.092 c 128,-1,5
 281.25 683.105 281.25 683.105 301.758 664.551 c 0,6,7
 371.094 601.562 371.094 601.562 429.688 601.562 c 0,8,9
 478.027 601.562 478.027 601.562 519.043 627.197 c 128,-1,10
 560.059 652.832 560.059 652.832 603.027 703.125 c 1,11,12
 608.398 710.938 608.398 710.938 614.258 710.938 c 0,13,14
 623.047 710.938 623.047 710.938 632.324 688.477 c 0,15,16
 637.695 675.781 637.695 675.781 637.695 665.527 c 0,17,18
 637.695 660.156 637.695 660.156 634.277 656.25 c 2,19,-1
 123.535 -9.76562 l 1,20,21
 118.164 -17.5781 118.164 -17.5781 112.305 -17.5781 c 0,22,23
 103.516 -17.5781 103.516 -17.5781 94.2383 4.88281 c 0,24,25
 88.8672 17.5781 88.8672 17.5781 88.8672 27.832 c 0,26,27
 88.8672 33.2031 88.8672 33.2031 92.2852 37.1094 c 2,28,-1
 514.648 587.891 l 1,29,-1
 512.695 589.844 l 1,30,31
 484.863 571.777 484.863 571.777 436.523 571.777 c 0,32,33
 383.301 571.777 383.301 571.777 349.121 595.703 c 1,34,-1
 346.68 594.238 l 1,35,36
 351.562 575.195 351.562 575.195 351.562 554.199 c 0,37,38
 351.562 485.84 351.562 485.84 304.688 444.092 c 128,-1,39
 257.812 402.344 257.812 402.344 191.406 402.344 c 128,-1,40
 125 402.344 125 402.344 78.125 444.092 c 128,-1,41
 31.25 485.84 31.25 485.84 31.25 554.199 c 0,0,1
117.188 578.125 m 0,42,43
 117.188 511.719 117.188 511.719 139.404 468.75 c 128,-1,44
 161.621 425.781 161.621 425.781 197.266 425.781 c 0,45,46
 229.004 425.781 229.004 425.781 247.314 454.346 c 128,-1,47
 265.625 482.91 265.625 482.91 265.625 529.297 c 0,48,49
 265.625 596.191 265.625 596.191 243.652 638.916 c 128,-1,50
 221.68 681.641 221.68 681.641 186.035 681.641 c 0,51,52
 154.297 681.641 154.297 681.641 135.742 653.076 c 128,-1,53
 117.188 624.512 117.188 624.512 117.188 578.125 c 0,42,43
375 140.137 m 0,54,55
 375 208.008 375 208.008 421.631 249.268 c 128,-1,56
 468.262 290.527 468.262 290.527 535.156 290.527 c 128,-1,57
 602.051 290.527 602.051 290.527 648.682 249.268 c 128,-1,58
 695.312 208.008 695.312 208.008 695.312 140.137 c 0,59,60
 695.312 71.7773 695.312 71.7773 648.438 30.0293 c 128,-1,61
 601.562 -11.7188 601.562 -11.7188 535.156 -11.7188 c 128,-1,62
 468.75 -11.7188 468.75 -11.7188 421.875 30.0293 c 128,-1,63
 375 71.7773 375 71.7773 375 140.137 c 0,54,55
460.938 163.574 m 0,64,65
 460.938 97.168 460.938 97.168 482.91 54.4434 c 128,-1,66
 504.883 11.7188 504.883 11.7188 541.016 11.7188 c 0,67,68
 572.754 11.7188 572.754 11.7188 591.064 40.2832 c 128,-1,69
 609.375 68.8477 609.375 68.8477 609.375 115.234 c 0,70,71
 609.375 182.129 609.375 182.129 587.402 224.609 c 128,-1,72
 565.43 267.09 565.43 267.09 529.785 267.09 c 0,73,74
 498.047 267.09 498.047 267.09 479.492 238.525 c 128,-1,75
 460.938 209.961 460.938 209.961 460.938 163.574 c 0,64,65
EndSplineSet
Validated: 19457
EndChar

StartChar: ampersand
Encoding: 6 38 6
Width: 791
VWidth: 0
Flags: W
HStem: -18 55<626.539 709.393> -16 75<176 347.254> 443 30<546.033 594.611 698.575 758.967> 665 41<236.584 322.717>
VStem: 43 119<125.464 236.095> 138 62<521.717 611.067> 370 74<506.574 617.402> 603 156<383.5 464>
LayerCount: 3
Fore
SplineSet
43 152 m 0x7b
 43 250 125 324 218 375 c 1
 218 377 l 1
 175 411 138 456 138 532 c 0
 138 626 222 706 318 706 c 0
 400 706 444 629 444 573 c 0
 444 519 396 463 346 426 c 1
 346 421 l 1
 396 388 455 348 485 309 c 0
 505 284 521 259 535 234 c 1
 537 234 l 1
 575 296 603 360 603 407 c 0
 603 431 580 441 560 443 c 0
 550 444 546 450 546 459 c 0
 546 469 551 473 557 473 c 0
 564 473 582 471 602 469 c 0
 625 466 639 465 652 465 c 0
 665 465 680 466 703 469 c 0
 723 471 740 473 748 473 c 0
 754 473 759 469 759 459 c 0
 759 450 755 446 745 444 c 0
 701 433 687 428 661 390 c 0
 648 371 630 335 611 297 c 0
 592 259 573 219 557 198 c 1
 568 177 577 156 586 132 c 0
 605 82 632 37 666 37 c 0
 698 37 711 50 730 78 c 0
 737 89 746 101 758 101 c 0
 767 101 773 95 773 87 c 0
 773 62 721 -18 638 -18 c 0xb7
 553 -18 506 25 482 95 c 1
 479 95 l 1
 409 20 320 -16 230 -16 c 0
 122 -16 43 50 43 152 c 0x7b
162 207 m 0x7b
 162 80 273 59 321 59 c 0
 375 59 425 88 466 130 c 1
 450 163 434 193 408 228 c 0
 372 276 303 324 243 359 c 1
 184 321 162 269 162 207 c 0x7b
200 585 m 0x37
 200 519 260 476 322 438 c 1
 358 464 370 492 370 550 c 0
 370 605 324 665 271 665 c 0
 235 665 200 619 200 585 c 0x37
EndSplineSet
Validated: 19457
Layer: 2
SplineSet
42.9688 151.855 m 0,0,1
 42.9688 278.32 42.9688 278.32 217.773 375 c 1,2,-1
 217.773 377.441 l 1,3,4
 180.664 406.25 180.664 406.25 159.18 442.871 c 128,-1,5
 137.695 479.492 137.695 479.492 137.695 532.227 c 0,6,7
 137.695 602.539 137.695 602.539 191.895 654.053 c 128,-1,8
 246.094 705.566 246.094 705.566 318.359 705.566 c 0,9,10
 356.934 705.566 356.934 705.566 386.719 683.594 c 128,-1,11
 416.504 661.621 416.504 661.621 430.42 631.836 c 128,-1,12
 444.336 602.051 444.336 602.051 444.336 572.754 c 0,13,14
 444.336 534.668 444.336 534.668 416.016 495.605 c 128,-1,15
 387.695 456.543 387.695 456.543 345.703 426.27 c 1,16,-1
 345.703 421.387 l 1,17,18
 451.172 352.051 451.172 352.051 484.863 309.082 c 0,19,20
 517.09 268.066 517.09 268.066 535.156 234.375 c 1,21,-1
 536.621 234.375 l 1,22,23
 602.539 343.75 602.539 343.75 602.539 407.227 c 0,24,25
 602.539 437.988 602.539 437.988 559.57 443.359 c 0,26,27
 545.898 444.824 545.898 444.824 545.898 458.984 c 0,28,29
 545.898 472.656 545.898 472.656 556.641 472.656 c 0,30,31
 570.801 472.656 570.801 472.656 602.051 468.75 c 0,32,33
 632.812 464.844 632.812 464.844 652.344 464.844 c 128,-1,34
 671.875 464.844 671.875 464.844 702.637 468.75 c 0,35,36
 733.887 472.656 733.887 472.656 748.047 472.656 c 0,37,38
 758.789 472.656 758.789 472.656 758.789 458.984 c 0,39,40
 758.789 447.754 758.789 447.754 744.629 444.336 c 0,41,42
 710.449 436.035 710.449 436.035 695.312 426.514 c 128,-1,43
 680.176 416.992 680.176 416.992 661.133 389.648 c 0,44,45
 646.973 369.629 646.973 369.629 611.328 296.875 c 0,46,47
 573.242 220.215 573.242 220.215 556.641 198.242 c 1,48,49
 577.637 156.25 577.637 156.25 586.426 131.836 c 0,50,51
 621.582 37.1094 621.582 37.1094 666.016 37.1094 c 0,52,53
 688.477 37.1094 688.477 37.1094 701.66 45.8984 c 128,-1,54
 714.844 54.6875 714.844 54.6875 729.98 77.6367 c 1,55,56
 746.094 101.074 746.094 101.074 758.301 101.074 c 0,57,58
 764.648 101.074 764.648 101.074 769.043 97.168 c 128,-1,59
 773.438 93.2617 773.438 93.2617 773.438 87.4023 c 0,60,61
 773.438 77.1484 773.438 77.1484 763.672 60.3027 c 128,-1,62
 753.906 43.457 753.906 43.457 737.061 25.6348 c 128,-1,63
 720.215 7.8125 720.215 7.8125 693.604 -4.88281 c 128,-1,64
 666.992 -17.5781 666.992 -17.5781 637.695 -17.5781 c 0,65,66
 520.996 -17.5781 520.996 -17.5781 481.934 94.7266 c 1,67,-1
 479.492 94.7266 l 1,68,69
 428.223 39.5508 428.223 39.5508 364.014 11.9629 c 128,-1,70
 299.805 -15.625 299.805 -15.625 230.469 -15.625 c 0,71,72
 148.438 -15.625 148.438 -15.625 95.7031 30.5176 c 128,-1,73
 42.9688 76.6602 42.9688 76.6602 42.9688 151.855 c 0,0,1
162.109 206.543 m 0,74,75
 162.109 170.41 162.109 170.41 174.316 142.578 c 128,-1,76
 186.523 114.746 186.523 114.746 204.102 99.3652 c 128,-1,77
 221.68 83.9844 221.68 83.9844 244.629 74.2188 c 128,-1,78
 267.578 64.4531 267.578 64.4531 285.645 61.5234 c 128,-1,79
 303.711 58.5938 303.711 58.5938 320.801 58.5938 c 0,80,81
 395.02 58.5938 395.02 58.5938 465.82 130.371 c 1,82,83
 437.988 187.012 437.988 187.012 407.715 227.539 c 0,84,85
 360.84 290.039 360.84 290.039 242.676 358.887 c 1,86,87
 162.109 307.129 162.109 307.129 162.109 206.543 c 0,74,75
200.195 584.961 m 0,88,89
 200.195 561.523 200.195 561.523 209.961 540.283 c 128,-1,90
 219.727 519.043 219.727 519.043 238.77 500.488 c 128,-1,91
 257.812 481.934 257.812 481.934 276.367 468.506 c 128,-1,92
 294.922 455.078 294.922 455.078 322.266 437.988 c 1,93,94
 349.121 457.52 349.121 457.52 359.619 481.934 c 128,-1,95
 370.117 506.348 370.117 506.348 370.117 549.805 c 0,96,97
 370.117 591.797 370.117 591.797 340.088 628.174 c 128,-1,98
 310.059 664.551 310.059 664.551 271.484 664.551 c 0,99,100
 245.117 664.551 245.117 664.551 222.656 638.184 c 128,-1,101
 200.195 611.816 200.195 611.816 200.195 584.961 c 0,88,89
EndSplineSet
Validated: 19457
EndChar

StartChar: quotesingle
Encoding: 7 39 7
Width: 283
VWidth: 0
Flags: W
HStem: 388 318<114.376 169>
VStem: 82 119<476.656 678.707>
LayerCount: 3
Fore
SplineSet
82 645 m 0
 82 675 138 706 169 706 c 0
 191 706 201 677 201 658 c 0
 201 654 199 637 198 624 c 2
 169 394 l 1
 161 390 153 388 142 388 c 0
 131 388 122 390 114 394 c 1
 84 621 l 2
 83 632 82 641 82 645 c 0
EndSplineSet
Validated: 19457
Layer: 2
SplineSet
82.0312 644.531 m 0,0,1
 82.0312 666.016 82.0312 666.016 113.037 686.035 c 128,-1,2
 144.043 706.055 144.043 706.055 168.945 706.055 c 0,3,4
 184.082 706.055 184.082 706.055 192.627 690.674 c 128,-1,5
 201.172 675.293 201.172 675.293 201.172 658.203 c 0,6,7
 201.172 653.32 201.172 653.32 197.754 623.535 c 2,8,-1
 168.945 393.555 l 1,9,10
 157.227 387.695 157.227 387.695 141.602 387.695 c 128,-1,11
 125.977 387.695 125.977 387.695 114.258 393.555 c 1,12,-1
 84.4727 621.094 l 2,13,14
 82.0312 639.16 82.0312 639.16 82.0312 644.531 c 0,0,1
EndSplineSet
Validated: 19457
EndChar

StartChar: parenleft
Encoding: 8 40 8
Width: 351
VWidth: 0
Flags: W
VStem: 75 95<113.029 410.971>
LayerCount: 3
Fore
SplineSet
75 262 m 0
 75 522 264 705 304 705 c 0
 313 705 320 696 320 690 c 0
 320 685 315 677 302 663 c 0
 208 562 170 421 170 262 c 0
 170 103 208 -38 302 -139 c 0
 315 -153 320 -161 320 -166 c 0
 320 -172 313 -181 304 -181 c 0
 264 -181 75 2 75 262 c 0
EndSplineSet
Validated: 19457
Layer: 2
SplineSet
75.1953 262.207 m 128,-1,1
 75.1953 335.449 75.1953 335.449 95.2148 407.227 c 128,-1,2
 115.234 479.004 115.234 479.004 144.531 530.762 c 128,-1,3
 173.828 582.52 173.828 582.52 206.543 623.291 c 128,-1,4
 239.258 664.062 239.258 664.062 265.381 684.57 c 128,-1,5
 291.504 705.078 291.504 705.078 304.199 705.078 c 0,6,7
 310.547 705.078 310.547 705.078 315.43 700.195 c 128,-1,8
 320.312 695.312 320.312 695.312 320.312 689.941 c 0,9,10
 320.312 683.105 320.312 683.105 301.758 663.086 c 0,11,12
 169.922 521.484 169.922 521.484 169.922 262.207 c 128,-1,13
 169.922 2.92969 169.922 2.92969 301.758 -138.672 c 0,14,15
 320.312 -158.691 320.312 -158.691 320.312 -165.527 c 0,16,17
 320.312 -170.898 320.312 -170.898 315.43 -175.781 c 128,-1,18
 310.547 -180.664 310.547 -180.664 304.199 -180.664 c 0,19,20
 291.504 -180.664 291.504 -180.664 265.381 -160.156 c 128,-1,21
 239.258 -139.648 239.258 -139.648 206.543 -98.877 c 128,-1,22
 173.828 -58.1055 173.828 -58.1055 144.531 -6.34766 c 128,-1,23
 115.234 45.4102 115.234 45.4102 95.2148 117.188 c 128,-1,0
 75.1953 188.965 75.1953 188.965 75.1953 262.207 c 128,-1,1
EndSplineSet
Validated: 19457
EndChar

StartChar: parenright
Encoding: 9 41 9
Width: 351
VWidth: 0
Flags: W
VStem: 182 94<113.029 410.971>
LayerCount: 3
Fore
SplineSet
31 -166 m 0
 31 -161 37 -153 50 -139 c 0
 144 -38 182 103 182 262 c 0
 182 421 144 562 50 663 c 0
 37 677 31 685 31 690 c 0
 31 696 38 705 47 705 c 0
 87 705 276 522 276 262 c 0
 276 2 87 -181 47 -181 c 0
 38 -181 31 -172 31 -166 c 0
EndSplineSet
Validated: 19457
Layer: 2
SplineSet
31.25 -165.527 m 0,0,1
 31.25 -158.691 31.25 -158.691 49.8047 -138.672 c 0,2,3
 181.641 2.92969 181.641 2.92969 181.641 262.207 c 128,-1,4
 181.641 521.484 181.641 521.484 49.8047 663.086 c 0,5,6
 31.25 683.105 31.25 683.105 31.25 689.941 c 0,7,8
 31.25 695.312 31.25 695.312 36.1328 700.195 c 128,-1,9
 41.0156 705.078 41.0156 705.078 47.3633 705.078 c 0,10,11
 60.0586 705.078 60.0586 705.078 86.1816 684.57 c 128,-1,12
 112.305 664.062 112.305 664.062 145.02 623.291 c 128,-1,13
 177.734 582.52 177.734 582.52 207.031 530.762 c 128,-1,14
 236.328 479.004 236.328 479.004 256.348 407.227 c 128,-1,15
 276.367 335.449 276.367 335.449 276.367 262.207 c 128,-1,16
 276.367 188.965 276.367 188.965 256.348 117.188 c 128,-1,17
 236.328 45.4102 236.328 45.4102 207.031 -6.34766 c 128,-1,18
 177.734 -58.1055 177.734 -58.1055 145.02 -98.877 c 128,-1,19
 112.305 -139.648 112.305 -139.648 86.1816 -160.156 c 128,-1,20
 60.0586 -180.664 60.0586 -180.664 47.3633 -180.664 c 0,21,22
 41.0156 -180.664 41.0156 -180.664 36.1328 -175.781 c 128,-1,23
 31.25 -170.898 31.25 -170.898 31.25 -165.527 c 0,0,1
EndSplineSet
Validated: 19457
EndChar

StartChar: asterisk
Encoding: 10 42 10
Width: 468
VWidth: 0
Flags: W
HStem: 519 85<52.4736 112.467 329.219 407.265>
VStem: 188 84<551.875 695.774>
LayerCount: 3
Fore
SplineSet
46 576 m 0
 46 595 60 604 80 604 c 0
 89 604 100 599 105 596 c 2
 209 539 l 1
 211 541 l 1
 189 656 l 2
 188 661 188 667 188 669 c 0
 188 687 227 710 246 710 c 0
 259 710 272 687 272 676 c 0
 272 673 272 664 271 657 c 2
 248 541 l 1
 250 539 l 1
 353 596 l 2
 360 600 365 602 371 602 c 0
 388 602 423 574 423 555 c 0
 423 542 407 526 398 522 c 0
 395 521 386 519 379 518 c 2
 261 504 l 1
 261 501 l 1
 346 421 l 2
 350 417 354 413 355 411 c 0
 357 408 358 404 358 399 c 0
 358 379 343 341 322 341 c 0
 301 341 289 355 281 372 c 2
 230 480 l 1
 229 480 l 1
 178 373 l 2
 171 358 164 353 142 353 c 0
 126 353 108 357 100 363 c 0
 95 367 93 375 93 383 c 0
 93 402 100 409 112 420 c 2
 199 501 l 1
 199 504 l 1
 81 519 l 2
 76 519 70 520 68 521 c 0
 54 525 46 555 46 576 c 0
EndSplineSet
Validated: 19457
Layer: 2
SplineSet
45.8984 576.172 m 0,0,1
 45.8984 589.844 45.8984 589.844 55.1758 597.168 c 128,-1,2
 64.4531 604.492 64.4531 604.492 80.0781 604.492 c 0,3,4
 89.8438 604.492 89.8438 604.492 104.98 596.191 c 2,5,-1
 208.984 539.062 l 1,6,-1
 210.938 540.527 l 1,7,-1
 188.965 655.762 l 2,8,9
 187.5 664.062 187.5 664.062 187.5 668.945 c 0,10,11
 187.5 681.641 187.5 681.641 209.229 695.801 c 128,-1,12
 230.957 709.961 230.957 709.961 246.094 709.961 c 0,13,14
 255.371 709.961 255.371 709.961 263.916 697.51 c 128,-1,15
 272.461 685.059 272.461 685.059 272.461 675.781 c 128,-1,16
 272.461 666.504 272.461 666.504 270.508 656.738 c 2,17,-1
 248.047 540.527 l 1,18,-1
 250 539.062 l 1,19,-1
 353.027 595.703 l 2,20,21
 363.281 601.562 363.281 601.562 370.605 601.562 c 0,22,23
 383.789 601.562 383.789 601.562 403.32 584.961 c 128,-1,24
 422.852 568.359 422.852 568.359 422.852 554.688 c 0,25,26
 422.852 545.898 422.852 545.898 414.307 535.645 c 128,-1,27
 405.762 525.391 405.762 525.391 397.949 521.973 c 0,28,29
 393.066 520.02 393.066 520.02 379.395 518.066 c 2,30,-1
 260.742 503.906 l 1,31,-1
 260.742 500.977 l 1,32,-1
 346.191 421.387 l 2,33,34
 352.539 415.039 352.539 415.039 355.469 411.133 c 0,35,36
 358.398 406.738 358.398 406.738 358.398 399.414 c 0,37,38
 358.398 382.324 358.398 382.324 347.412 361.572 c 128,-1,39
 336.426 340.82 336.426 340.82 322.266 340.82 c 0,40,41
 295.41 340.82 295.41 340.82 280.762 372.07 c 2,42,-1
 230.469 480.469 l 1,43,-1
 228.516 480.469 l 1,44,-1
 177.734 373.047 l 2,45,46
 172.363 361.328 172.363 361.328 165.039 356.934 c 128,-1,47
 157.715 352.539 157.715 352.539 141.602 352.539 c 0,48,49
 114.746 352.539 114.746 352.539 100.098 362.793 c 0,50,51
 92.7734 368.164 92.7734 368.164 92.7734 382.812 c 0,52,53
 92.7734 395.508 92.7734 395.508 97.168 403.32 c 128,-1,54
 101.562 411.133 101.562 411.133 111.816 420.41 c 2,55,-1
 199.219 500.977 l 1,56,-1
 199.219 503.906 l 1,57,-1
 81.0547 518.555 l 2,58,59
 71.7773 519.531 71.7773 519.531 67.8711 520.996 c 0,60,61
 58.1055 523.926 58.1055 523.926 52.002 541.26 c 128,-1,62
 45.8984 558.594 45.8984 558.594 45.8984 576.172 c 0,0,1
EndSplineSet
Validated: 19457
EndChar

StartChar: plus
Encoding: 11 43 11
Width: 640
VWidth: 1014
Flags: W
HStem: -6 21G<336 342> 212 59<82.6476 289 352 558.352>
VStem: 289 63<2.40673 212 271 480.336>
LayerCount: 3
Fore
SplineSet
74 223 m 0
 74 229 76 235 82 248 c 0
 89 264 93 271 100 271 c 2
 289 271 l 1
 289 472 l 2
 289 479 295 489 301 489 c 0
 307 489 312 487 326 482 c 0
 342 476 352 471 352 464 c 2
 352 271 l 1
 550 271 l 2
 557 271 566 266 566 260 c 0
 566 254 565 248 559 235 c 0
 552 219 548 212 541 212 c 2
 352 212 l 1
 352 11 l 2
 352 4 345 -6 339 -6 c 0
 333 -6 328 -4 314 1 c 0
 298 7 289 13 289 20 c 2
 289 212 l 1
 90 212 l 2
 83 212 74 217 74 223 c 0
EndSplineSet
Validated: 19457
Layer: 2
SplineSet
74.2188 223.145 m 0,0,1
 74.2188 230.469 74.2188 230.469 82.0312 248.047 c 0,2,3
 87.8906 261.23 87.8906 261.23 91.3086 266.357 c 128,-1,4
 94.7266 271.484 94.7266 271.484 99.6094 271.484 c 2,5,-1
 289.062 271.484 l 1,6,-1
 289.062 472.168 l 2,7,8
 289.062 478.027 289.062 478.027 292.969 483.643 c 128,-1,9
 296.875 489.258 296.875 489.258 301.27 489.258 c 0,10,11
 307.617 489.258 307.617 489.258 326.172 481.934 c 0,12,13
 339.844 476.562 339.844 476.562 345.703 472.656 c 128,-1,14
 351.562 468.75 351.562 468.75 351.562 463.867 c 2,15,-1
 351.562 271.484 l 1,16,-1
 550.293 271.484 l 2,17,18
 556.152 271.484 556.152 271.484 561.279 268.066 c 128,-1,19
 566.406 264.648 566.406 264.648 566.406 260.254 c 0,20,21
 566.406 252.93 566.406 252.93 558.594 235.352 c 0,22,23
 552.734 222.168 552.734 222.168 549.316 217.041 c 128,-1,24
 545.898 211.914 545.898 211.914 541.016 211.914 c 2,25,-1
 351.562 211.914 l 1,26,-1
 351.562 11.2305 l 2,27,28
 351.562 5.37109 351.562 5.37109 347.656 -0.244141 c 128,-1,29
 343.75 -5.85938 343.75 -5.85938 339.355 -5.85938 c 0,30,31
 333.008 -5.85938 333.008 -5.85938 314.453 1.46484 c 0,32,33
 300.781 6.83594 300.781 6.83594 294.922 10.7422 c 128,-1,34
 289.062 14.6484 289.062 14.6484 289.062 19.5312 c 2,35,-1
 289.062 211.914 l 1,36,-1
 90.332 211.914 l 2,37,38
 84.4727 211.914 84.4727 211.914 79.3457 215.332 c 128,-1,39
 74.2188 218.75 74.2188 218.75 74.2188 223.145 c 0,0,1
EndSplineSet
Validated: 19457
EndChar

StartChar: comma
Encoding: 12 44 12
Width: 257
Flags: W
HStem: -155 304
VStem: 131 85<-53.3203 61>
LayerCount: 3
Fore
SplineSet
51 64 m 0
 51 78 64 86 82 94 c 0
 96 100 106 112 115 127 c 0
 125 143 131 149 146 149 c 0
 161 149 216 95 216 27 c 0
 216 -33 183 -77 152 -104 c 0
 123 -129 85 -155 70 -155 c 0
 64 -155 53 -145 53 -138 c 0
 53 -132 64 -123 83 -110 c 0
 109 -92 131 -65 131 -31 c 0
 131 -5 119 7 96 22 c 0
 70 39 51 52 51 64 c 0
EndSplineSet
Validated: 19457
Layer: 2
SplineSet
50.7812 63.9648 m 0,0,1
 50.7812 80.5664 50.7812 80.5664 81.543 93.75 c 0,2,3
 98.6328 101.562 98.6328 101.562 115.234 127.441 c 0,4,5
 123.535 140.137 123.535 140.137 129.15 144.531 c 128,-1,6
 134.766 148.926 134.766 148.926 145.508 148.926 c 0,7,8
 151.367 148.926 151.367 148.926 162.842 139.16 c 128,-1,9
 174.316 129.395 174.316 129.395 186.279 113.77 c 128,-1,10
 198.242 98.1445 198.242 98.1445 207.031 74.707 c 128,-1,11
 215.82 51.2695 215.82 51.2695 215.82 27.3438 c 0,12,13
 215.82 -48.3398 215.82 -48.3398 152.344 -104.004 c 0,14,15
 129.395 -124.023 129.395 -124.023 104.98 -139.648 c 128,-1,16
 80.5664 -155.273 80.5664 -155.273 69.8242 -155.273 c 0,17,18
 64.9414 -155.273 64.9414 -155.273 58.8379 -149.17 c 128,-1,19
 52.7344 -143.066 52.7344 -143.066 52.7344 -138.184 c 0,20,21
 52.7344 -130.859 52.7344 -130.859 83.4961 -109.863 c 0,22,23
 130.859 -77.6367 130.859 -77.6367 130.859 -31.25 c 0,24,25
 130.859 -12.6953 130.859 -12.6953 122.803 -0.976562 c 128,-1,26
 114.746 10.7422 114.746 10.7422 96.1914 22.4609 c 0,27,28
 80.0781 32.7148 80.0781 32.7148 72.2656 38.3301 c 128,-1,29
 64.4531 43.9453 64.4531 43.9453 57.6172 51.0254 c 128,-1,30
 50.7812 58.1055 50.7812 58.1055 50.7812 63.9648 c 0,0,1
EndSplineSet
Validated: 19457
EndChar

StartChar: period
Encoding: 14 46 14
Width: 257
VWidth: 1014
Flags: W
HStem: -18 157<76.5856 181.414>
VStem: 51 156<6.73829 114.785>
LayerCount: 3
Fore
SplineSet
51 61 m 0
 51 104 86 139 129 139 c 0
 172 139 207 104 207 61 c 0
 207 18 172 -18 129 -18 c 0
 86 -18 51 18 51 61 c 0
EndSplineSet
Validated: 19457
Layer: 2
SplineSet
50.7812 60.5469 m 128,-1,1
 50.7812 92.7734 50.7812 92.7734 73.7305 115.723 c 128,-1,2
 96.6797 138.672 96.6797 138.672 128.906 138.672 c 128,-1,3
 161.133 138.672 161.133 138.672 184.082 115.723 c 128,-1,4
 207.031 92.7734 207.031 92.7734 207.031 60.5469 c 128,-1,5
 207.031 28.3203 207.031 28.3203 184.082 5.37109 c 128,-1,6
 161.133 -17.5781 161.133 -17.5781 128.906 -17.5781 c 128,-1,7
 96.6797 -17.5781 96.6797 -17.5781 73.7305 5.37109 c 128,-1,0
 50.7812 28.3203 50.7812 28.3203 50.7812 60.5469 c 128,-1,1
EndSplineSet
Validated: 19457
EndChar

StartChar: slash
Encoding: 15 47 15
Width: 484
VWidth: 1014
Flags: W
DStem2: 35 -58 85 -99 0.434282 0.900777<-13.277 836.225>
LayerCount: 3
Fore
SplineSet
31 -71 m 0
 31 -67 33 -62 35 -58 c 2
 399 697 l 2
 402 703 407 708 412 708 c 0
 414 708 419 705 423 703 c 0
 449 688 453 677 453 669 c 0
 453 665 451 660 449 656 c 2
 85 -99 l 2
 82 -105 77 -109 72 -109 c 0
 70 -109 65 -107 61 -105 c 0
 35 -90 31 -79 31 -71 c 0
EndSplineSet
Validated: 19457
Layer: 2
SplineSet
31.25 -71.2891 m 0,0,1
 31.25 -66.8945 31.25 -66.8945 35.1562 -58.1055 c 2,2,-1
 399.414 696.777 l 2,3,4
 404.297 707.52 404.297 707.52 412.109 707.52 c 0,5,6
 415.527 707.52 415.527 707.52 423.34 703.125 c 0,7,8
 453.125 685.547 453.125 685.547 453.125 669.434 c 0,9,10
 453.125 665.039 453.125 665.039 449.219 656.25 c 2,11,-1
 84.9609 -98.6328 l 2,12,13
 80.0781 -109.375 80.0781 -109.375 72.2656 -109.375 c 0,14,15
 68.8477 -109.375 68.8477 -109.375 61.0352 -104.98 c 0,16,17
 31.25 -87.4023 31.25 -87.4023 31.25 -71.2891 c 0,0,1
EndSplineSet
Validated: 19457
EndChar

StartChar: zero
Encoding: 16 48 16
Width: 640
VWidth: 0
Flags: W
HStem: -17 30<272.193 367.824> 682 29<272.193 367.824>
VStem: 55 137<199.371 494.726> 448 138<199.371 494.726>
LayerCount: 3
Fore
SplineSet
55 347 m 0
 55 560 176 711 320 711 c 0
 464 711 586 560 586 347 c 0
 586 134 464 -17 320 -17 c 0
 176 -17 55 134 55 347 c 0
192 347 m 0
 192 154 219 13 320 13 c 0
 421 13 448 154 448 347 c 0
 448 540 421 682 320 682 c 0
 219 682 192 540 192 347 c 0
EndSplineSet
Validated: 19457
Layer: 2
SplineSet
54.6875 347.168 m 128,-1,1
 54.6875 425.293 54.6875 425.293 76.1719 493.652 c 128,-1,2
 97.6562 562.012 97.6562 562.012 133.789 609.375 c 128,-1,3
 169.922 656.738 169.922 656.738 218.506 683.838 c 128,-1,4
 267.09 710.938 267.09 710.938 320.312 710.938 c 128,-1,5
 373.535 710.938 373.535 710.938 422.119 683.838 c 128,-1,6
 470.703 656.738 470.703 656.738 506.836 609.375 c 128,-1,7
 542.969 562.012 542.969 562.012 564.453 493.652 c 128,-1,8
 585.938 425.293 585.938 425.293 585.938 347.168 c 128,-1,9
 585.938 269.043 585.938 269.043 564.453 200.684 c 128,-1,10
 542.969 132.324 542.969 132.324 506.836 84.9609 c 128,-1,11
 470.703 37.5977 470.703 37.5977 422.119 10.498 c 128,-1,12
 373.535 -16.6016 373.535 -16.6016 320.312 -16.6016 c 128,-1,13
 267.09 -16.6016 267.09 -16.6016 218.506 10.498 c 128,-1,14
 169.922 37.5977 169.922 37.5977 133.789 84.9609 c 128,-1,15
 97.6562 132.324 97.6562 132.324 76.1719 200.684 c 128,-1,0
 54.6875 269.043 54.6875 269.043 54.6875 347.168 c 128,-1,1
192.383 347.168 m 128,-1,17
 192.383 270.508 192.383 270.508 198.486 212.646 c 128,-1,18
 204.59 154.785 204.59 154.785 218.506 108.154 c 128,-1,19
 232.422 61.5234 232.422 61.5234 258.057 37.1094 c 128,-1,20
 283.691 12.6953 283.691 12.6953 320.312 12.6953 c 128,-1,21
 356.934 12.6953 356.934 12.6953 382.568 37.1094 c 128,-1,22
 408.203 61.5234 408.203 61.5234 422.119 108.154 c 128,-1,23
 436.035 154.785 436.035 154.785 442.139 212.646 c 128,-1,24
 448.242 270.508 448.242 270.508 448.242 347.168 c 128,-1,25
 448.242 423.828 448.242 423.828 442.139 481.689 c 128,-1,26
 436.035 539.551 436.035 539.551 422.119 586.182 c 128,-1,27
 408.203 632.812 408.203 632.812 382.568 657.227 c 128,-1,28
 356.934 681.641 356.934 681.641 320.312 681.641 c 128,-1,29
 283.691 681.641 283.691 681.641 258.057 657.227 c 128,-1,30
 232.422 632.812 232.422 632.812 218.506 586.182 c 128,-1,31
 204.59 539.551 204.59 539.551 198.486 481.689 c 128,-1,16
 192.383 423.828 192.383 423.828 192.383 347.168 c 128,-1,17
EndSplineSet
Validated: 19457
EndChar

StartChar: one
Encoding: 17 49 17
Width: 382
VWidth: 0
Flags: W
HStem: -8 29<45.0118 117 268.494 360.988> 595 29<45.0928 126.212> 678 20G<247 256>
VStem: 143 121<27.4182 584.412>
LayerCount: 3
Fore
SplineSet
45 6 m 0
 45 15 49 20 59 21 c 2
 117 27 l 2
 130 28 143 31 143 50 c 2
 143 533 l 2
 143 583 118 595 65 595 c 0
 53 595 45 598 45 608 c 0
 45 620 55 623 63 624 c 0
 136 635 191 659 231 690 c 0
 236 693 244 698 250 698 c 0
 262 698 264 691 264 683 c 10
 264 50 l 18
 264 31 276 28 289 27 c 2
 348 21 l 2
 358 20 361 15 361 6 c 0
 361 -4 357 -8 351 -8 c 0
 338 -8 301 -5 281 -3 c 0
 259 -1 222 2 203 2 c 0
 184 2 147 -1 125 -3 c 0
 105 -5 68 -8 55 -8 c 0
 49 -8 45 -4 45 6 c 0
EndSplineSet
Validated: 19457
Layer: 2
SplineSet
44.9219 5.85938 m 0,0,1
 44.9219 20.0195 44.9219 20.0195 58.5938 21.4844 c 2,2,-1
 117.188 26.8555 l 2,3,4
 128.906 27.832 128.906 27.832 135.742 32.4707 c 128,-1,5
 142.578 37.1094 142.578 37.1094 142.578 50.293 c 2,6,-1
 142.578 532.715 l 2,7,8
 142.578 568.848 142.578 568.848 125 581.787 c 128,-1,9
 107.422 594.727 107.422 594.727 65.4297 594.727 c 0,10,11
 44.9219 594.727 44.9219 594.727 44.9219 608.398 c 128,-1,12
 44.9219 622.07 44.9219 622.07 62.9883 624.023 c 1,13,14
 164.551 638.672 164.551 638.672 231.445 690.43 c 1,15,16
 242.676 698.242 242.676 698.242 249.512 698.242 c 0,17,18
 263.672 698.242 263.672 698.242 263.672 682.617 c 2,19,-1
 263.672 50.293 l 2,20,21
 263.672 37.1094 263.672 37.1094 270.508 32.4707 c 128,-1,22
 277.344 27.832 277.344 27.832 289.062 26.8555 c 2,23,-1
 347.656 21.4844 l 2,24,25
 361.328 20.0195 361.328 20.0195 361.328 5.85938 c 0,26,27
 361.328 -7.8125 361.328 -7.8125 351.074 -7.8125 c 0,28,29
 331.055 -7.8125 331.055 -7.8125 281.25 -2.92969 c 1,30,31
 225.098 1.95312 225.098 1.95312 203.125 1.95312 c 128,-1,32
 181.152 1.95312 181.152 1.95312 125 -2.92969 c 1,33,34
 75.1953 -7.8125 75.1953 -7.8125 55.1758 -7.8125 c 0,35,36
 44.9219 -7.8125 44.9219 -7.8125 44.9219 5.85938 c 0,0,1
EndSplineSet
Validated: 19457
EndChar

StartChar: two
Encoding: 18 50 18
Width: 571
VWidth: 0
Flags: W
HStem: 0 107<172 474.385> 620 88<192.683 303.153>
VStem: 353 137<447.764 570.578>
LayerCount: 3
Fore
SplineSet
30 8 m 0
 30 18 35 26 38 28 c 0
 227 208 353 337 353 503 c 0
 353 566 310 620 225 620 c 0
 178 620 122 594 80 541 c 0
 72 531 67 525 59 525 c 0
 47 525 42 530 42 542 c 0
 42 568 152 708 281 708 c 0
 403 708 490 641 490 529 c 0
 490 428 377 311 273 213 c 0
 236 178 201 145 172 112 c 1
 172 107 l 9
 428 107 l 18
 462 107 470 118 488 151 c 0
 494 163 506 182 519 182 c 0
 528 182 534 177 534 169 c 0
 534 165 530 151 527 142 c 2
 475 0 l 9
 38 0 l 18
 34 0 30 4 30 8 c 0
EndSplineSet
Validated: 19457
Layer: 2
SplineSet
30.2734 7.8125 m 0,0,1
 30.2734 21.4844 30.2734 21.4844 38.0859 27.832 c 1,2,3
 84.9609 72.2656 84.9609 72.2656 115.723 102.539 c 128,-1,4
 146.484 132.812 146.484 132.812 182.617 171.387 c 128,-1,5
 218.75 209.961 218.75 209.961 241.699 239.014 c 128,-1,6
 264.648 268.066 264.648 268.066 287.842 302.979 c 128,-1,7
 311.035 337.891 311.035 337.891 323.73 368.652 c 128,-1,8
 336.426 399.414 336.426 399.414 344.482 433.838 c 128,-1,9
 352.539 468.262 352.539 468.262 352.539 503.418 c 0,10,11
 352.539 553.223 352.539 553.223 319.336 586.67 c 128,-1,12
 286.133 620.117 286.133 620.117 225.098 620.117 c 0,13,14
 188.477 620.117 188.477 620.117 149.414 599.609 c 128,-1,15
 110.352 579.102 110.352 579.102 80.0781 540.527 c 0,16,17
 73.2422 531.738 73.2422 531.738 69.0918 528.32 c 128,-1,18
 64.9414 524.902 64.9414 524.902 59.082 524.902 c 0,19,20
 49.8047 524.902 49.8047 524.902 45.8984 528.809 c 128,-1,21
 41.9922 532.715 41.9922 532.715 41.9922 541.992 c 0,22,23
 41.9922 550.293 41.9922 550.293 54.1992 569.336 c 128,-1,24
 66.4062 588.379 66.4062 588.379 89.3555 612.061 c 128,-1,25
 112.305 635.742 112.305 635.742 140.869 657.227 c 128,-1,26
 169.434 678.711 169.434 678.711 207.031 693.359 c 128,-1,27
 244.629 708.008 244.629 708.008 281.25 708.008 c 0,28,29
 374.512 708.008 374.512 708.008 432.373 659.668 c 128,-1,30
 490.234 611.328 490.234 611.328 490.234 528.809 c 0,31,32
 490.234 499.512 490.234 499.512 477.051 466.064 c 128,-1,33
 463.867 432.617 463.867 432.617 444.336 402.832 c 128,-1,34
 424.805 373.047 424.805 373.047 393.555 337.158 c 128,-1,35
 362.305 301.27 362.305 301.27 335.938 274.658 c 128,-1,36
 309.57 248.047 309.57 248.047 272.949 213.379 c 0,37,38
 203.125 146.973 203.125 146.973 172.363 111.816 c 1,39,-1
 172.363 107.422 l 1,40,-1
 428.223 107.422 l 2,41,42
 452.637 107.422 452.637 107.422 463.379 115.967 c 128,-1,43
 474.121 124.512 474.121 124.512 488.281 150.879 c 1,44,45
 504.395 182.129 504.395 182.129 519.043 182.129 c 0,46,47
 534.18 182.129 534.18 182.129 534.18 168.945 c 0,48,49
 534.18 162.109 534.18 162.109 526.855 142.09 c 2,50,-1
 474.609 0 l 1,51,-1
 37.5977 0 l 2,52,53
 30.2734 0 30.2734 0 30.2734 7.8125 c 0,0,1
EndSplineSet
Validated: 19457
EndChar

StartChar: three
Encoding: 19 51 19
Width: 488
VWidth: 0
Flags: W
HStem: -17 39<27.6611 175.04> 619 88<173.15 280.86>
VStem: 305 108<527.466 595.88> 315 138<157.485 276.433>
LayerCount: 3
Fore
SplineSet
25 10 m 0xd0
 25 19 33 22 44 22 c 0
 185 22 315 74 315 220 c 0xd0
 315 305 216 327 138 327 c 0
 130 327 122 330 122 337 c 0
 122 352 134 359 165 378 c 0
 231 417 305 469 305 544 c 0
 305 584 278 619 212 619 c 0
 159 619 113 589 71 547 c 0
 66 542 56 534 50 534 c 0
 42 534 38 538 38 547 c 0
 38 582 142 707 259 707 c 0
 333 707 413 666 413 584 c 0xe0
 413 541 366 491 327 464 c 0
 304 448 291 439 271 421 c 1
 272 417 l 1
 369 407 453 347 453 254 c 0
 453 94 294 -17 107 -17 c 0
 63 -17 25 -8 25 10 c 0xd0
EndSplineSet
Validated: 19457
Layer: 2
SplineSet
25.3906 9.76562 m 128,-1,1
 25.3906 22.4609 25.3906 22.4609 43.9453 22.4609 c 0,2,3
 99.1211 22.4609 99.1211 22.4609 146.24 33.2031 c 128,-1,4
 193.359 43.9453 193.359 43.9453 232.178 66.4062 c 128,-1,5
 270.996 88.8672 270.996 88.8672 293.213 128.174 c 128,-1,6
 315.43 167.48 315.43 167.48 315.43 220.215 c 0,7,8
 315.43 250.488 315.43 250.488 299.072 272.705 c 128,-1,9
 282.715 294.922 282.715 294.922 255.371 306.152 c 128,-1,10
 228.027 317.383 228.027 317.383 199.219 322.266 c 128,-1,11
 170.41 327.148 170.41 327.148 138.184 327.148 c 0,12,13
 122.07 327.148 122.07 327.148 122.07 337.402 c 128,-1,14
 122.07 347.656 122.07 347.656 130.371 355.225 c 128,-1,15
 138.672 362.793 138.672 362.793 164.551 377.93 c 0,16,17
 193.848 395.02 193.848 395.02 215.332 410.4 c 128,-1,18
 236.816 425.781 236.816 425.781 258.789 447.021 c 128,-1,19
 280.762 468.262 280.762 468.262 292.725 492.92 c 128,-1,20
 304.688 517.578 304.688 517.578 304.688 544.434 c 0,21,22
 304.688 576.66 304.688 576.66 281.982 597.9 c 128,-1,23
 259.277 619.141 259.277 619.141 212.402 619.141 c 0,24,25
 143.066 619.141 143.066 619.141 70.8008 546.875 c 0,26,27
 58.1055 534.18 58.1055 534.18 50.293 534.18 c 0,28,29
 37.5977 534.18 37.5977 534.18 37.5977 547.363 c 0,30,31
 37.5977 558.105 37.5977 558.105 49.0723 577.393 c 128,-1,32
 60.5469 596.68 60.5469 596.68 82.0312 618.896 c 128,-1,33
 103.516 641.113 103.516 641.113 130.127 660.889 c 128,-1,34
 156.738 680.664 156.738 680.664 191.162 693.848 c 128,-1,35
 225.586 707.031 225.586 707.031 258.789 707.031 c 0,36,37
 297.363 707.031 297.363 707.031 331.787 693.848 c 128,-1,38
 366.211 680.664 366.211 680.664 389.648 651.855 c 128,-1,39
 413.086 623.047 413.086 623.047 413.086 583.984 c 0,40,41
 413.086 554.199 413.086 554.199 386.963 520.996 c 128,-1,42
 360.84 487.793 360.84 487.793 327.148 464.355 c 128,-1,43
 293.457 440.918 293.457 440.918 271.484 421.387 c 1,44,-1
 272.461 416.504 l 1,45,46
 348.633 408.691 348.633 408.691 400.879 364.746 c 128,-1,47
 453.125 320.801 453.125 320.801 453.125 253.906 c 0,48,49
 453.125 175.781 453.125 175.781 405.518 113.281 c 128,-1,50
 357.91 50.7812 357.91 50.7812 279.053 17.0898 c 128,-1,51
 200.195 -16.6016 200.195 -16.6016 106.934 -16.6016 c 0,52,53
 72.2656 -16.6016 72.2656 -16.6016 48.8281 -9.76562 c 128,-1,0
 25.3906 -2.92969 25.3906 -2.92969 25.3906 9.76562 c 128,-1,1
EndSplineSet
Validated: 19457
EndChar

StartChar: four
Encoding: 20 52 20
Width: 589
VWidth: 0
Flags: W
HStem: -8 29<193.015 286.832 438 509.988> 167 84<108.004 291 412 518.968>
VStem: 291 121<27.4182 167 251 503.998> 534 38<268.119 325.483>
DStem2: 44 229 117 280 0.58491 0.811098<64.4681 363.319>
LayerCount: 3
Fore
SplineSet
12 160 m 0
 12 186 33 214 44 229 c 2
 375 688 l 2
 380 695 391 703 397 703 c 0
 409 703 412 696 412 688 c 2
 412 251 l 1
 464 251 l 2
 501 251 516 259 534 299 c 0
 540 314 547 327 560 327 c 0
 568 327 572 321 572 315 c 0
 572 307 567 289 564 278 c 2
 528 167 l 1
 412 167 l 1
 412 50 l 2
 412 31 425 28 438 27 c 2
 496 21 l 2
 506 20 510 15 510 6 c 0
 510 -4 506 -8 500 -8 c 0
 487 -8 450 -5 430 -3 c 0
 408 -1 371 2 352 2 c 0
 333 2 295 -1 273 -3 c 0
 253 -5 217 -8 204 -8 c 0
 198 -8 193 -4 193 6 c 0
 193 15 197 20 207 21 c 2
 266 27 l 2
 279 28 291 31 291 50 c 2
 291 167 l 1
 69 167 l 2
 57 167 46 165 38 153 c 0
 34 147 32 145 24 145 c 0
 19 145 12 148 12 160 c 0
108 262 m 0
 108 255 114 251 126 251 c 2
 291 251 l 1
 291 494 l 2
 291 501 288 504 284 504 c 0
 280 504 276 501 271 494 c 2
 117 280 l 2
 113 275 108 269 108 262 c 0
EndSplineSet
Validated: 19457
Layer: 2
SplineSet
11.7188 159.668 m 0,0,1
 11.7188 187.5 11.7188 187.5 43.9453 229.492 c 1,2,-1
 375 687.5 l 2,3,4
 379.395 693.359 379.395 693.359 386.23 698.242 c 128,-1,5
 393.066 703.125 393.066 703.125 397.461 703.125 c 0,6,7
 412.109 703.125 412.109 703.125 412.109 687.5 c 2,8,-1
 412.109 250.977 l 1,9,-1
 464.355 250.977 l 2,10,11
 493.164 250.977 493.164 250.977 507.324 260.254 c 128,-1,12
 521.484 269.531 521.484 269.531 534.18 298.828 c 0,13,14
 540.039 312.5 540.039 312.5 545.654 319.58 c 128,-1,15
 551.27 326.66 551.27 326.66 560.059 326.66 c 0,16,17
 565.43 326.66 565.43 326.66 568.848 323.242 c 128,-1,18
 572.266 319.824 572.266 319.824 572.266 314.941 c 0,19,20
 572.266 304.199 572.266 304.199 563.965 278.32 c 2,21,-1
 527.832 166.992 l 1,22,-1
 412.109 166.992 l 1,23,-1
 412.109 50.293 l 2,24,25
 412.109 37.1094 412.109 37.1094 418.945 32.4707 c 128,-1,26
 425.781 27.832 425.781 27.832 437.5 26.8555 c 2,27,-1
 496.094 21.4844 l 2,28,29
 509.766 20.0195 509.766 20.0195 509.766 5.85938 c 0,30,31
 509.766 -7.8125 509.766 -7.8125 499.512 -7.8125 c 0,32,33
 479.492 -7.8125 479.492 -7.8125 429.688 -2.92969 c 1,34,35
 373.535 1.95312 373.535 1.95312 351.562 1.95312 c 128,-1,36
 329.59 1.95312 329.59 1.95312 273.438 -2.92969 c 1,37,38
 223.633 -7.8125 223.633 -7.8125 203.613 -7.8125 c 0,39,40
 193.359 -7.8125 193.359 -7.8125 193.359 5.85938 c 0,41,42
 193.359 20.0195 193.359 20.0195 207.031 21.4844 c 2,43,-1
 265.625 26.8555 l 2,44,45
 277.344 27.832 277.344 27.832 284.18 32.4707 c 128,-1,46
 291.016 37.1094 291.016 37.1094 291.016 50.293 c 2,47,-1
 291.016 166.992 l 1,48,-1
 69.3359 166.992 l 2,49,50
 47.3633 166.992 47.3633 166.992 38.0859 153.32 c 0,51,52
 32.2266 144.531 32.2266 144.531 23.9258 144.531 c 0,53,54
 11.7188 144.531 11.7188 144.531 11.7188 159.668 c 0,0,1
108.398 261.719 m 0,55,56
 108.398 250.977 108.398 250.977 125.977 250.977 c 2,57,-1
 291.016 250.977 l 1,58,-1
 291.016 494.141 l 2,59,60
 291.016 503.906 291.016 503.906 283.691 503.906 c 0,61,62
 278.32 503.906 278.32 503.906 270.996 493.652 c 2,63,-1
 116.699 280.273 l 2,64,65
 108.398 269.043 108.398 269.043 108.398 261.719 c 0,55,56
EndSplineSet
Validated: 19457
EndChar

StartChar: five
Encoding: 21 53 21
Width: 503
VWidth: 0
Flags: W
HStem: -17 39<28.5688 167.463> 366 113<133.209 291.945> 586 105<122.859 406.252>
VStem: 339 127<200.624 321.866>
DStem2: 76 406 112 451 0.0766965 0.997054<47.6285 194.042>
LayerCount: 3
Fore
SplineSet
27 10 m 0
 27 19 35 22 44 22 c 0
 201 22 339 94 339 249 c 0
 339 322 296 366 209 366 c 0
 173 366 136 354 110 338 c 0
 100 332 85 324 76 324 c 0
 66 324 62 333 62 340 c 0
 62 346 63 354 66 364 c 0
 70 377 75 387 76 406 c 10
 99 705 l 17
 166 697 229 691 278 691 c 0
 307 691 338 692 363 695 c 0
 398 699 405 706 423 739 c 0
 429 751 441 770 454 770 c 0
 463 770 469 765 469 757 c 0
 469 753 464 739 461 730 c 2
 412 594 l 1
 352 589 321 586 261 586 c 0
 224 586 163 591 123 597 c 9
 112 451 l 25
 114 449 l 17
 159 472 216 479 249 479 c 0
 381 479 466 406 466 302 c 0
 466 127 288 -17 83 -17 c 0
 41 -17 27 -4 27 10 c 0
EndSplineSet
Validated: 19457
Layer: 2
SplineSet
27.3438 9.76562 m 0,0,1
 27.3438 22.4609 27.3438 22.4609 43.9453 22.4609 c 0,2,3
 104.004 22.4609 104.004 22.4609 156.25 36.377 c 128,-1,4
 208.496 50.293 208.496 50.293 249.756 77.1484 c 128,-1,5
 291.016 104.004 291.016 104.004 314.941 148.193 c 128,-1,6
 338.867 192.383 338.867 192.383 338.867 249.023 c 0,7,8
 338.867 305.176 338.867 305.176 306.152 335.693 c 128,-1,9
 273.438 366.211 273.438 366.211 209.473 366.211 c 0,10,11
 155.762 366.211 155.762 366.211 109.863 338.379 c 0,12,13
 86.9141 324.219 86.9141 324.219 76.1719 324.219 c 0,14,15
 68.8477 324.219 68.8477 324.219 65.1855 329.102 c 128,-1,16
 61.5234 333.984 61.5234 333.984 61.5234 340.332 c 0,17,18
 61.5234 349.609 61.5234 349.609 66.4062 363.77 c 0,19,20
 74.2188 385.742 74.2188 385.742 75.6836 406.25 c 2,21,-1
 99.1211 704.59 l 1,22,23
 209.473 690.918 209.473 690.918 277.832 690.918 c 0,24,25
 325.195 690.918 325.195 690.918 362.793 695.312 c 0,26,27
 388.672 698.242 388.672 698.242 399.17 705.811 c 128,-1,28
 409.668 713.379 409.668 713.379 422.852 738.77 c 0,29,30
 438.965 770.02 438.965 770.02 453.613 770.02 c 0,31,32
 468.75 770.02 468.75 770.02 468.75 756.836 c 0,33,34
 468.75 750 468.75 750 461.426 729.98 c 2,35,-1
 411.621 593.75 l 1,36,37
 329.59 586.426 329.59 586.426 261.23 586.426 c 0,38,39
 190.918 586.426 190.918 586.426 123.047 597.168 c 1,40,-1
 112.305 450.684 l 1,41,-1
 114.258 448.73 l 1,42,43
 172.363 478.516 172.363 478.516 249.023 478.516 c 0,44,45
 347.168 478.516 347.168 478.516 406.494 429.688 c 128,-1,46
 465.82 380.859 465.82 380.859 465.82 302.246 c 0,47,48
 465.82 238.281 465.82 238.281 434.57 178.955 c 128,-1,49
 403.32 119.629 403.32 119.629 351.318 76.9043 c 128,-1,50
 299.316 34.1797 299.316 34.1797 228.76 8.78906 c 128,-1,51
 158.203 -16.6016 158.203 -16.6016 82.5195 -16.6016 c 0,52,53
 27.3438 -16.6016 27.3438 -16.6016 27.3438 9.76562 c 0,0,1
EndSplineSet
Validated: 19457
EndChar

StartChar: six
Encoding: 22 54 22
Width: 576
VWidth: 0
Flags: W
HStem: -15 32<255.988 355.305> 362 39<242.369 366.806> 670 39<376.544 516.645>
VStem: 45 135<146.834 327.406> 415 121<118.423 309.394>
LayerCount: 3
Fore
SplineSet
45 271 m 0
 45 504 185 709 447 709 c 0
 465 709 519 704 519 683 c 0
 519 674 511 670 478 670 c 0
 288 670 201 530 185 352 c 1
 187 350 l 1
 219 374 272 401 332 401 c 0
 464 401 536 323 536 223 c 0
 536 65 419 -15 287 -15 c 0
 152 -15 45 98 45 271 c 0
180 259 m 0
 180 105 223 17 310 17 c 0
 362 17 415 66 415 187 c 0
 415 290 401 362 292 362 c 0
 248 362 200 329 182 313 c 1
 181 293 180 276 180 259 c 0
EndSplineSet
Validated: 19457
Layer: 2
SplineSet
44.9219 270.996 m 0,0,1
 44.9219 341.309 44.9219 341.309 61.2793 406.006 c 128,-1,2
 77.6367 470.703 77.6367 470.703 111.328 525.879 c 128,-1,3
 145.02 581.055 145.02 581.055 192.139 621.826 c 128,-1,4
 239.258 662.598 239.258 662.598 304.932 685.791 c 128,-1,5
 370.605 708.984 370.605 708.984 447.266 708.984 c 0,6,7
 459.473 708.984 459.473 708.984 474.121 707.275 c 128,-1,8
 488.77 705.566 488.77 705.566 503.662 699.219 c 128,-1,9
 518.555 692.871 518.555 692.871 518.555 683.105 c 0,10,11
 518.555 676.27 518.555 676.27 510.01 673.096 c 128,-1,12
 501.465 669.922 501.465 669.922 477.539 669.922 c 0,13,14
 408.203 669.922 408.203 669.922 354.248 645.508 c 128,-1,15
 300.293 621.094 300.293 621.094 265.625 577.148 c 128,-1,16
 230.957 533.203 230.957 533.203 210.938 477.051 c 128,-1,17
 190.918 420.898 190.918 420.898 184.57 352.051 c 1,18,-1
 187.012 350.098 l 1,19,20
 254.883 401.367 254.883 401.367 332.031 401.367 c 0,21,22
 428.223 401.367 428.223 401.367 482.178 350.83 c 128,-1,23
 536.133 300.293 536.133 300.293 536.133 222.656 c 0,24,25
 536.133 165.039 536.133 165.039 515.869 118.896 c 128,-1,26
 495.605 72.7539 495.605 72.7539 460.938 43.9453 c 128,-1,27
 426.27 15.1367 426.27 15.1367 381.836 0 c 128,-1,28
 337.402 -15.1367 337.402 -15.1367 287.109 -15.1367 c 128,-1,29
 236.816 -15.1367 236.816 -15.1367 192.383 5.37109 c 128,-1,30
 147.949 25.8789 147.949 25.8789 115.234 62.7441 c 128,-1,31
 82.5195 99.6094 82.5195 99.6094 63.7207 153.564 c 128,-1,32
 44.9219 207.52 44.9219 207.52 44.9219 270.996 c 0,0,1
179.688 258.789 m 0,33,34
 179.688 141.602 179.688 141.602 212.158 79.3457 c 128,-1,35
 244.629 17.0898 244.629 17.0898 309.57 17.0898 c 0,36,37
 353.027 17.0898 353.027 17.0898 384.033 59.5703 c 128,-1,38
 415.039 102.051 415.039 102.051 415.039 186.523 c 0,39,40
 415.039 220.703 415.039 220.703 412.842 244.629 c 128,-1,41
 410.645 268.555 410.645 268.555 403.076 292.236 c 128,-1,42
 395.508 315.918 395.508 315.918 382.324 330.322 c 128,-1,43
 369.141 344.727 369.141 344.727 346.436 353.516 c 128,-1,44
 323.73 362.305 323.73 362.305 291.504 362.305 c 0,45,46
 262.695 362.305 262.695 362.305 232.178 346.436 c 128,-1,47
 201.66 330.566 201.66 330.566 182.129 313.477 c 1,48,49
 179.688 280.762 179.688 280.762 179.688 258.789 c 0,33,34
EndSplineSet
Validated: 19457
EndChar

StartChar: seven
Encoding: 23 55 23
Width: 498
VWidth: 0
Flags: W
HStem: 0 29<306.648 361.994> 584 109<71.4497 416>
VStem: 137 134<32.5 176.796>
LayerCount: 3
Fore
SplineSet
16 521 m 0
 16 525 19 539 21 548 c 2
 62 693 l 9
 475 693 l 18
 482 693 484 689 484 684 c 0
 484 618 398 481 367 438 c 0
 297 338 271 254 271 155 c 0
 271 107 279 77 292 59 c 0
 307 38 324 32 343 29 c 0
 354 27 362 24 362 15 c 0
 362 4 355 0 347 0 c 2
 187 0 l 2
 151 0 137 13 137 52 c 0
 137 159 173 248 315 428 c 0
 354 477 392 527 416 581 c 1
 416 584 l 9
 124 584 l 18
 90 584 73 575 60 540 c 0
 55 527 44 508 31 508 c 0
 22 508 16 513 16 521 c 0
EndSplineSet
Validated: 19457
Layer: 2
SplineSet
15.625 521.484 m 0,0,1
 15.625 527.832 15.625 527.832 20.9961 548.34 c 2,2,-1
 61.5234 693.359 l 1,3,-1
 475.098 693.359 l 2,4,5
 484.375 693.359 484.375 693.359 484.375 683.594 c 0,6,7
 484.375 653.32 484.375 653.32 460.205 599.609 c 128,-1,8
 436.035 545.898 436.035 545.898 412.109 506.592 c 128,-1,9
 388.184 467.285 388.184 467.285 367.188 437.988 c 0,10,11
 315.43 364.746 315.43 364.746 293.457 297.852 c 128,-1,12
 271.484 230.957 271.484 230.957 271.484 155.273 c 0,13,14
 271.484 88.8672 271.484 88.8672 292.48 59.082 c 0,15,16
 309.57 34.668 309.57 34.668 343.262 29.2969 c 0,17,18
 361.816 25.8789 361.816 25.8789 361.816 14.6484 c 0,19,20
 361.816 0 361.816 0 347.168 0 c 2,21,-1
 187.012 0 l 2,22,23
 159.668 0 159.668 0 148.193 11.4746 c 128,-1,24
 136.719 22.9492 136.719 22.9492 136.719 51.7578 c 0,25,26
 136.719 134.766 136.719 134.766 174.072 215.576 c 128,-1,27
 211.426 296.387 211.426 296.387 315.43 427.734 c 0,28,29
 388.672 520.02 388.672 520.02 415.527 580.566 c 1,30,-1
 415.527 583.984 l 1,31,-1
 123.535 583.984 l 2,32,33
 97.168 583.984 97.168 583.984 83.0078 574.463 c 128,-1,34
 68.8477 564.941 68.8477 564.941 59.5703 539.551 c 0,35,36
 55.1758 527.832 55.1758 527.832 47.3633 518.066 c 128,-1,37
 39.5508 508.301 39.5508 508.301 30.7617 508.301 c 0,38,39
 15.625 508.301 15.625 508.301 15.625 521.484 c 0,0,1
EndSplineSet
Validated: 19457
EndChar

StartChar: eight
Encoding: 24 56 24
Width: 597
VWidth: 0
Flags: W
HStem: -17 31<210.363 350.909> 675 32<253.906 379.181>
VStem: 59 79<71.9005 210.487> 76 127<502.162 596.925> 420 127<92.1527 204.755> 443 75<486.075 622.652>
LayerCount: 3
Fore
SplineSet
59 138 m 0xe8
 59 229 148 289 238 322 c 1
 238 325 l 1
 160 372 76 429 76 515 c 0
 76 634 191 707 307 707 c 0
 432 707 518 645 518 562 c 0xd4
 518 481 457 431 386 387 c 1
 386 384 l 1
 469 333 547 277 547 177 c 0
 547 38 404 -17 300 -17 c 0
 191 -17 59 22 59 138 c 0xe8
138 146 m 0xe8
 138 65 199 14 275 14 c 0
 350 14 420 51 420 139 c 0
 420 198 382 231 332 263 c 2
 259 310 l 1
 179 274 138 221 138 146 c 0xe8
203 574 m 0xd4
 203 520 229 484 278 453 c 2
 364 398 l 1
 416 431 443 481 443 545 c 0
 443 604 411 675 312 675 c 0
 250 675 203 628 203 574 c 0xd4
EndSplineSet
Validated: 19457
Layer: 2
SplineSet
58.5938 137.695 m 0,0,1
 58.5938 170.41 58.5938 170.41 73.4863 199.951 c 128,-1,2
 88.3789 229.492 88.3789 229.492 114.746 252.197 c 128,-1,3
 141.113 274.902 141.113 274.902 171.631 291.992 c 128,-1,4
 202.148 309.082 202.148 309.082 238.281 322.266 c 1,5,-1
 238.281 324.707 l 1,6,7
 209.961 341.797 209.961 341.797 190.674 354.736 c 128,-1,8
 171.387 367.676 171.387 367.676 147.949 387.207 c 128,-1,9
 124.512 406.738 124.512 406.738 110.352 424.805 c 128,-1,10
 96.1914 442.871 96.1914 442.871 86.1816 466.553 c 128,-1,11
 76.1719 490.234 76.1719 490.234 76.1719 515.137 c 0,12,13
 76.1719 572.266 76.1719 572.266 110.107 616.943 c 128,-1,14
 144.043 661.621 144.043 661.621 196.289 684.326 c 128,-1,15
 248.535 707.031 248.535 707.031 307.129 707.031 c 0,16,17
 399.902 707.031 399.902 707.031 458.74 665.771 c 128,-1,18
 517.578 624.512 517.578 624.512 517.578 561.523 c 0,19,20
 517.578 532.227 517.578 532.227 507.568 506.836 c 128,-1,21
 497.559 481.445 497.559 481.445 477.783 459.961 c 128,-1,22
 458.008 438.477 458.008 438.477 437.012 422.119 c 128,-1,23
 416.016 405.762 416.016 405.762 386.23 387.207 c 1,24,-1
 386.23 384.277 l 1,25,26
 415.527 366.211 415.527 366.211 435.303 352.295 c 128,-1,27
 455.078 338.379 455.078 338.379 478.027 318.115 c 128,-1,28
 500.977 297.852 500.977 297.852 514.648 278.32 c 128,-1,29
 528.32 258.789 528.32 258.789 537.598 232.422 c 128,-1,30
 546.875 206.055 546.875 206.055 546.875 177.246 c 0,31,32
 546.875 127.441 546.875 127.441 523.193 88.623 c 128,-1,33
 499.512 49.8047 499.512 49.8047 461.914 27.832 c 128,-1,34
 424.316 5.85938 424.316 5.85938 382.812 -5.37109 c 128,-1,35
 341.309 -16.6016 341.309 -16.6016 300.293 -16.6016 c 0,36,37
 265.625 -16.6016 265.625 -16.6016 232.91 -11.7188 c 128,-1,38
 200.195 -6.83594 200.195 -6.83594 167.969 4.63867 c 128,-1,39
 135.742 16.1133 135.742 16.1133 111.816 33.2031 c 128,-1,40
 87.8906 50.293 87.8906 50.293 73.2422 77.3926 c 128,-1,41
 58.5938 104.492 58.5938 104.492 58.5938 137.695 c 0,0,1
137.695 145.996 m 0,42,43
 137.695 86.9141 137.695 86.9141 177.246 50.5371 c 128,-1,44
 216.797 14.1602 216.797 14.1602 275.391 14.1602 c 0,45,46
 336.426 14.1602 336.426 14.1602 378.174 45.6543 c 128,-1,47
 419.922 77.1484 419.922 77.1484 419.922 139.16 c 0,48,49
 419.922 179.688 419.922 179.688 397.461 207.764 c 128,-1,50
 375 235.84 375 235.84 332.031 263.184 c 2,51,-1
 259.277 309.57 l 1,52,53
 137.695 254.395 137.695 254.395 137.695 145.996 c 0,42,43
203.125 574.219 m 0,54,55
 203.125 534.668 203.125 534.668 221.68 506.104 c 128,-1,56
 240.234 477.539 240.234 477.539 278.32 453.125 c 2,57,-1
 363.77 397.949 l 1,58,59
 442.871 448.242 442.871 448.242 442.871 544.922 c 0,60,61
 442.871 568.359 442.871 568.359 436.035 590.088 c 128,-1,62
 429.199 611.816 429.199 611.816 414.551 631.592 c 128,-1,63
 399.902 651.367 399.902 651.367 373.291 663.086 c 128,-1,64
 346.68 674.805 346.68 674.805 311.523 674.805 c 0,65,66
 266.113 674.805 266.113 674.805 234.619 645.02 c 128,-1,67
 203.125 615.234 203.125 615.234 203.125 574.219 c 0,54,55
EndSplineSet
Validated: 19457
EndChar

StartChar: nine
Encoding: 25 57 25
Width: 576
VWidth: 0
Flags: W
HStem: -15 39<60.3125 199.456> 292 40<208.204 333.973> 677 32<221.079 320.443>
VStem: 40 121<384.49 575.577> 396 135<364.763 547.166>
LayerCount: 3
Fore
SplineSet
40 471 m 0
 40 629 157 709 289 709 c 0
 424 709 531 596 531 423 c 0
 531 190 391 -15 129 -15 c 0
 111 -15 58 -10 58 11 c 0
 58 20 66 24 99 24 c 0
 289 24 376 164 392 342 c 1
 389 344 l 1
 357 320 304 292 244 292 c 0
 112 292 40 371 40 471 c 0
161 507 m 0
 161 404 176 332 285 332 c 0
 329 332 376 364 394 380 c 1
 395 400 396 418 396 435 c 0
 396 589 354 677 267 677 c 0
 215 677 161 628 161 507 c 0
EndSplineSet
Validated: 19457
Layer: 2
SplineSet
40.0391 471.191 m 0,0,1
 40.0391 528.809 40.0391 528.809 60.3027 574.951 c 128,-1,2
 80.5664 621.094 80.5664 621.094 115.234 649.902 c 128,-1,3
 149.902 678.711 149.902 678.711 194.336 693.848 c 128,-1,4
 238.77 708.984 238.77 708.984 289.062 708.984 c 128,-1,5
 339.355 708.984 339.355 708.984 383.789 688.477 c 128,-1,6
 428.223 667.969 428.223 667.969 460.938 631.104 c 128,-1,7
 493.652 594.238 493.652 594.238 512.451 540.283 c 128,-1,8
 531.25 486.328 531.25 486.328 531.25 422.852 c 0,9,10
 531.25 352.539 531.25 352.539 514.893 287.842 c 128,-1,11
 498.535 223.145 498.535 223.145 464.844 167.969 c 128,-1,12
 431.152 112.793 431.152 112.793 384.033 72.0215 c 128,-1,13
 336.914 31.25 336.914 31.25 271.24 8.05664 c 128,-1,14
 205.566 -15.1367 205.566 -15.1367 128.906 -15.1367 c 0,15,16
 116.699 -15.1367 116.699 -15.1367 102.051 -13.4277 c 128,-1,17
 87.4023 -11.7188 87.4023 -11.7188 72.5098 -5.37109 c 128,-1,18
 57.6172 0.976562 57.6172 0.976562 57.6172 10.7422 c 0,19,20
 57.6172 17.5781 57.6172 17.5781 66.1621 20.752 c 128,-1,21
 74.707 23.9258 74.707 23.9258 98.6328 23.9258 c 0,22,23
 167.969 23.9258 167.969 23.9258 221.924 48.3398 c 128,-1,24
 275.879 72.7539 275.879 72.7539 310.547 116.699 c 128,-1,25
 345.215 160.645 345.215 160.645 365.234 216.797 c 128,-1,26
 385.254 272.949 385.254 272.949 391.602 341.797 c 1,27,-1
 389.16 343.75 l 1,28,29
 321.289 292.48 321.289 292.48 244.141 292.48 c 0,30,31
 147.949 292.48 147.949 292.48 93.9941 343.018 c 128,-1,32
 40.0391 393.555 40.0391 393.555 40.0391 471.191 c 0,0,1
161.133 507.324 m 0,33,34
 161.133 473.145 161.133 473.145 163.33 449.219 c 128,-1,35
 165.527 425.293 165.527 425.293 173.096 401.611 c 128,-1,36
 180.664 377.93 180.664 377.93 193.848 363.525 c 128,-1,37
 207.031 349.121 207.031 349.121 229.736 340.332 c 128,-1,38
 252.441 331.543 252.441 331.543 284.668 331.543 c 0,39,40
 313.477 331.543 313.477 331.543 343.994 347.412 c 128,-1,41
 374.512 363.281 374.512 363.281 394.043 380.371 c 1,42,43
 396.484 413.086 396.484 413.086 396.484 435.059 c 0,44,45
 396.484 552.246 396.484 552.246 364.014 614.502 c 128,-1,46
 331.543 676.758 331.543 676.758 266.602 676.758 c 0,47,48
 223.145 676.758 223.145 676.758 192.139 634.277 c 128,-1,49
 161.133 591.797 161.133 591.797 161.133 507.324 c 0,33,34
EndSplineSet
Validated: 19457
EndChar

StartChar: less
Encoding: 28 60 28
Width: 640
VWidth: 1014
Flags: W
HStem: -6 21G<495 500>
DStem2: 105 276 167 242 0.876655 0.481119<37.9946 445.48> 167 240 105 207 0.875679 -0.482894<0 407.6>
LayerCount: 3
Fore
SplineSet
74 241 m 0
 74 257 89 267 105 276 c 2
 484 484 l 2
 488 486 493 488 497 488 c 0
 503 488 507 483 521 464 c 0
 524 460 528 452 528 448 c 0
 528 443 522 438 516 435 c 2
 167 242 l 1
 167 240 l 1
 516 48 l 2
 522 45 528 39 528 34 c 0
 528 30 524 22 521 18 c 0
 507 -1 503 -6 497 -6 c 0
 493 -6 488 -4 484 -2 c 2
 105 207 l 2
 89 216 74 225 74 241 c 0
EndSplineSet
Validated: 19457
Layer: 2
SplineSet
74.2188 241.211 m 128,-1,1
 74.2188 258.789 74.2188 258.789 105.469 275.879 c 2,2,-1
 484.375 484.375 l 2,3,4
 491.211 488.281 491.211 488.281 497.07 488.281 c 0,5,6
 501.465 488.281 501.465 488.281 505.615 483.887 c 128,-1,7
 509.766 479.492 509.766 479.492 520.508 464.355 c 0,8,9
 528.32 452.637 528.32 452.637 528.32 448.242 c 0,10,11
 528.32 440.918 528.32 440.918 516.113 434.57 c 2,12,-1
 166.504 242.188 l 1,13,-1
 166.504 240.234 l 1,14,-1
 516.113 47.8516 l 2,15,16
 528.32 41.5039 528.32 41.5039 528.32 34.1797 c 0,17,18
 528.32 29.7852 528.32 29.7852 520.508 18.0664 c 0,19,20
 509.766 2.92969 509.766 2.92969 505.615 -1.46484 c 128,-1,21
 501.465 -5.85938 501.465 -5.85938 497.07 -5.85938 c 0,22,23
 491.211 -5.85938 491.211 -5.85938 484.375 -1.95312 c 2,24,-1
 105.469 206.543 l 2,25,0
 74.2188 223.633 74.2188 223.633 74.2188 241.211 c 128,-1,1
EndSplineSet
Validated: 19457
EndChar

StartChar: equal
Encoding: 29 61 29
Width: 640
VWidth: 1014
Flags: W
HStem: 128 60<83.1873 558.352> 296 59<82.6476 558.352>
LayerCount: 3
Fore
SplineSet
74 139 m 0
 74 145 76 151 82 164 c 0
 89 180 93 188 100 188 c 2
 550 188 l 2
 557 188 566 182 566 176 c 0
 566 170 565 164 559 151 c 0
 552 135 548 128 541 128 c 2
 90 128 l 2
 83 128 74 133 74 139 c 0
74 307 m 0
 74 313 76 319 82 332 c 0
 89 348 93 355 100 355 c 2
 550 355 l 2
 557 355 566 350 566 344 c 0
 566 338 565 332 559 319 c 0
 552 303 548 296 541 296 c 2
 90 296 l 2
 83 296 74 301 74 307 c 0
EndSplineSet
Validated: 19457
Layer: 2
SplineSet
74.2188 139.16 m 0,0,1
 74.2188 146.484 74.2188 146.484 82.0312 164.062 c 0,2,3
 87.8906 177.246 87.8906 177.246 91.3086 182.373 c 128,-1,4
 94.7266 187.5 94.7266 187.5 99.6094 187.5 c 2,5,-1
 550.293 187.5 l 2,6,7
 556.152 187.5 556.152 187.5 561.279 184.082 c 128,-1,8
 566.406 180.664 566.406 180.664 566.406 176.27 c 0,9,10
 566.406 168.945 566.406 168.945 558.594 151.367 c 0,11,12
 552.734 138.184 552.734 138.184 549.316 133.057 c 128,-1,13
 545.898 127.93 545.898 127.93 541.016 127.93 c 2,14,-1
 90.332 127.93 l 2,15,16
 84.4727 127.93 84.4727 127.93 79.3457 131.348 c 128,-1,17
 74.2188 134.766 74.2188 134.766 74.2188 139.16 c 0,0,1
74.2188 307.129 m 0,18,19
 74.2188 314.453 74.2188 314.453 82.0312 332.031 c 0,20,21
 87.8906 345.215 87.8906 345.215 91.3086 350.342 c 128,-1,22
 94.7266 355.469 94.7266 355.469 99.6094 355.469 c 2,23,-1
 550.293 355.469 l 2,24,25
 556.152 355.469 556.152 355.469 561.279 352.051 c 128,-1,26
 566.406 348.633 566.406 348.633 566.406 344.238 c 0,27,28
 566.406 336.914 566.406 336.914 558.594 319.336 c 0,29,30
 552.734 306.152 552.734 306.152 549.316 301.025 c 128,-1,31
 545.898 295.898 545.898 295.898 541.016 295.898 c 2,32,-1
 90.332 295.898 l 2,33,34
 84.4727 295.898 84.4727 295.898 79.3457 299.316 c 128,-1,35
 74.2188 302.734 74.2188 302.734 74.2188 307.129 c 0,18,19
EndSplineSet
Validated: 19457
EndChar

StartChar: greater
Encoding: 30 62 30
Width: 640
VWidth: 1014
Flags: W
HStem: -6 21G<141 146>
DStem2: 535 276 125 435 0.876655 -0.481119<-444.604 -37.1179> 125 48 535 207 0.875679 0.482894<-9.27349 398.328>
LayerCount: 3
Fore
SplineSet
112 34 m 0
 112 39 119 45 125 48 c 2
 474 240 l 1
 474 242 l 1
 125 435 l 2
 119 438 112 443 112 448 c 0
 112 452 117 460 120 464 c 0
 134 483 138 488 144 488 c 0
 148 488 152 486 156 484 c 2
 535 276 l 2
 551 267 566 257 566 241 c 0
 566 225 551 216 535 207 c 2
 156 -2 l 2
 152 -4 148 -6 144 -6 c 0
 138 -6 134 -1 120 18 c 0
 117 22 112 30 112 34 c 0
EndSplineSet
Validated: 19457
Layer: 2
SplineSet
112.305 34.1797 m 0,0,1
 112.305 41.5039 112.305 41.5039 124.512 47.8516 c 2,2,-1
 474.121 240.234 l 1,3,-1
 474.121 242.188 l 1,4,-1
 124.512 434.57 l 2,5,6
 112.305 440.918 112.305 440.918 112.305 448.242 c 0,7,8
 112.305 452.637 112.305 452.637 120.117 464.355 c 0,9,10
 130.859 479.492 130.859 479.492 135.01 483.887 c 128,-1,11
 139.16 488.281 139.16 488.281 143.555 488.281 c 0,12,13
 149.414 488.281 149.414 488.281 156.25 484.375 c 2,14,-1
 535.156 275.879 l 2,15,16
 566.406 258.789 566.406 258.789 566.406 241.211 c 128,-1,17
 566.406 223.633 566.406 223.633 535.156 206.543 c 2,18,-1
 156.25 -1.95312 l 2,19,20
 149.414 -5.85938 149.414 -5.85938 143.555 -5.85938 c 0,21,22
 139.16 -5.85938 139.16 -5.85938 135.01 -1.46484 c 128,-1,23
 130.859 2.92969 130.859 2.92969 120.117 18.0664 c 0,24,25
 112.305 29.7852 112.305 29.7852 112.305 34.1797 c 0,0,1
EndSplineSet
Validated: 19457
EndChar

StartChar: question
Encoding: 31 63 31
Width: 437
VWidth: 1014
Flags: W
HStem: -18 157<138.586 243.868> 608 99<166.812 305.221>
VStem: 113 157<8.13242 113.414> 129 52<215.062 287.535> 355 41<485.117 581.076>
LayerCount: 3
Fore
SplineSet
37 519 m 0xd8
 37 537 56 629 67 641 c 0
 92 667 147 707 222 707 c 0
 344 707 396 592 396 522 c 0
 396 466 380 410 362 387 c 0
 341 359 289 334 243 312 c 0
 191 287 181 267 181 253 c 0
 181 244 185 236 190 230 c 0
 194 225 200 218 200 210 c 0
 200 201 194 193 180 193 c 0
 152 193 129 254 129 283 c 0
 129 370 198 403 257 431 c 0
 311 457 355 483 355 544 c 0
 355 578 314 608 245 608 c 0
 194 608 130 569 99 541 c 0
 80 523 63 508 54 508 c 0
 48 508 37 514 37 519 c 0xd8
113 61 m 0xe8
 113 104 148 139 191 139 c 0
 234 139 270 104 270 61 c 0
 270 18 234 -18 191 -18 c 0
 148 -18 113 18 113 61 c 0xe8
EndSplineSet
Validated: 19457
Layer: 2
SplineSet
37.1094 519.043 m 0,0,1
 37.1094 534.668 37.1094 534.668 48.3398 583.984 c 128,-1,2
 59.5703 633.301 59.5703 633.301 67.3828 641.113 c 0,3,4
 91.3086 666.504 91.3086 666.504 131.348 686.768 c 128,-1,5
 171.387 707.031 171.387 707.031 221.68 707.031 c 0,6,7
 256.348 707.031 256.348 707.031 286.133 694.58 c 128,-1,8
 315.918 682.129 315.918 682.129 335.693 662.354 c 128,-1,9
 355.469 642.578 355.469 642.578 369.629 617.676 c 128,-1,10
 383.789 592.773 383.789 592.773 390.137 568.359 c 128,-1,11
 396.484 543.945 396.484 543.945 396.484 521.973 c 0,12,13
 396.484 481.934 396.484 481.934 386.23 443.604 c 128,-1,14
 375.977 405.273 375.977 405.273 361.816 386.719 c 0,15,16
 352.051 373.535 352.051 373.535 330.078 358.887 c 128,-1,17
 308.105 344.238 308.105 344.238 291.504 335.693 c 128,-1,18
 274.902 327.148 274.902 327.148 243.164 312.012 c 0,19,20
 181.152 282.227 181.152 282.227 181.152 253.418 c 0,21,22
 181.152 241.699 181.152 241.699 189.941 230.469 c 0,23,24
 199.707 218.262 199.707 218.262 199.707 209.961 c 0,25,26
 199.707 203.125 199.707 203.125 194.58 198.242 c 128,-1,27
 189.453 193.359 189.453 193.359 179.688 193.359 c 0,28,29
 160.156 193.359 160.156 193.359 144.775 225.342 c 128,-1,30
 129.395 257.324 129.395 257.324 129.395 282.715 c 0,31,32
 129.395 303.711 129.395 303.711 134.277 321.777 c 128,-1,33
 139.16 339.844 139.16 339.844 149.902 354.248 c 128,-1,34
 160.645 368.652 160.645 368.652 170.654 378.906 c 128,-1,35
 180.664 389.16 180.664 389.16 198.486 399.902 c 128,-1,36
 216.309 410.645 216.309 410.645 227.051 416.26 c 128,-1,37
 237.793 421.875 237.793 421.875 257.324 431.152 c 0,38,39
 280.762 442.383 280.762 442.383 295.898 451.66 c 128,-1,40
 311.035 460.938 311.035 460.938 326.172 474.365 c 128,-1,41
 341.309 487.793 341.309 487.793 348.389 505.127 c 128,-1,42
 355.469 522.461 355.469 522.461 355.469 544.434 c 0,43,44
 355.469 570.801 355.469 570.801 324.951 589.355 c 128,-1,45
 294.434 607.91 294.434 607.91 244.629 607.91 c 0,46,47
 209.473 607.91 209.473 607.91 167.48 586.914 c 128,-1,48
 125.488 565.918 125.488 565.918 98.6328 541.016 c 0,49,50
 62.9883 508.301 62.9883 508.301 53.7109 508.301 c 0,51,52
 48.8281 508.301 48.8281 508.301 42.9688 511.963 c 128,-1,53
 37.1094 515.625 37.1094 515.625 37.1094 519.043 c 0,0,1
113.281 60.5469 m 128,-1,55
 113.281 92.7734 113.281 92.7734 136.23 115.723 c 128,-1,56
 159.18 138.672 159.18 138.672 191.406 138.672 c 128,-1,57
 223.633 138.672 223.633 138.672 246.582 115.723 c 128,-1,58
 269.531 92.7734 269.531 92.7734 269.531 60.5469 c 128,-1,59
 269.531 28.3203 269.531 28.3203 246.582 5.37109 c 128,-1,60
 223.633 -17.5781 223.633 -17.5781 191.406 -17.5781 c 128,-1,61
 159.18 -17.5781 159.18 -17.5781 136.23 5.37109 c 128,-1,54
 113.281 28.3203 113.281 28.3203 113.281 60.5469 c 128,-1,55
EndSplineSet
Validated: 19457
EndChar

StartChar: at
Encoding: 32 64 32
Width: 978
VWidth: 0
Flags: W
HStem: -160 47<344.267 626.301> 25 60<312.5 420.554> 25 39<613.121 713.771> 477 69<538.036 594> 661 47<406.772 671.71>
VStem: 55 74<111.471 379.967> 238 109<115.737 298.185> 850 74<250.542 481.811>
DStem2: 513 182 612 162 0.268336 0.963325<-35.8144 305.916>
LayerCount: 3
Fore
SplineSet
55 250 m 0xbf
 55 494 268 708 541 708 c 0
 799 708 924 535 924 365 c 0
 924 201 782 25 630 25 c 0xbf
 573 25 525 59 512 120 c 9
 504 120 l 17
 470 71 407 25 337 25 c 0xdf
 288 25 238 101 238 205 c 0
 238 386 463 546 672 546 c 0
 680 546 714 541 714 536 c 0
 714 531 712 523 712 521 c 2
 612 162 l 10
 608 145 604 129 604 119 c 0
 604 82 621 64 649 64 c 0
 774 64 850 229 850 357 c 0
 850 522 755 661 539 661 c 0
 286 661 129 466 129 249 c 0
 129 35 250 -113 482 -113 c 0
 583 -113 709 -80 783 -5 c 0
 796 8 810 22 828 22 c 0
 842 22 849 9 849 -2 c 0
 849 -57 668 -160 480 -160 c 0
 216 -160 55 8 55 250 c 0xbf
347 245 m 0
 347 194 357 85 404 85 c 0xdf
 436 85 498 127 513 182 c 26
 594 477 l 17
 457 477 347 429 347 245 c 0
EndSplineSet
Validated: 19457
Layer: 2
SplineSet
54.6875 249.512 m 128,-1,1
 54.6875 339.844 54.6875 339.844 92.5293 423.828 c 128,-1,2
 130.371 507.812 130.371 507.812 194.58 570.312 c 128,-1,3
 258.789 632.812 258.789 632.812 349.609 670.41 c 128,-1,4
 440.43 708.008 440.43 708.008 540.527 708.008 c 0,5,6
 615.723 708.008 615.723 708.008 679.199 688.721 c 128,-1,7
 742.676 669.434 742.676 669.434 787.109 636.23 c 128,-1,8
 831.543 603.027 831.543 603.027 862.793 559.082 c 128,-1,9
 894.043 515.137 894.043 515.137 908.936 465.82 c 128,-1,10
 923.828 416.504 923.828 416.504 923.828 364.746 c 0,11,12
 923.828 304.688 923.828 304.688 899.17 242.92 c 128,-1,13
 874.512 181.152 874.512 181.152 834.473 133.545 c 128,-1,14
 794.434 85.9375 794.434 85.9375 740.234 55.6641 c 128,-1,15
 686.035 25.3906 686.035 25.3906 630.371 25.3906 c 0,16,17
 586.426 25.3906 586.426 25.3906 553.955 50.293 c 128,-1,18
 521.484 75.1953 521.484 75.1953 512.207 119.629 c 1,19,-1
 503.906 119.629 l 1,20,21
 476.562 80.0781 476.562 80.0781 431.641 52.7344 c 128,-1,22
 386.719 25.3906 386.719 25.3906 336.914 25.3906 c 0,23,24
 298.828 25.3906 298.828 25.3906 268.311 77.6367 c 128,-1,25
 237.793 129.883 237.793 129.883 237.793 205.078 c 0,26,27
 237.793 270.996 237.793 270.996 276.611 334.473 c 128,-1,28
 315.43 397.949 315.43 397.949 376.709 443.848 c 128,-1,29
 437.988 489.746 437.988 489.746 516.602 517.822 c 128,-1,30
 595.215 545.898 595.215 545.898 672.363 545.898 c 0,31,32
 680.664 545.898 680.664 545.898 697.51 542.725 c 128,-1,33
 714.355 539.551 714.355 539.551 714.355 536.133 c 0,34,35
 714.355 531.25 714.355 531.25 711.914 521.484 c 2,36,-1
 611.816 162.109 l 2,37,38
 604.492 134.277 604.492 134.277 604.492 119.141 c 0,39,40
 604.492 64.4531 604.492 64.4531 649.414 64.4531 c 128,-1,41
 694.336 64.4531 694.336 64.4531 733.154 92.041 c 128,-1,42
 771.973 119.629 771.973 119.629 796.875 162.842 c 128,-1,43
 821.777 206.055 821.777 206.055 835.693 257.08 c 128,-1,44
 849.609 308.105 849.609 308.105 849.609 356.934 c 0,45,46
 849.609 420.41 849.609 420.41 831.055 474.365 c 128,-1,47
 812.5 528.32 812.5 528.32 775.635 570.557 c 128,-1,48
 738.77 612.793 738.77 612.793 677.979 636.963 c 128,-1,49
 617.188 661.133 617.188 661.133 538.574 661.133 c 0,50,51
 464.355 661.133 464.355 661.133 398.926 639.16 c 128,-1,52
 333.496 617.188 333.496 617.188 284.668 578.369 c 128,-1,53
 235.84 539.551 235.84 539.551 200.439 487.793 c 128,-1,54
 165.039 436.035 165.039 436.035 146.973 375 c 128,-1,55
 128.906 313.965 128.906 313.965 128.906 249.023 c 0,56,57
 128.906 140.625 128.906 140.625 168.213 59.8145 c 128,-1,58
 207.52 -20.9961 207.52 -20.9961 287.842 -67.1387 c 128,-1,59
 368.164 -113.281 368.164 -113.281 481.934 -113.281 c 0,60,61
 563.965 -113.281 563.965 -113.281 647.217 -85.6934 c 128,-1,62
 730.469 -58.1055 730.469 -58.1055 783.203 -4.88281 c 0,63,64
 791.992 3.90625 791.992 3.90625 797.119 8.30078 c 128,-1,65
 802.246 12.6953 802.246 12.6953 811.035 17.334 c 128,-1,66
 819.824 21.9727 819.824 21.9727 828.125 21.9727 c 0,67,68
 837.891 21.9727 837.891 21.9727 843.262 14.6484 c 128,-1,69
 848.633 7.32422 848.633 7.32422 848.633 -1.95312 c 0,70,71
 848.633 -22.4609 848.633 -22.4609 816.895 -49.8047 c 128,-1,72
 785.156 -77.1484 785.156 -77.1484 735.352 -101.562 c 128,-1,73
 685.547 -125.977 685.547 -125.977 616.455 -143.066 c 128,-1,74
 547.363 -160.156 547.363 -160.156 480.469 -160.156 c 0,75,76
 382.812 -160.156 382.812 -160.156 302.734 -130.127 c 128,-1,77
 222.656 -100.098 222.656 -100.098 168.213 -46.1426 c 128,-1,78
 113.77 7.8125 113.77 7.8125 84.2285 83.4961 c 128,-1,0
 54.6875 159.18 54.6875 159.18 54.6875 249.512 c 128,-1,1
347.168 244.629 m 0,79,80
 347.168 222.168 347.168 222.168 349.609 197.754 c 128,-1,81
 352.051 173.34 352.051 173.34 357.91 146.484 c 128,-1,82
 363.77 119.629 363.77 119.629 375.732 102.295 c 128,-1,83
 387.695 84.9609 387.695 84.9609 404.297 84.9609 c 0,84,85
 431.152 84.9609 431.152 84.9609 466.797 114.014 c 128,-1,86
 502.441 143.066 502.441 143.066 513.184 181.641 c 2,87,-1
 593.75 476.562 l 1,88,89
 550.293 476.562 550.293 476.562 515.137 470.215 c 128,-1,90
 479.98 463.867 479.98 463.867 447.998 447.754 c 128,-1,91
 416.016 431.641 416.016 431.641 394.287 405.762 c 128,-1,92
 372.559 379.883 372.559 379.883 359.863 339.111 c 128,-1,93
 347.168 298.34 347.168 298.34 347.168 244.629 c 0,79,80
EndSplineSet
Validated: 19457
EndChar

StartChar: A
Encoding: 33 65 33
Width: 672
VWidth: 0
Flags: W
HStem: 0 29<6 50.5281 122.88 166 414 468 614 661> 199 30<166 405> 655 29<229.213 265.092>
DStem2: 87 100 120 96 0.321179 0.947019<-23.2106 115.916 147.539 530.811> 410 670 289 592 0.303265 -0.952906<37.6316 418.715 450.335 628.402>
AnchorPoint: "Bottom" 289 0 basechar 0
AnchorPoint: "TopCap" 336 762 basechar 0
LayerCount: 3
Fore
SplineSet
6 0 m 1
 6 29 l 1
 53 29 75 63 87 100 c 2
 262 616 l 10
 264 624 266 629 266 637 c 0
 266 647 260 653 250 655 c 0
 241 657 229 663 229 671 c 0
 229 679 240 684 246 684 c 0
 298 684 342 690 361 704 c 0
 367 708 380 711 385 711 c 0
 396 711 402 695 410 670 c 2
 614 29 l 1
 661 29 l 1
 661 0 l 1
 414 0 l 1
 414 29 l 1
 468 29 l 1
 415 199 l 1
 156 199 l 1
 120 96 l 2
 117 87 114 73 114 66 c 0
 114 49 126 29 166 29 c 1
 166 0 l 1
 6 0 l 1
166 229 m 1
 405 229 l 1
 289 592 l 1
 166 229 l 1
EndSplineSet
Validated: 19457
Layer: 2
SplineSet
5.85938 0 m 1,0,-1
 5.85938 29.2969 l 1,1,2
 63.9648 29.2969 63.9648 29.2969 87.4023 100.098 c 1,3,-1
 262.207 615.723 l 2,4,5
 266.113 628.418 266.113 628.418 266.113 636.719 c 0,6,7
 266.113 650.391 266.113 650.391 249.512 654.785 c 0,8,9
 229.492 660.156 229.492 660.156 229.492 670.898 c 0,10,11
 229.492 676.758 229.492 676.758 235.107 680.176 c 128,-1,12
 240.723 683.594 240.723 683.594 246.094 683.594 c 0,13,14
 335.449 684.57 335.449 684.57 361.328 703.613 c 0,15,16
 371.094 710.938 371.094 710.938 384.766 710.938 c 0,17,18
 392.578 710.938 392.578 710.938 397.461 701.904 c 128,-1,19
 402.344 692.871 402.344 692.871 409.668 670.41 c 2,20,-1
 614.258 29.2969 l 1,21,-1
 661.133 29.2969 l 1,22,-1
 661.133 0 l 1,23,-1
 413.574 0 l 1,24,-1
 413.574 29.2969 l 1,25,-1
 468.262 29.2969 l 1,26,-1
 414.551 199.219 l 1,27,-1
 155.762 199.219 l 1,28,-1
 120.117 95.7031 l 2,29,30
 114.258 79.5898 114.258 79.5898 114.258 66.4062 c 0,31,32
 114.258 51.2695 114.258 51.2695 126.465 40.2832 c 128,-1,33
 138.672 29.2969 138.672 29.2969 165.527 29.2969 c 1,34,-1
 165.527 0 l 1,35,-1
 5.85938 0 l 1,0,-1
165.527 228.516 m 1,36,-1
 405.273 228.516 l 1,37,-1
 289.062 591.797 l 1,38,-1
 165.527 228.516 l 1,36,-1
EndSplineSet
Validated: 19457
EndChar

StartChar: B
Encoding: 34 66 34
Width: 666
VWidth: 0
Flags: W
HStem: 0 29<47 98 235 417.306> 365 30<235 392.021> 664 29<47 98 235 392.359>
VStem: 98 137<29 365 395 664> 442 134<459.787 610.589> 484 151<104.982 272.006>
AnchorPoint: "Bottom" 289 0 basechar 0
LayerCount: 3
Fore
SplineSet
47 0 m 1xf4
 47 29 l 1
 98 29 l 1
 98 664 l 1
 47 664 l 1
 47 693 l 1
 354 693 l 2
 473 693 576 644 576 537 c 0xf8
 576 449 512 396 406 390 c 1
 406 383 l 1
 520 368 635 313 635 193 c 0
 635 47 504 0 397 0 c 2
 47 0 l 1xf4
235 29 m 1
 351 29 l 2
 439 29 484 75 484 197 c 0xf4
 484 297 442 364 353 365 c 2
 235 365 l 1
 235 29 l 1
235 395 m 1
 331 395 l 2
 428 395 442 465 442 537 c 0xf8
 442 614 413 664 330 664 c 2
 235 664 l 1
 235 395 l 1
EndSplineSet
Validated: 19457
Layer: 2
SplineSet
46.875 0 m 1,0,-1
 46.875 29.2969 l 1,1,-1
 97.6562 29.2969 l 1,2,-1
 97.6562 664.062 l 1,3,-1
 46.875 664.062 l 1,4,-1
 46.875 693.359 l 1,5,-1
 354.492 693.359 l 2,6,7
 416.016 693.359 416.016 693.359 464.844 677.002 c 128,-1,8
 513.672 660.645 513.672 660.645 544.678 624.512 c 128,-1,9
 575.684 588.379 575.684 588.379 575.684 536.621 c 0,10,11
 575.684 470.703 575.684 470.703 531.006 432.373 c 128,-1,12
 486.328 394.043 486.328 394.043 405.762 389.648 c 1,13,-1
 405.762 382.812 l 1,14,15
 441.406 378.418 441.406 378.418 473.633 369.141 c 128,-1,16
 505.859 359.863 505.859 359.863 535.645 343.994 c 128,-1,17
 565.43 328.125 565.43 328.125 587.158 307.373 c 128,-1,18
 608.887 286.621 608.887 286.621 621.826 257.08 c 128,-1,19
 634.766 227.539 634.766 227.539 634.766 192.871 c 0,20,21
 634.766 150.391 634.766 150.391 620.117 116.699 c 128,-1,22
 605.469 83.0078 605.469 83.0078 582.031 61.5234 c 128,-1,23
 558.594 40.0391 558.594 40.0391 527.1 25.8789 c 128,-1,24
 495.605 11.7188 495.605 11.7188 463.379 5.85938 c 128,-1,25
 431.152 0 431.152 0 397.461 0 c 2,26,-1
 46.875 0 l 1,0,-1
235.352 29.2969 m 1,27,-1
 350.586 29.2969 l 2,28,29
 418.457 29.2969 418.457 29.2969 451.416 68.6035 c 128,-1,30
 484.375 107.91 484.375 107.91 484.375 197.266 c 0,31,32
 484.375 274.414 484.375 274.414 450.928 319.58 c 128,-1,33
 417.48 364.746 417.48 364.746 352.539 365.234 c 1,34,-1
 235.352 365.234 l 1,35,-1
 235.352 29.2969 l 1,27,-1
235.352 394.531 m 1,36,-1
 331.055 394.531 l 2,37,38
 358.887 394.531 358.887 394.531 379.639 402.832 c 128,-1,39
 400.391 411.133 400.391 411.133 412.109 423.828 c 128,-1,40
 423.828 436.523 423.828 436.523 430.664 456.055 c 128,-1,41
 437.5 475.586 437.5 475.586 439.697 494.385 c 128,-1,42
 441.895 513.184 441.895 513.184 441.895 537.109 c 0,43,44
 441.895 598.145 441.895 598.145 415.527 631.104 c 128,-1,45
 389.16 664.062 389.16 664.062 329.59 664.062 c 2,46,-1
 235.352 664.062 l 1,47,-1
 235.352 394.531 l 1,36,-1
EndSplineSet
Validated: 19457
EndChar

StartChar: C
Encoding: 35 67 35
Width: 731
VWidth: 0
Flags: W
HStem: -17 30<339.173 475.221> 682 29<343.339 478.272>
VStem: 55 156<213.775 480.331>
AnchorPoint: "Bottom" 405 0 basechar 0
AnchorPoint: "TopCap" 405 762 basechar 0
LayerCount: 3
Fore
SplineSet
55 347 m 0
 55 588 221 711 405 711 c 0
 484 711 550 693 604 664 c 0
 647 641 658 630 658 607 c 0
 658 603 657 588 656 582 c 2
 648 487 l 2
 647 478 644 472 637 472 c 0
 622 472 614 490 605 511 c 0
 576 583 534 682 405 682 c 0
 252 682 211 491 211 347 c 0
 211 203 252 13 405 13 c 0
 512 13 582 103 609 170 c 0
 618 191 627 215 642 215 c 0
 649 215 653 209 654 200 c 2
 660 98 l 2
 660 92 661 76 661 72 c 0
 661 51 650 43 607 21 c 0
 555 -5 484 -17 405 -17 c 0
 221 -17 55 106 55 347 c 0
EndSplineSet
Validated: 19457
Layer: 2
SplineSet
54.6875 347.168 m 128,-1,1
 54.6875 434.57 54.6875 434.57 83.4961 505.127 c 128,-1,2
 112.305 575.684 112.305 575.684 161.377 619.873 c 128,-1,3
 210.449 664.062 210.449 664.062 272.949 687.5 c 128,-1,4
 335.449 710.938 335.449 710.938 405.273 710.938 c 0,5,6
 517.09 710.938 517.09 710.938 604.492 664.062 c 0,7,8
 636.719 646.484 636.719 646.484 647.461 635.498 c 128,-1,9
 658.203 624.512 658.203 624.512 658.203 607.422 c 0,10,11
 658.203 594.238 658.203 594.238 656.25 581.543 c 1,12,-1
 648.438 486.816 l 2,13,14
 646.973 472.168 646.973 472.168 636.719 472.168 c 0,15,16
 626.953 472.168 626.953 472.168 619.873 481.934 c 128,-1,17
 612.793 491.699 612.793 491.699 604.98 511.23 c 0,18,19
 596.68 531.738 596.68 531.738 591.309 543.701 c 128,-1,20
 585.938 555.664 585.938 555.664 575.195 575.928 c 128,-1,21
 564.453 596.191 564.453 596.191 554.688 608.887 c 128,-1,22
 544.922 621.582 544.922 621.582 529.053 636.963 c 128,-1,23
 513.184 652.344 513.184 652.344 496.094 660.889 c 128,-1,24
 479.004 669.434 479.004 669.434 455.566 675.537 c 128,-1,25
 432.129 681.641 432.129 681.641 405.273 681.641 c 0,26,27
 361.328 681.641 361.328 681.641 326.66 660.4 c 128,-1,28
 291.992 639.16 291.992 639.16 270.752 605.469 c 128,-1,29
 249.512 571.777 249.512 571.777 235.596 526.611 c 128,-1,30
 221.68 481.445 221.68 481.445 216.309 437.5 c 128,-1,31
 210.938 393.555 210.938 393.555 210.938 347.168 c 128,-1,32
 210.938 300.781 210.938 300.781 216.309 256.836 c 128,-1,33
 221.68 212.891 221.68 212.891 235.596 167.725 c 128,-1,34
 249.512 122.559 249.512 122.559 270.752 88.8672 c 128,-1,35
 291.992 55.1758 291.992 55.1758 326.66 33.9355 c 128,-1,36
 361.328 12.6953 361.328 12.6953 405.273 12.6953 c 0,37,38
 443.359 12.6953 443.359 12.6953 478.027 27.3438 c 128,-1,39
 512.695 41.9922 512.695 41.9922 537.598 66.4062 c 128,-1,40
 562.5 90.8203 562.5 90.8203 580.078 116.699 c 128,-1,41
 597.656 142.578 597.656 142.578 608.887 169.922 c 0,42,43
 614.746 184.082 614.746 184.082 618.408 191.895 c 128,-1,44
 622.07 199.707 622.07 199.707 628.662 207.275 c 128,-1,45
 635.254 214.844 635.254 214.844 642.09 214.844 c 0,46,47
 652.344 214.844 652.344 214.844 653.809 200.195 c 1,48,-1
 660.156 97.6562 l 2,49,50
 661.133 84.9609 661.133 84.9609 661.133 71.7773 c 0,51,52
 661.133 56.6406 661.133 56.6406 651.123 47.3633 c 128,-1,53
 641.113 38.0859 641.113 38.0859 607.422 20.5078 c 0,54,55
 534.668 -16.6016 534.668 -16.6016 405.273 -16.6016 c 0,56,57
 335.449 -16.6016 335.449 -16.6016 272.949 6.83594 c 128,-1,58
 210.449 30.2734 210.449 30.2734 161.377 74.4629 c 128,-1,59
 112.305 118.652 112.305 118.652 83.4961 189.209 c 128,-1,0
 54.6875 259.766 54.6875 259.766 54.6875 347.168 c 128,-1,1
EndSplineSet
Validated: 19457
EndChar

StartChar: D
Encoding: 36 68 36
Width: 759
VWidth: 0
Flags: W
HStem: 0 29<47 98 235 400.118> 664 29<47 98 235 400.118>
VStem: 98 137<29 664> 553 156<215.269 478.546>
AnchorPoint: "Bottom" 312 0 basechar 0
AnchorPoint: "TopCap" 312 762 basechar 0
LayerCount: 3
Fore
SplineSet
47 0 m 1
 47 29 l 1
 98 29 l 1
 98 664 l 1
 47 664 l 1
 47 693 l 1
 345 693 l 2
 590 693 709 544 709 347 c 0
 709 150 590 0 345 0 c 2
 47 0 l 1
235 29 m 1
 322 29 l 2
 519 29 553 211 553 347 c 0
 553 483 519 664 322 664 c 2
 235 664 l 1
 235 29 l 1
EndSplineSet
Validated: 19457
Layer: 2
SplineSet
46.875 0 m 1,0,-1
 46.875 29.2969 l 1,1,-1
 97.6562 29.2969 l 1,2,-1
 97.6562 664.062 l 1,3,-1
 46.875 664.062 l 1,4,-1
 46.875 693.359 l 1,5,-1
 345.215 693.359 l 2,6,7
 435.059 693.359 435.059 693.359 505.127 666.992 c 128,-1,8
 575.195 640.625 575.195 640.625 619.385 593.75 c 128,-1,9
 663.574 546.875 663.574 546.875 686.279 484.131 c 128,-1,10
 708.984 421.387 708.984 421.387 708.984 346.68 c 128,-1,11
 708.984 271.973 708.984 271.973 686.279 209.229 c 128,-1,12
 663.574 146.484 663.574 146.484 619.385 99.6094 c 128,-1,13
 575.195 52.7344 575.195 52.7344 505.127 26.3672 c 128,-1,14
 435.059 0 435.059 0 345.215 0 c 2,15,-1
 46.875 0 l 1,0,-1
235.352 29.2969 m 1,16,-1
 322.266 29.2969 l 2,17,18
 363.281 29.2969 363.281 29.2969 396.973 40.0391 c 128,-1,19
 430.664 50.7812 430.664 50.7812 454.102 68.3594 c 128,-1,20
 477.539 85.9375 477.539 85.9375 495.605 111.816 c 128,-1,21
 513.672 137.695 513.672 137.695 524.17 165.039 c 128,-1,22
 534.668 192.383 534.668 192.383 541.26 225.098 c 128,-1,23
 547.852 257.812 547.852 257.812 550.293 286.621 c 128,-1,24
 552.734 315.43 552.734 315.43 552.734 347.168 c 128,-1,25
 552.734 378.906 552.734 378.906 550.293 407.715 c 128,-1,26
 547.852 436.523 547.852 436.523 541.26 469.238 c 128,-1,27
 534.668 501.953 534.668 501.953 523.926 529.053 c 128,-1,28
 513.184 556.152 513.184 556.152 495.361 581.787 c 128,-1,29
 477.539 607.422 477.539 607.422 454.102 625.244 c 128,-1,30
 430.664 643.066 430.664 643.066 396.973 653.564 c 128,-1,31
 363.281 664.062 363.281 664.062 322.266 664.062 c 2,32,-1
 235.352 664.062 l 1,33,-1
 235.352 29.2969 l 1,16,-1
EndSplineSet
Validated: 19457
EndChar

StartChar: E
Encoding: 37 69 37
Width: 611
VWidth: 0
Flags: W
HStem: 0 29<47 98 235 424.575> 345 29<235 353.507> 664 29<47 98 235 423.625>
VStem: 98 137<29 345 374 664> 414 31<231.017 285.113 429.841 481.996> 495 32<526.004 587.203> 543 41<134.857 190.891>
AnchorPoint: "Bottom" 308 0 basechar 0
AnchorPoint: "TopCap" 304 762 basechar 0
LayerCount: 3
Fore
SplineSet
47 0 m 1
 47 29 l 1
 98 29 l 1
 98 664 l 1
 47 664 l 1
 47 693 l 1
 545 693 l 18
 553 693 557 691 557 687 c 0
 557 683 554 673 553 669 c 0
 539 626 530 582 527 537 c 0
 527 531 519 526 511 526 c 0
 505 526 496 530 495 537 c 0
 491 563 481 589 466 610 c 0
 442 645 411 664 364 664 c 10
 235 664 l 1
 235 374 l 1
 279 374 l 2
 320 374 361 385 382 408 c 0
 397 424 409 445 414 469 c 0
 416 477 421 482 429 482 c 0
 440 482 445 477 445 469 c 10
 445 245 l 18
 445 237 439 231 429 231 c 0
 421 231 416 236 414 244 c 0
 410 264 398 290 384 308 c 0
 362 336 320 345 279 345 c 2
 235 345 l 1
 235 29 l 1
 330 29 l 18
 395 29 444 38 491 91 c 0
 513 116 528 141 543 174 c 0
 548 185 553 191 566 191 c 0
 576 191 584 183 584 174 c 0
 584 167 581 153 578 133 c 10
 555 0 l 9
 47 0 l 1
EndSplineSet
Validated: 19457
Layer: 2
SplineSet
46.875 0 m 1,0,-1
 46.875 29.2969 l 1,1,-1
 97.6562 29.2969 l 1,2,-1
 97.6562 664.062 l 1,3,-1
 46.875 664.062 l 1,4,-1
 46.875 693.359 l 1,5,-1
 545.41 693.359 l 2,6,7
 556.641 693.359 556.641 693.359 556.641 686.523 c 128,-1,8
 556.641 679.688 556.641 679.688 553.223 669.434 c 0,9,10
 532.227 604.004 532.227 604.004 527.344 537.109 c 0,11,12
 526.855 532.715 526.855 532.715 522.217 529.541 c 128,-1,13
 517.578 526.367 517.578 526.367 511.23 526.367 c 0,14,15
 505.859 526.367 505.859 526.367 500.732 529.297 c 128,-1,16
 495.605 532.227 495.605 532.227 495.117 537.109 c 0,17,18
 488.281 577.637 488.281 577.637 465.82 610.352 c 0,19,20
 429.199 664.062 429.199 664.062 363.77 664.062 c 2,21,-1
 235.352 664.062 l 1,22,-1
 235.352 374.023 l 1,23,-1
 279.297 374.023 l 2,24,25
 311.523 374.023 311.523 374.023 339.355 382.812 c 128,-1,26
 367.188 391.602 367.188 391.602 382.324 408.203 c 0,27,28
 405.762 433.594 405.762 433.594 413.574 469.238 c 1,29,30
 416.992 482.422 416.992 482.422 428.711 482.422 c 0,31,32
 444.824 482.422 444.824 482.422 444.824 468.75 c 2,33,-1
 444.824 244.629 l 2,34,35
 444.824 230.957 444.824 230.957 429.199 230.957 c 0,36,37
 416.992 230.957 416.992 230.957 413.574 244.141 c 0,38,39
 405.273 281.25 405.273 281.25 384.277 308.105 c 0,40,41
 355.957 344.727 355.957 344.727 279.297 344.727 c 2,42,-1
 235.352 344.727 l 1,43,-1
 235.352 29.2969 l 1,44,-1
 330.078 29.2969 l 2,45,46
 384.766 29.2969 384.766 29.2969 421.387 41.748 c 128,-1,47
 458.008 54.1992 458.008 54.1992 491.211 91.3086 c 0,48,49
 522.461 126.465 522.461 126.465 543.457 173.828 c 0,50,51
 551.27 191.406 551.27 191.406 566.406 191.406 c 0,52,53
 573.73 191.406 573.73 191.406 578.857 186.279 c 128,-1,54
 583.984 181.152 583.984 181.152 583.984 174.316 c 0,55,56
 583.984 166.992 583.984 166.992 578.125 132.812 c 2,57,-1
 555.176 0 l 1,58,-1
 46.875 0 l 1,0,-1
EndSplineSet
Validated: 19457
EndChar

StartChar: F
Encoding: 38 70 38
Width: 574
VWidth: 0
Flags: W
HStem: 0 29<47 98 235 286> 345 29<235 353.507> 664 29<47 98 235 423.625>
VStem: 98 137<29 345 374 664> 414 31<231.017 285.113 429.841 481.996> 495 32<526.004 587.203>
AnchorPoint: "Bottom" 168 0 basechar 0
LayerCount: 3
Fore
SplineSet
47 0 m 25
 47 29 l 25
 98 29 l 17
 98 664 l 1
 47 664 l 1
 47 693 l 1
 545 693 l 18
 553 693 557 691 557 687 c 0
 557 683 554 673 553 669 c 0
 539 626 530 582 527 537 c 0
 527 531 519 526 511 526 c 0
 505 526 496 530 495 537 c 0
 491 563 481 589 466 610 c 0
 442 645 411 664 364 664 c 10
 235 664 l 1
 235 374 l 1
 279 374 l 2
 320 374 361 385 382 408 c 0
 397 424 409 445 414 469 c 0
 416 477 421 482 429 482 c 0
 440 482 445 477 445 469 c 10
 445 245 l 18
 445 237 439 231 429 231 c 0
 421 231 416 236 414 244 c 0
 410 264 398 290 384 308 c 0
 362 336 320 345 279 345 c 2
 235 345 l 1
 235 29 l 9
 286 29 l 25
 286 0 l 25
 47 0 l 25
EndSplineSet
Validated: 19457
Layer: 2
SplineSet
46.875 0 m 25,0,-1
 46.875 29.2969 l 1,1,-1
 97.6562 29.2969 l 1,2,-1
 97.6562 664.062 l 1,3,-1
 46.875 664.062 l 1,4,-1
 46.875 693.359 l 1,5,-1
 545.41 693.359 l 2,6,7
 556.641 693.359 556.641 693.359 556.641 686.523 c 128,-1,8
 556.641 679.688 556.641 679.688 553.223 669.434 c 0,9,10
 532.227 604.004 532.227 604.004 527.344 537.109 c 0,11,12
 526.855 532.715 526.855 532.715 522.217 529.541 c 128,-1,13
 517.578 526.367 517.578 526.367 511.23 526.367 c 0,14,15
 505.859 526.367 505.859 526.367 500.732 529.297 c 128,-1,16
 495.605 532.227 495.605 532.227 495.117 537.109 c 0,17,18
 488.281 577.637 488.281 577.637 465.82 610.352 c 0,19,20
 429.199 664.062 429.199 664.062 363.77 664.062 c 2,21,-1
 235.352 664.062 l 1,22,-1
 235.352 374.023 l 1,23,-1
 279.297 374.023 l 2,24,25
 311.523 374.023 311.523 374.023 339.355 382.812 c 128,-1,26
 367.188 391.602 367.188 391.602 382.324 408.203 c 0,27,28
 405.762 433.594 405.762 433.594 413.574 469.238 c 1,29,30
 416.992 482.422 416.992 482.422 428.711 482.422 c 0,31,32
 444.824 482.422 444.824 482.422 444.824 468.75 c 2,33,-1
 444.824 244.629 l 2,34,35
 444.824 230.957 444.824 230.957 429.199 230.957 c 0,36,37
 416.992 230.957 416.992 230.957 413.574 244.141 c 0,38,39
 405.273 281.25 405.273 281.25 384.277 308.105 c 0,40,41
 355.957 344.727 355.957 344.727 279.297 344.727 c 2,42,-1
 235.352 344.727 l 1,43,-1
 235.352 29.2969 l 1,44,-1
 286.133 29.2969 l 1,45,-1
 286.133 0 l 1,46,-1
 46.875 0 l 25,0,-1
EndSplineSet
Validated: 19457
EndChar

StartChar: G
Encoding: 39 71 39
Width: 791
VWidth: 0
Flags: W
HStem: -17 30<339.173 487.247> 279 30<456.005 543.669 693.332 732.996> 682 29<343.339 478.272>
VStem: 55 156<213.775 480.331> 558 124<68.8259 267.531>
AnchorPoint: "TopCap" 405 762 basechar 0
AnchorPoint: "Bottom" 408 0 basechar 0
LayerCount: 3
Fore
SplineSet
55 347 m 0
 55 588 221 711 405 711 c 0
 484 711 550 693 604 664 c 0
 647 641 658 630 658 607 c 0
 658 603 657 588 656 582 c 2
 648 487 l 2
 647 478 644 472 637 472 c 0
 622 472 614 490 605 511 c 0
 576 583 534 682 405 682 c 0
 252 682 211 491 211 347 c 0
 211 203 252 13 405 13 c 0
 534 13 558 93 558 140 c 2
 558 233 l 26
 558 248 554 258 544 268 c 0
 537 275 526 279 510 279 c 2
 472 279 l 2
 463 279 456 286 456 294 c 0
 456 302 461 309 468 309 c 26
 720 309 l 26
 728 309 733 304 733 294 c 0
 733 287 730 279 723 279 c 0
 712 279 700 278 693 271 c 0
 684 261 682 248 682 233 c 26
 682 90 l 18
 682 83 685 79 690 76 c 0
 693 74 698 69 698 65 c 0
 698 56 691 50 676 41 c 0
 623 9 484 -17 405 -17 c 0
 221 -17 55 106 55 347 c 0
EndSplineSet
Validated: 19457
Layer: 2
SplineSet
54.6875 347.168 m 128,-1,1
 54.6875 434.57 54.6875 434.57 83.4961 505.127 c 128,-1,2
 112.305 575.684 112.305 575.684 161.377 619.873 c 128,-1,3
 210.449 664.062 210.449 664.062 272.949 687.5 c 128,-1,4
 335.449 710.938 335.449 710.938 405.273 710.938 c 0,5,6
 517.09 710.938 517.09 710.938 604.492 664.062 c 0,7,8
 636.719 646.484 636.719 646.484 647.461 635.498 c 128,-1,9
 658.203 624.512 658.203 624.512 658.203 607.422 c 0,10,11
 658.203 594.238 658.203 594.238 656.25 581.543 c 1,12,-1
 648.438 486.816 l 2,13,14
 646.973 472.168 646.973 472.168 636.719 472.168 c 0,15,16
 626.953 472.168 626.953 472.168 619.873 481.934 c 128,-1,17
 612.793 491.699 612.793 491.699 604.98 511.23 c 0,18,19
 596.68 531.738 596.68 531.738 591.309 543.701 c 128,-1,20
 585.938 555.664 585.938 555.664 575.195 575.928 c 128,-1,21
 564.453 596.191 564.453 596.191 554.688 608.887 c 128,-1,22
 544.922 621.582 544.922 621.582 529.053 636.963 c 128,-1,23
 513.184 652.344 513.184 652.344 496.094 660.889 c 128,-1,24
 479.004 669.434 479.004 669.434 455.566 675.537 c 128,-1,25
 432.129 681.641 432.129 681.641 405.273 681.641 c 0,26,27
 361.328 681.641 361.328 681.641 326.66 660.4 c 128,-1,28
 291.992 639.16 291.992 639.16 270.752 605.469 c 128,-1,29
 249.512 571.777 249.512 571.777 235.596 526.611 c 128,-1,30
 221.68 481.445 221.68 481.445 216.309 437.5 c 128,-1,31
 210.938 393.555 210.938 393.555 210.938 347.168 c 128,-1,32
 210.938 300.781 210.938 300.781 216.309 256.836 c 128,-1,33
 221.68 212.891 221.68 212.891 235.596 167.725 c 128,-1,34
 249.512 122.559 249.512 122.559 270.752 88.8672 c 128,-1,35
 291.992 55.1758 291.992 55.1758 326.66 33.9355 c 128,-1,36
 361.328 12.6953 361.328 12.6953 405.273 12.6953 c 0,37,38
 441.895 12.6953 441.895 12.6953 470.215 21.7285 c 128,-1,39
 498.535 30.7617 498.535 30.7617 514.648 43.9453 c 128,-1,40
 530.762 57.1289 530.762 57.1289 541.016 75.1953 c 128,-1,41
 551.27 93.2617 551.27 93.2617 554.443 108.643 c 128,-1,42
 557.617 124.023 557.617 124.023 557.617 140.137 c 2,43,-1
 557.617 233.398 l 2,44,45
 557.617 254.883 557.617 254.883 544.434 268.066 c 0,46,47
 533.203 279.297 533.203 279.297 510.254 279.297 c 2,48,-1
 471.68 279.297 l 2,49,50
 464.844 279.297 464.844 279.297 460.205 283.447 c 128,-1,51
 455.566 287.598 455.566 287.598 455.566 293.945 c 128,-1,52
 455.566 300.293 455.566 300.293 458.984 304.443 c 128,-1,53
 462.402 308.594 462.402 308.594 467.773 308.594 c 2,54,-1
 719.727 308.594 l 2,55,56
 733.398 308.594 733.398 308.594 733.398 293.945 c 0,57,58
 733.398 288.086 733.398 288.086 730.469 283.691 c 128,-1,59
 727.539 279.297 727.539 279.297 722.656 279.297 c 0,60,61
 701.172 279.297 701.172 279.297 692.871 270.508 c 0,62,63
 681.641 258.301 681.641 258.301 681.641 233.398 c 2,64,-1
 681.641 89.8438 l 2,65,66
 681.641 81.0547 681.641 81.0547 690.43 76.1719 c 0,67,68
 698.242 71.7773 698.242 71.7773 698.242 65.4297 c 0,69,70
 698.242 54.6875 698.242 54.6875 675.781 41.0156 c 0,71,72
 637.695 18.0664 637.695 18.0664 552.734 0.732422 c 128,-1,73
 467.773 -16.6016 467.773 -16.6016 405.273 -16.6016 c 0,74,75
 335.449 -16.6016 335.449 -16.6016 272.949 6.83594 c 128,-1,76
 210.449 30.2734 210.449 30.2734 161.377 74.4629 c 128,-1,77
 112.305 118.652 112.305 118.652 83.4961 189.209 c 128,-1,0
 54.6875 259.766 54.6875 259.766 54.6875 347.168 c 128,-1,1
EndSplineSet
Validated: 19457
EndChar

StartChar: H
Encoding: 40 72 40
Width: 781
VWidth: 0
Flags: W
HStem: 0 29<47 98 235 286 495 546 684 734> 351 29<235 546> 664 29<47 98 235 286 495 546 684 734>
VStem: 98 137<29 351 380 664> 546 138<29 351 380 664>
AnchorPoint: "TopCap" 391 762 basechar 0
AnchorPoint: "Bottom" 391 0 basechar 0
LayerCount: 3
Fore
SplineSet
47 0 m 1
 47 29 l 1
 98 29 l 1
 98 664 l 1
 47 664 l 1
 47 693 l 1
 286 693 l 1
 286 664 l 1
 235 664 l 1
 235 380 l 1
 546 380 l 1
 546 664 l 1
 495 664 l 1
 495 693 l 1
 734 693 l 1
 734 664 l 1
 684 664 l 1
 684 29 l 1
 734 29 l 1
 734 0 l 1
 495 0 l 1
 495 29 l 1
 546 29 l 1
 546 351 l 1
 235 351 l 1
 235 29 l 1
 286 29 l 1
 286 0 l 1
 47 0 l 1
EndSplineSet
Validated: 19457
Layer: 2
SplineSet
46.875 0 m 1,0,-1
 46.875 29.2969 l 1,1,-1
 97.6562 29.2969 l 1,2,-1
 97.6562 664.062 l 1,3,-1
 46.875 664.062 l 1,4,-1
 46.875 693.359 l 1,5,-1
 286.133 693.359 l 1,6,-1
 286.133 664.062 l 1,7,-1
 235.352 664.062 l 1,8,-1
 235.352 379.883 l 1,9,-1
 545.898 379.883 l 1,10,-1
 545.898 664.062 l 1,11,-1
 495.117 664.062 l 1,12,-1
 495.117 693.359 l 1,13,-1
 734.375 693.359 l 1,14,-1
 734.375 664.062 l 1,15,-1
 683.594 664.062 l 1,16,-1
 683.594 29.2969 l 1,17,-1
 734.375 29.2969 l 1,18,-1
 734.375 0 l 1,19,-1
 495.117 0 l 1,20,-1
 495.117 29.2969 l 1,21,-1
 545.898 29.2969 l 1,22,-1
 545.898 350.586 l 1,23,-1
 235.352 350.586 l 1,24,-1
 235.352 29.2969 l 1,25,-1
 286.133 29.2969 l 1,26,-1
 286.133 0 l 1,27,-1
 46.875 0 l 1,0,-1
EndSplineSet
Validated: 19457
EndChar

StartChar: I
Encoding: 41 73 41
Width: 333
VWidth: 0
Flags: W
HStem: 0 29<47 98 235 286> 664 29<47 98 235 286>
VStem: 98 137<29 664>
AnchorPoint: "TopCap" 167 762 basechar 0
AnchorPoint: "Bottom" 167 0 basechar 0
LayerCount: 3
Fore
SplineSet
47 0 m 25
 47 29 l 25
 98 29 l 25
 98 664 l 25
 47 664 l 25
 47 693 l 25
 286 693 l 25
 286 664 l 25
 235 664 l 25
 235 29 l 25
 286 29 l 25
 286 0 l 25
 47 0 l 25
EndSplineSet
Validated: 19457
Layer: 2
SplineSet
46.875 0 m 25,0,-1
 46.875 29.2969 l 1,1,-1
 97.6562 29.2969 l 1,2,-1
 97.6562 664.062 l 1,3,-1
 46.875 664.062 l 1,4,-1
 46.875 693.359 l 1,5,-1
 286.133 693.359 l 1,6,-1
 286.133 664.062 l 1,7,-1
 235.352 664.062 l 1,8,-1
 235.352 29.2969 l 1,9,-1
 286.133 29.2969 l 1,10,-1
 286.133 0 l 1,11,-1
 46.875 0 l 25,0,-1
EndSplineSet
Validated: 19457
EndChar

StartChar: J
Encoding: 42 74 42
Width: 496
VWidth: 0
Flags: W
HStem: -17 30<148.664 236.286> 664 29<218 269 406 457>
VStem: 12 115<59.1803 159.266> 269 137<99.6776 664>
AnchorPoint: "Bottom" 197 0 basechar 0
AnchorPoint: "TopCap" 337 762 basechar 0
LayerCount: 3
Fore
SplineSet
12 133 m 0
 12 164 130 206 156 206 c 0
 164 206 167 200 167 196 c 0
 167 190 162 181 157 174 c 0
 139 147 127 113 127 79 c 0
 127 50 140 13 193 13 c 0
 254 13 269 67 269 132 c 10
 269 664 l 25
 218 664 l 25
 218 693 l 25
 457 693 l 25
 457 664 l 25
 406 664 l 25
 406 238 l 18
 406 71 342 -17 196 -17 c 0
 106 -17 12 33 12 133 c 0
EndSplineSet
Validated: 19457
Layer: 2
SplineSet
11.7188 132.812 m 0,0,1
 11.7188 153.32 11.7188 153.32 71.2891 179.688 c 128,-1,2
 130.859 206.055 130.859 206.055 156.25 206.055 c 0,3,4
 166.992 206.055 166.992 206.055 166.992 196.289 c 0,5,6
 166.992 189.453 166.992 189.453 156.738 173.828 c 0,7,8
 126.953 128.906 126.953 128.906 126.953 79.1016 c 0,9,10
 126.953 52.7344 126.953 52.7344 142.334 32.7148 c 128,-1,11
 157.715 12.6953 157.715 12.6953 193.359 12.6953 c 0,12,13
 215.332 12.6953 215.332 12.6953 230.469 21.7285 c 128,-1,14
 245.605 30.7617 245.605 30.7617 253.662 47.8516 c 128,-1,15
 261.719 64.9414 261.719 64.9414 265.137 85.2051 c 128,-1,16
 268.555 105.469 268.555 105.469 268.555 131.836 c 2,17,-1
 268.555 664.062 l 1,18,-1
 217.773 664.062 l 1,19,-1
 217.773 693.359 l 1,20,-1
 457.031 693.359 l 1,21,-1
 457.031 664.062 l 1,22,-1
 406.25 664.062 l 1,23,-1
 406.25 238.281 l 2,24,25
 406.25 111.328 406.25 111.328 354.98 47.3633 c 128,-1,26
 303.711 -16.6016 303.711 -16.6016 195.801 -16.6016 c 0,27,28
 148.926 -16.6016 148.926 -16.6016 107.91 -0.488281 c 128,-1,29
 66.8945 15.625 66.8945 15.625 39.3066 50.5371 c 128,-1,30
 11.7188 85.4492 11.7188 85.4492 11.7188 132.812 c 0,0,1
EndSplineSet
Validated: 19457
EndChar

StartChar: K
Encoding: 43 75 43
Width: 750
VWidth: 0
Flags: W
HStem: -20 46<670.523 741.299> 0 29<47 98 235 286> 664 29<47 98 235 286 415 475.227 578.8 637>
VStem: 98 137<29 297 343 664>
DStem2: 235 343 235 297 0.674386 0.738379<0 37.5392 164.206 380.177> 369 443 283 350 0.572424 -0.819958<27.0277 441.921>
AnchorPoint: "Bottom" 405 0 basechar 0
LayerCount: 3
Fore
SplineSet
47 0 m 1x70
 47 29 l 1
 98 29 l 1x70
 98 664 l 1
 47 664 l 1
 47 693 l 1
 286 693 l 1
 286 664 l 1
 235 664 l 1
 235 343 l 1
 458 587 l 2
 470 600 482 618 482 633 c 0
 482 656 455 664 415 664 c 1
 415 693 l 1
 637 693 l 1
 637 664 l 1
 590 664 544 635 509 597 c 2
 369 443 l 1
 554 178 l 2
 620 84 664 38 716 26 c 0
 730 23 744 19 744 12 c 0
 744 -7 717 -20 688 -20 c 0xb0
 561 -20 493 40 418 155 c 2
 283 350 l 1
 235 297 l 1
 235 29 l 1
 286 29 l 1
 286 0 l 1
 47 0 l 1x70
EndSplineSet
Validated: 19457
Layer: 2
SplineSet
46.875 0 m 1,0,-1
 46.875 29.2969 l 1,1,-1
 97.6562 29.2969 l 1,2,-1
 97.6562 664.062 l 1,3,-1
 46.875 664.062 l 1,4,-1
 46.875 693.359 l 1,5,-1
 286.133 693.359 l 1,6,-1
 286.133 664.062 l 1,7,-1
 235.352 664.062 l 1,8,-1
 235.352 343.262 l 1,9,-1
 457.52 587.402 l 2,10,11
 482.422 614.258 482.422 614.258 482.422 632.812 c 0,12,13
 482.422 663.574 482.422 663.574 415.039 663.574 c 1,14,-1
 415.039 692.871 l 1,15,-1
 637.207 692.871 l 1,16,-1
 637.207 663.574 l 1,17,18
 570.801 663.574 570.801 663.574 509.277 596.68 c 2,19,-1
 368.652 443.359 l 1,20,-1
 553.711 178.223 l 2,21,22
 604.98 104.492 604.98 104.492 641.602 69.3359 c 128,-1,23
 678.223 34.1797 678.223 34.1797 716.309 25.8789 c 0,24,25
 744.141 20.0195 744.141 20.0195 744.141 12.207 c 0,26,27
 744.141 -1.46484 744.141 -1.46484 727.539 -10.498 c 128,-1,28
 710.938 -19.5312 710.938 -19.5312 687.988 -19.5312 c 0,29,30
 641.113 -19.5312 641.113 -19.5312 603.271 -8.78906 c 128,-1,31
 565.43 1.95312 565.43 1.95312 533.203 25.1465 c 128,-1,32
 500.977 48.3398 500.977 48.3398 474.365 79.1016 c 128,-1,33
 447.754 109.863 447.754 109.863 417.969 155.273 c 1,34,-1
 283.203 350.098 l 1,35,-1
 235.352 297.363 l 1,36,-1
 235.352 29.2969 l 1,37,-1
 286.133 29.2969 l 1,38,-1
 286.133 0 l 1,39,-1
 46.875 0 l 1,0,-1
EndSplineSet
Validated: 19457
EndChar

StartChar: L
Encoding: 44 76 44
Width: 613
VWidth: 0
Flags: W
HStem: 0 29<47 98 235 412.881> 664 29<47 98 235 286>
VStem: 98 137<29 664>
AnchorPoint: "TopCap" 197 762 basechar 0
AnchorPoint: "Bottom" 328 0 basechar 0
LayerCount: 3
Fore
SplineSet
47 0 m 1
 47 29 l 1
 98 29 l 1
 98 664 l 9
 47 664 l 25
 47 693 l 25
 286 693 l 25
 286 664 l 25
 235 664 l 25
 235 29 l 1
 325 29 l 18
 390 29 458 49 504 103 c 0
 528 131 546 158 561 191 c 0
 566 202 571 208 584 208 c 0
 594 208 602 200 602 191 c 0
 602 184 600 170 596 150 c 10
 564 0 l 9
 47 0 l 1
EndSplineSet
Validated: 19457
Layer: 2
SplineSet
46.875 0 m 1,0,-1
 46.875 29.2969 l 1,1,-1
 97.6562 29.2969 l 1,2,-1
 97.6562 664.062 l 1,3,-1
 46.875 664.062 l 1,4,-1
 46.875 693.359 l 1,5,-1
 286.133 693.359 l 1,6,-1
 286.133 664.062 l 1,7,-1
 235.352 664.062 l 1,8,-1
 235.352 29.2969 l 1,9,-1
 325.195 29.2969 l 2,10,11
 440.918 29.2969 440.918 29.2969 503.906 103.027 c 0,12,13
 541.016 145.996 541.016 145.996 561.035 190.918 c 0,14,15
 568.848 208.496 568.848 208.496 583.984 208.496 c 0,16,17
 591.309 208.496 591.309 208.496 596.436 203.369 c 128,-1,18
 601.562 198.242 601.562 198.242 601.562 191.406 c 0,19,20
 601.562 176.758 601.562 176.758 595.703 149.902 c 2,21,-1
 564.453 0 l 1,22,-1
 46.875 0 l 1,0,-1
EndSplineSet
Validated: 19457
EndChar

StartChar: M
Encoding: 45 77 45
Width: 935
VWidth: 0
Flags: W
HStem: 0 29<43 95.608 186.71 247 659 714 854 904> 664 29<57.0117 115.085 796 847>
DStem2: 129 95 164 97 0.0770536 0.997027<-9.24591 414.864> 263 670 147 605 0.413916 -0.910315<-34.5072 67.8626 122.94 548.703> 489 170 453 -2 0.37265 0.927972<0 410.281> 796 664 670 541 0.0909599 -0.995855<111.029 624.909>
AnchorPoint: "Bottom" 442 0 basechar 0
LayerCount: 3
Fore
SplineSet
43 0 m 1
 43 29 l 1
 80 29 126 49 129 95 c 2
 162 522 l 2
 162 530 163 545 163 549 c 0
 163 570 157 585 147 605 c 0
 137 626 129 640 112 652 c 0
 100 660 87 664 70 664 c 0
 61 664 57 672 57 679 c 0
 57 686 61 693 70 693 c 2
 218 693 l 2
 247 693 253 691 263 670 c 2
 489 170 l 1
 689 670 l 2
 693 681 699 693 718 693 c 2
 847 693 l 1
 847 664 l 1
 796 664 l 1
 854 29 l 1
 904 29 l 1
 904 0 l 1
 659 0 l 1
 659 29 l 1
 714 29 l 1
 670 541 l 1
 668 541 l 1
 665 526 661 517 657 506 c 2
 453 -2 l 2
 451 -8 444 -12 438 -12 c 0
 432 -12 426 -8 423 -2 c 2
 208 473 l 2
 205 480 200 494 198 506 c 1
 195 506 l 1
 164 97 l 2
 164 94 163 85 163 83 c 0
 163 44 206 29 247 29 c 1
 247 0 l 1
 43 0 l 1
EndSplineSet
Validated: 19457
Layer: 2
SplineSet
42.9688 0 m 1,0,-1
 42.9688 29.2969 l 1,1,2
 74.2188 29.2969 74.2188 29.2969 100.342 46.1426 c 128,-1,3
 126.465 62.9883 126.465 62.9883 128.906 94.7266 c 2,4,-1
 162.109 522.461 l 2,5,6
 163.086 538.086 163.086 538.086 163.086 548.828 c 0,7,8
 163.086 572.754 163.086 572.754 146.973 604.98 c 0,9,10
 140.625 617.676 140.625 617.676 136.963 624.268 c 128,-1,11
 133.301 630.859 133.301 630.859 126.709 638.916 c 128,-1,12
 120.117 646.973 120.117 646.973 111.816 652.344 c 0,13,14
 94.7266 664.062 94.7266 664.062 70.3125 664.062 c 0,15,16
 63.9648 664.062 63.9648 664.062 60.3027 668.457 c 128,-1,17
 56.6406 672.852 56.6406 672.852 56.6406 678.711 c 128,-1,18
 56.6406 684.57 56.6406 684.57 60.3027 688.965 c 128,-1,19
 63.9648 693.359 63.9648 693.359 70.3125 693.359 c 2,20,-1
 218.262 693.359 l 2,21,22
 240.234 693.359 240.234 693.359 248.047 689.453 c 128,-1,23
 255.859 685.547 255.859 685.547 263.184 669.922 c 2,24,-1
 489.258 170.41 l 1,25,-1
 689.453 669.922 l 2,26,27
 692.383 677.246 692.383 677.246 694.824 681.396 c 128,-1,28
 697.266 685.547 697.266 685.547 703.369 689.453 c 128,-1,29
 709.473 693.359 709.473 693.359 718.262 693.359 c 2,30,-1
 846.68 693.359 l 1,31,-1
 846.68 664.062 l 1,32,-1
 795.898 664.062 l 1,33,-1
 853.516 29.2969 l 1,34,-1
 904.297 29.2969 l 1,35,-1
 904.297 0 l 1,36,-1
 659.18 0 l 1,37,-1
 659.18 29.2969 l 1,38,-1
 713.867 29.2969 l 1,39,-1
 669.922 540.527 l 1,40,-1
 667.969 540.527 l 1,41,42
 664.062 523.926 664.062 523.926 657.227 506.348 c 2,43,-1
 453.125 -2.44141 l 2,44,45
 449.707 -11.7188 449.707 -11.7188 438.477 -11.7188 c 128,-1,46
 427.246 -11.7188 427.246 -11.7188 422.852 -2.44141 c 2,47,-1
 208.496 473.145 l 1,48,49
 200.684 491.699 200.684 491.699 198.242 505.859 c 1,50,-1
 195.312 505.859 l 1,51,-1
 163.574 96.6797 l 2,52,53
 163.086 93.2617 163.086 93.2617 163.086 83.4961 c 0,54,55
 163.086 56.1523 163.086 56.1523 187.744 42.7246 c 128,-1,56
 212.402 29.2969 212.402 29.2969 247.07 29.2969 c 1,57,-1
 247.07 0 l 1,58,-1
 42.9688 0 l 1,0,-1
EndSplineSet
Validated: 19457
EndChar

StartChar: N
Encoding: 46 78 46
Width: 722
VWidth: 0
Flags: W
HStem: 0 29<49 102.659 191.125 251> 664 29<494 555.228 640.72 696>
VStem: 135 33<55.3796 526> 577 33<206 638.368>
DStem2: 251 654 173 526 0.582772 -0.812636<-61.3179 20.5948 58.5612 551.131>
AnchorPoint: "TopCap" 408 762 basechar 0
AnchorPoint: "Bottom" 390 0 basechar 0
LayerCount: 3
Fore
SplineSet
39 680 m 0
 39 687 44 693 53 693 c 2
 179 693 l 2
 220 693 236 675 251 654 c 2
 572 206 l 1
 577 206 l 1
 577 600 l 2
 577 650 543 664 494 664 c 1
 494 693 l 1
 696 693 l 1
 696 664 l 1
 659 664 610 645 610 599 c 2
 610 -12 l 17
 582 -12 l 18
 561 -12 545 7 538 17 c 2
 173 526 l 1
 168 526 l 1
 168 94 l 2
 168 44 202 29 251 29 c 1
 251 0 l 1
 49 0 l 1
 49 29 l 1
 86 29 135 49 135 95 c 2
 135 560 l 2
 135 566 134 575 130 583 c 0
 126 593 118 604 107 618 c 0
 87 644 71 655 52 663 c 0
 45 666 39 671 39 680 c 0
EndSplineSet
Validated: 19457
Layer: 2
SplineSet
39.0625 679.688 m 0,0,1
 39.0625 685.059 39.0625 685.059 42.7246 689.209 c 128,-1,2
 46.3867 693.359 46.3867 693.359 52.7344 693.359 c 2,3,-1
 178.711 693.359 l 2,4,5
 206.543 693.359 206.543 693.359 221.924 683.105 c 128,-1,6
 237.305 672.852 237.305 672.852 250.977 653.809 c 2,7,-1
 571.777 206.055 l 1,8,-1
 577.148 206.055 l 1,9,-1
 577.148 599.609 l 2,10,11
 577.148 635.254 577.148 635.254 555.42 649.658 c 128,-1,12
 533.691 664.062 533.691 664.062 493.652 664.062 c 1,13,-1
 493.652 693.359 l 1,14,-1
 696.289 693.359 l 1,15,-1
 696.289 664.062 l 1,16,17
 676.27 664.062 676.27 664.062 657.471 657.715 c 128,-1,18
 638.672 651.367 638.672 651.367 624.512 635.742 c 128,-1,19
 610.352 620.117 610.352 620.117 610.352 598.633 c 2,20,-1
 610.352 -11.7188 l 1,21,-1
 582.031 -11.7188 l 2,22,23
 557.617 -11.7188 557.617 -11.7188 537.598 16.6016 c 2,24,-1
 173.34 525.879 l 1,25,-1
 167.969 525.879 l 1,26,-1
 167.969 93.75 l 2,27,28
 167.969 58.1055 167.969 58.1055 189.697 43.7012 c 128,-1,29
 211.426 29.2969 211.426 29.2969 251.465 29.2969 c 1,30,-1
 251.465 0 l 1,31,-1
 48.8281 0 l 1,32,-1
 48.8281 29.2969 l 1,33,34
 68.8477 29.2969 68.8477 29.2969 87.6465 35.6445 c 128,-1,35
 106.445 41.9922 106.445 41.9922 120.605 57.6172 c 128,-1,36
 134.766 73.2422 134.766 73.2422 134.766 94.7266 c 2,37,-1
 134.766 559.57 l 2,38,39
 134.766 574.219 134.766 574.219 130.371 583.496 c 0,40,41
 125 595.215 125 595.215 107.422 617.676 c 0,42,43
 83.4961 648.926 83.4961 648.926 51.7578 662.598 c 0,44,45
 39.0625 667.969 39.0625 667.969 39.0625 679.688 c 0,0,1
EndSplineSet
Validated: 19457
EndChar

StartChar: O
Encoding: 47 79 47
Width: 810
VWidth: 0
Flags: W
HStem: -17 30<332.415 477.652> 682 29<332.415 477.652>
VStem: 55 156<219.031 475.038> 600 156<219.031 475.038>
AnchorPoint: "TopCap" 405 762 basechar 0
AnchorPoint: "Bottom" 405 0 basechar 0
LayerCount: 3
Fore
SplineSet
55 347 m 0
 55 560 212 711 405 711 c 0
 598 711 756 560 756 347 c 0
 756 134 598 -17 405 -17 c 0
 212 -17 55 134 55 347 c 0
211 347 m 0
 211 154 252 13 405 13 c 0
 558 13 600 154 600 347 c 0
 600 540 558 682 405 682 c 0
 252 682 211 540 211 347 c 0
EndSplineSet
Validated: 19457
Layer: 2
SplineSet
54.6875 347.168 m 128,-1,1
 54.6875 425.293 54.6875 425.293 82.2754 493.408 c 128,-1,2
 109.863 561.523 109.863 561.523 157.227 609.131 c 128,-1,3
 204.59 656.738 204.59 656.738 269.043 683.838 c 128,-1,4
 333.496 710.938 333.496 710.938 405.273 710.938 c 128,-1,5
 477.051 710.938 477.051 710.938 541.504 683.838 c 128,-1,6
 605.957 656.738 605.957 656.738 653.32 609.131 c 128,-1,7
 700.684 561.523 700.684 561.523 728.271 493.408 c 128,-1,8
 755.859 425.293 755.859 425.293 755.859 347.168 c 128,-1,9
 755.859 269.043 755.859 269.043 728.271 200.928 c 128,-1,10
 700.684 132.812 700.684 132.812 653.32 85.2051 c 128,-1,11
 605.957 37.5977 605.957 37.5977 541.504 10.498 c 128,-1,12
 477.051 -16.6016 477.051 -16.6016 405.273 -16.6016 c 128,-1,13
 333.496 -16.6016 333.496 -16.6016 269.043 10.498 c 128,-1,14
 204.59 37.5977 204.59 37.5977 157.227 85.2051 c 128,-1,15
 109.863 132.812 109.863 132.812 82.2754 200.928 c 128,-1,0
 54.6875 269.043 54.6875 269.043 54.6875 347.168 c 128,-1,1
210.938 347.168 m 128,-1,17
 210.938 286.133 210.938 286.133 216.309 237.793 c 128,-1,18
 221.68 189.453 221.68 189.453 235.352 146.24 c 128,-1,19
 249.023 103.027 249.023 103.027 270.752 74.4629 c 128,-1,20
 292.48 45.8984 292.48 45.8984 326.416 29.2969 c 128,-1,21
 360.352 12.6953 360.352 12.6953 405.273 12.6953 c 128,-1,22
 450.195 12.6953 450.195 12.6953 484.131 29.2969 c 128,-1,23
 518.066 45.8984 518.066 45.8984 539.795 74.4629 c 128,-1,24
 561.523 103.027 561.523 103.027 575.195 146.24 c 128,-1,25
 588.867 189.453 588.867 189.453 594.238 237.793 c 128,-1,26
 599.609 286.133 599.609 286.133 599.609 347.168 c 128,-1,27
 599.609 408.203 599.609 408.203 594.238 456.543 c 128,-1,28
 588.867 504.883 588.867 504.883 575.195 548.096 c 128,-1,29
 561.523 591.309 561.523 591.309 539.795 619.873 c 128,-1,30
 518.066 648.438 518.066 648.438 484.131 665.039 c 128,-1,31
 450.195 681.641 450.195 681.641 405.273 681.641 c 128,-1,32
 360.352 681.641 360.352 681.641 326.416 665.039 c 128,-1,33
 292.48 648.438 292.48 648.438 270.752 619.873 c 128,-1,34
 249.023 591.309 249.023 591.309 235.352 548.096 c 128,-1,35
 221.68 504.883 221.68 504.883 216.309 456.543 c 128,-1,16
 210.938 408.203 210.938 408.203 210.938 347.168 c 128,-1,17
EndSplineSet
Validated: 19457
EndChar

StartChar: P
Encoding: 48 80 48
Width: 643
VWidth: 0
Flags: W
HStem: 0 29<47 98 235 286> 293 33<287.222 415.223> 664 29<47 98 235 394.35>
VStem: 98 137<29 664> 472 150<409.567 582.013>
AnchorPoint: "Bottom" 168 0 basechar 0
LayerCount: 3
Fore
SplineSet
47 0 m 1
 47 29 l 1
 98 29 l 1
 98 664 l 1
 47 664 l 1
 47 693 l 1
 307 693 l 2
 533 693 622 608 622 501 c 0
 622 369 513 293 366 293 c 0
 321 293 254 314 254 336 c 0
 254 344 258 351 265 351 c 0
 269 351 277 348 286 343 c 0
 301 334 333 326 350 326 c 0
 433 326 472 373 472 500 c 0
 472 595 441 664 322 664 c 2
 235 664 l 1
 235 29 l 1
 286 29 l 1
 286 0 l 1
 47 0 l 1
EndSplineSet
Validated: 19457
Layer: 2
SplineSet
46.875 0 m 1,0,-1
 46.875 29.2969 l 1,1,-1
 97.6562 29.2969 l 1,2,-1
 97.6562 664.062 l 1,3,-1
 46.875 664.062 l 1,4,-1
 46.875 693.359 l 1,5,-1
 307.129 693.359 l 2,6,7
 389.16 693.359 389.16 693.359 450.928 678.711 c 128,-1,8
 512.695 664.062 512.695 664.062 549.561 637.451 c 128,-1,9
 586.426 610.84 586.426 610.84 604.248 576.66 c 128,-1,10
 622.07 542.48 622.07 542.48 622.07 500.977 c 0,11,12
 622.07 403.809 622.07 403.809 550.781 348.389 c 128,-1,13
 479.492 292.969 479.492 292.969 366.211 292.969 c 0,14,15
 330.566 292.969 330.566 292.969 292.236 306.885 c 128,-1,16
 253.906 320.801 253.906 320.801 253.906 336.426 c 0,17,18
 253.906 351.074 253.906 351.074 265.137 351.074 c 0,19,20
 271.973 351.074 271.973 351.074 285.645 343.262 c 0,21,22
 296.875 336.914 296.875 336.914 316.895 331.543 c 128,-1,23
 336.914 326.172 336.914 326.172 350.098 326.172 c 0,24,25
 414.062 326.172 414.062 326.172 442.871 365.967 c 128,-1,26
 471.68 405.762 471.68 405.762 471.68 500 c 0,27,28
 471.68 538.086 471.68 538.086 464.844 566.162 c 128,-1,29
 458.008 594.238 458.008 594.238 441.65 617.188 c 128,-1,30
 425.293 640.137 425.293 640.137 395.264 652.1 c 128,-1,31
 365.234 664.062 365.234 664.062 321.777 664.062 c 2,32,-1
 235.352 664.062 l 1,33,-1
 235.352 29.2969 l 1,34,-1
 286.133 29.2969 l 1,35,-1
 286.133 0 l 1,36,-1
 46.875 0 l 1,0,-1
EndSplineSet
Validated: 19457
EndChar

StartChar: Q
Encoding: 49 81 49
Width: 810
VWidth: 0
Flags: W
HStem: -207 45<611.346 694.326> 682 29<332.415 477.652>
VStem: 55 156<217.071 475.038> 600 156<218.331 475.038>
AnchorPoint: "Bottom" 215 0 basechar 0
LayerCount: 3
Fore
SplineSet
55 347 m 0
 55 560 212 711 405 711 c 0
 598 711 756 560 756 347 c 0
 756 161 636 31 505 -2 c 1
 551 -126 613 -151 670 -162 c 0
 684 -165 698 -168 698 -175 c 0
 698 -194 662 -207 633 -207 c 0
 516 -207 423 -151 363 -14 c 1
 189 6 55 150 55 347 c 0
211 347 m 0
 211 179 242 51 351 20 c 1
 377 36 438 62 467 62 c 0
 472 62 484 55 491 33 c 1
 569 74 600 188 600 347 c 0
 600 540 558 682 405 682 c 0
 252 682 211 540 211 347 c 0
EndSplineSet
Validated: 19457
Layer: 2
SplineSet
54.6875 347.168 m 0,0,1
 54.6875 425.293 54.6875 425.293 82.2754 493.408 c 128,-1,2
 109.863 561.523 109.863 561.523 157.227 609.131 c 128,-1,3
 204.59 656.738 204.59 656.738 269.043 683.838 c 128,-1,4
 333.496 710.938 333.496 710.938 405.273 710.938 c 128,-1,5
 477.051 710.938 477.051 710.938 541.504 683.838 c 128,-1,6
 605.957 656.738 605.957 656.738 653.32 609.131 c 128,-1,7
 700.684 561.523 700.684 561.523 728.271 493.408 c 128,-1,8
 755.859 425.293 755.859 425.293 755.859 347.168 c 0,9,10
 755.859 279.785 755.859 279.785 735.107 219.482 c 128,-1,11
 714.355 159.18 714.355 159.18 679.443 115.234 c 128,-1,12
 644.531 71.2891 644.531 71.2891 599.854 41.0156 c 128,-1,13
 555.176 10.7422 555.176 10.7422 505.371 -1.95312 c 1,14,15
 518.555 -37.5977 518.555 -37.5977 534.912 -64.9414 c 128,-1,16
 551.27 -92.2852 551.27 -92.2852 566.65 -108.643 c 128,-1,17
 582.031 -125 582.031 -125 601.074 -136.23 c 128,-1,18
 620.117 -147.461 620.117 -147.461 635.498 -152.588 c 128,-1,19
 650.879 -157.715 650.879 -157.715 670.41 -161.621 c 0,20,21
 698.242 -167.48 698.242 -167.48 698.242 -175.293 c 0,22,23
 698.242 -188.965 698.242 -188.965 677.49 -197.998 c 128,-1,24
 656.738 -207.031 656.738 -207.031 632.812 -207.031 c 0,25,26
 446.777 -207.031 446.777 -207.031 363.281 -14.1602 c 1,27,28
 298.34 -6.83594 298.34 -6.83594 241.699 23.1934 c 128,-1,29
 185.059 53.2227 185.059 53.2227 143.799 99.8535 c 128,-1,30
 102.539 146.484 102.539 146.484 78.6133 210.693 c 128,-1,31
 54.6875 274.902 54.6875 274.902 54.6875 347.168 c 0,0,1
210.938 347.168 m 0,32,33
 210.938 280.762 210.938 280.762 217.773 228.76 c 128,-1,34
 224.609 176.758 224.609 176.758 239.99 132.324 c 128,-1,35
 255.371 87.8906 255.371 87.8906 283.447 59.3262 c 128,-1,36
 311.523 30.7617 311.523 30.7617 351.074 19.5312 c 1,37,38
 374.023 33.6914 374.023 33.6914 410.645 48.0957 c 128,-1,39
 447.266 62.5 447.266 62.5 466.797 62.5 c 0,40,41
 472.168 62.5 472.168 62.5 479.248 55.1758 c 128,-1,42
 486.328 47.8516 486.328 47.8516 491.211 32.7148 c 1,43,44
 599.609 89.3555 599.609 89.3555 599.609 347.168 c 0,45,46
 599.609 408.203 599.609 408.203 594.238 456.543 c 128,-1,47
 588.867 504.883 588.867 504.883 575.195 548.096 c 128,-1,48
 561.523 591.309 561.523 591.309 539.795 619.873 c 128,-1,49
 518.066 648.438 518.066 648.438 484.131 665.039 c 128,-1,50
 450.195 681.641 450.195 681.641 405.273 681.641 c 128,-1,51
 360.352 681.641 360.352 681.641 326.416 665.039 c 128,-1,52
 292.48 648.438 292.48 648.438 270.752 619.873 c 128,-1,53
 249.023 591.309 249.023 591.309 235.352 548.096 c 128,-1,54
 221.68 504.883 221.68 504.883 216.309 456.543 c 128,-1,55
 210.938 408.203 210.938 408.203 210.938 347.168 c 0,32,33
EndSplineSet
Validated: 19457
EndChar

StartChar: R
Encoding: 50 82 50
Width: 719
VWidth: 0
Flags: W
HStem: -20 46<633.626 710.665> 0 29<47 98 235 286> 338 29<235 289> 664 29<47 98 235 371.051>
VStem: 98 137<29 338 367 664> 449 139<420.706 590.106>
DStem2: 432 343 289 338 0.515132 -0.857111<0 311.067>
AnchorPoint: "TopCap" 306 762 basechar 0
AnchorPoint: "Bottom" 398 0 basechar 0
LayerCount: 3
Fore
SplineSet
47 0 m 1x7c
 47 29 l 1
 98 29 l 1x7c
 98 664 l 1
 47 664 l 1
 47 693 l 1
 326 693 l 2
 493 693 588 623 588 506 c 0
 588 402 524 363 432 347 c 1
 432 343 l 1
 545 154 l 2
 603 57 634 38 686 26 c 0
 700 23 714 19 714 12 c 0
 714 -7 680 -20 651 -20 c 0xbc
 524 -20 472 33 408 140 c 2
 289 338 l 1
 235 338 l 1
 235 29 l 1
 286 29 l 1
 286 0 l 1
 47 0 l 1x7c
235 367 m 1
 302 367 l 2
 396 367 449 406 449 508 c 0
 449 607 412 664 293 664 c 2
 235 664 l 1
 235 367 l 1
EndSplineSet
Validated: 19457
Layer: 2
SplineSet
46.875 0 m 1,0,-1
 46.875 29.2969 l 1,1,-1
 97.6562 29.2969 l 1,2,-1
 97.6562 664.062 l 1,3,-1
 46.875 664.062 l 1,4,-1
 46.875 693.359 l 1,5,-1
 325.684 693.359 l 2,6,7
 450.684 693.359 450.684 693.359 519.287 643.799 c 128,-1,8
 587.891 594.238 587.891 594.238 587.891 505.859 c 0,9,10
 587.891 433.105 587.891 433.105 547.363 396.729 c 128,-1,11
 506.836 360.352 506.836 360.352 431.641 347.168 c 1,12,-1
 431.641 342.773 l 1,13,-1
 544.922 153.809 l 2,14,15
 586.426 84.9609 586.426 84.9609 615.234 60.0586 c 128,-1,16
 644.043 35.1562 644.043 35.1562 686.035 25.8789 c 0,17,18
 713.867 20.0195 713.867 20.0195 713.867 12.207 c 0,19,20
 713.867 -1.46484 713.867 -1.46484 694.092 -10.498 c 128,-1,21
 674.316 -19.5312 674.316 -19.5312 650.879 -19.5312 c 0,22,23
 604.004 -19.5312 604.004 -19.5312 568.848 -10.2539 c 128,-1,24
 533.691 -0.976562 533.691 -0.976562 505.371 20.5078 c 128,-1,25
 477.051 41.9922 477.051 41.9922 455.322 69.0918 c 128,-1,26
 433.594 96.1914 433.594 96.1914 407.715 139.648 c 2,27,-1
 289.062 337.891 l 1,28,-1
 235.352 337.891 l 1,29,-1
 235.352 29.2969 l 1,30,-1
 286.133 29.2969 l 1,31,-1
 286.133 0 l 1,32,-1
 46.875 0 l 1,0,-1
235.352 367.188 m 1,33,-1
 302.246 367.188 l 2,34,35
 375 367.188 375 367.188 412.109 400.391 c 128,-1,36
 449.219 433.594 449.219 433.594 449.219 507.812 c 0,37,38
 449.219 585.938 449.219 585.938 414.062 625 c 128,-1,39
 378.906 664.062 378.906 664.062 293.457 664.062 c 2,40,-1
 235.352 664.062 l 1,41,-1
 235.352 367.188 l 1,33,-1
EndSplineSet
Validated: 19457
EndChar

StartChar: S
Encoding: 51 83 51
Width: 605
VWidth: 0
Flags: W
HStem: -16 29<247.957 376.711> 682 29<255.336 367.705>
VStem: 89 121<503.666 621.084> 438 124<83.8613 203.243>
AnchorPoint: "TopCap" 316 762 basechar 0
AnchorPoint: "Bottom" 306 0 basechar 0
LayerCount: 3
Fore
SplineSet
65 68 m 0
 65 72 66 86 66 94 c 2
 73 223 l 2
 73 234 80 239 87 239 c 0
 105 239 115 221 121 204 c 0
 158 102 213 13 308 13 c 0
 398 13 438 65 438 129 c 0
 438 214 377 257 274 311 c 0
 172 364 89 415 89 538 c 0
 89 634 160 711 316 711 c 0
 366 711 426 699 466 681 c 0
 511 661 520 651 520 628 c 0
 520 620 519 605 513 572 c 0
 508 548 500 511 490 511 c 0
 478 511 471 522 462 543 c 0
 434 607 388 682 316 682 c 0
 240 682 210 638 210 577 c 0
 210 494 269 454 349 412 c 0
 480 343 562 289 562 171 c 0
 562 44 460 -16 308 -16 c 0
 249 -16 171 0 116 23 c 0
 71 42 65 45 65 68 c 0
EndSplineSet
Validated: 19457
Layer: 2
SplineSet
65.4297 68.3594 m 0,0,1
 65.4297 78.6133 65.4297 78.6133 66.4062 94.2383 c 2,2,-1
 72.7539 223.145 l 2,3,4
 73.2422 230.957 73.2422 230.957 77.3926 235.107 c 128,-1,5
 81.543 239.258 81.543 239.258 86.9141 239.258 c 0,6,7
 107.422 239.258 107.422 239.258 120.605 204.102 c 0,8,9
 189.453 13.1836 189.453 13.1836 308.105 13.1836 c 0,10,11
 372.559 13.1836 372.559 13.1836 405.029 45.4102 c 128,-1,12
 437.5 77.6367 437.5 77.6367 437.5 128.906 c 0,13,14
 437.5 160.156 437.5 160.156 427.246 185.059 c 128,-1,15
 416.992 209.961 416.992 209.961 393.799 231.934 c 128,-1,16
 370.605 253.906 370.605 253.906 343.75 270.996 c 128,-1,17
 316.895 288.086 316.895 288.086 273.926 310.547 c 0,18,19
 237.793 329.59 237.793 329.59 214.844 343.018 c 128,-1,20
 191.895 356.445 191.895 356.445 165.283 377.686 c 128,-1,21
 138.672 398.926 138.672 398.926 123.779 420.166 c 128,-1,22
 108.887 441.406 108.887 441.406 98.877 471.68 c 128,-1,23
 88.8672 501.953 88.8672 501.953 88.8672 537.598 c 0,24,25
 88.8672 613.77 88.8672 613.77 146.729 662.354 c 128,-1,26
 204.59 710.938 204.59 710.938 316.406 710.938 c 0,27,28
 353.027 710.938 353.027 710.938 394.287 702.393 c 128,-1,29
 435.547 693.848 435.547 693.848 465.82 680.664 c 0,30,31
 499.512 666.016 499.512 666.016 509.766 655.762 c 128,-1,32
 520.02 645.508 520.02 645.508 520.02 627.93 c 0,33,34
 520.02 609.863 520.02 609.863 512.695 572.266 c 0,35,36
 500.488 511.23 500.488 511.23 489.746 511.23 c 0,37,38
 481.445 511.23 481.445 511.23 475.342 518.555 c 128,-1,39
 469.238 525.879 469.238 525.879 461.914 542.969 c 0,40,41
 400.879 681.641 400.879 681.641 316.406 681.641 c 0,42,43
 261.719 681.641 261.719 681.641 235.84 653.564 c 128,-1,44
 209.961 625.488 209.961 625.488 209.961 577.148 c 0,45,46
 209.961 546.875 209.961 546.875 219.727 522.705 c 128,-1,47
 229.492 498.535 229.492 498.535 250 478.76 c 128,-1,48
 270.508 458.984 270.508 458.984 292.236 444.58 c 128,-1,49
 313.965 430.176 313.965 430.176 348.633 412.109 c 0,50,51
 393.555 388.184 393.555 388.184 421.875 371.338 c 128,-1,52
 450.195 354.492 450.195 354.492 479.736 331.543 c 128,-1,53
 509.277 308.594 509.277 308.594 525.635 286.621 c 128,-1,54
 541.992 264.648 541.992 264.648 552.246 235.107 c 128,-1,55
 562.5 205.566 562.5 205.566 562.5 170.898 c 0,56,57
 562.5 78.125 562.5 78.125 494.385 31.0059 c 128,-1,58
 426.27 -16.1133 426.27 -16.1133 308.105 -16.1133 c 0,59,60
 264.16 -16.1133 264.16 -16.1133 210.693 -5.12695 c 128,-1,61
 157.227 5.85938 157.227 5.85938 115.723 22.9492 c 0,62,63
 81.543 37.1094 81.543 37.1094 73.4863 44.1895 c 128,-1,64
 65.4297 51.2695 65.4297 51.2695 65.4297 68.3594 c 0,0,1
EndSplineSet
Validated: 19457
EndChar

StartChar: T
Encoding: 52 84 52
Width: 761
VWidth: 0
Flags: W
HStem: 0 29<253 304 441 492> 470 21G<24 35.5 672 684> 664 29<186.615 304 441 573.817>
VStem: 304 137<29 664> 658 41<470.005 571.293>
AnchorPoint: "TopCap" 376 762 basechar 0
AnchorPoint: "Bottom" 372 0 basechar 0
LayerCount: 3
Fore
SplineSet
12 485 m 0
 12 492 14 505 15 513 c 10
 42 693 l 9
 733 693 l 2
 741 693 744 691 744 687 c 0
 744 683 742 673 741 669 c 0
 724 623 705 534 699 484 c 0
 698 476 690 470 678 470 c 0
 666 470 659 477 658 485 c 0
 654 513 646 566 622 604 c 0
 599 640 568 664 509 664 c 10
 441 664 l 1
 441 29 l 9
 492 29 l 25
 492 0 l 25
 253 0 l 25
 253 29 l 25
 304 29 l 25
 304 664 l 1
 256 664 l 2
 200 664 156 641 117 599 c 0
 91 571 70 526 52 487 c 0
 47 476 42 470 29 470 c 0
 19 470 12 476 12 485 c 0
EndSplineSet
Validated: 19457
Layer: 2
SplineSet
11.7188 485.352 m 0,0,1
 11.7188 496.094 11.7188 496.094 14.6484 512.695 c 2,2,-1
 42.4805 693.359 l 1,3,-1
 732.91 693.359 l 2,4,5
 744.141 693.359 744.141 693.359 744.141 686.523 c 128,-1,6
 744.141 679.688 744.141 679.688 740.723 669.434 c 0,7,8
 729.004 636.719 729.004 636.719 716.553 580.322 c 128,-1,9
 704.102 523.926 704.102 523.926 699.219 483.887 c 0,10,11
 697.266 469.727 697.266 469.727 678.223 469.727 c 0,12,13
 660.156 469.727 660.156 469.727 658.203 484.863 c 0,14,15
 646.973 565.43 646.973 565.43 622.07 604.004 c 0,16,17
 603.516 633.301 603.516 633.301 577.148 648.682 c 128,-1,18
 550.781 664.062 550.781 664.062 509.277 664.062 c 2,19,-1
 441.406 664.062 l 1,20,-1
 441.406 29.2969 l 1,21,-1
 492.188 29.2969 l 1,22,-1
 492.188 0 l 1,23,-1
 252.93 0 l 1,24,-1
 252.93 29.2969 l 1,25,-1
 303.711 29.2969 l 1,26,-1
 303.711 664.062 l 1,27,-1
 256.348 664.062 l 2,28,29
 178.223 664.062 178.223 664.062 117.188 598.633 c 0,30,31
 90.332 569.824 90.332 569.824 52.2461 487.305 c 0,32,33
 44.4336 469.727 44.4336 469.727 29.2969 469.727 c 0,34,35
 21.9727 469.727 21.9727 469.727 16.8457 474.121 c 128,-1,36
 11.7188 478.516 11.7188 478.516 11.7188 485.352 c 0,0,1
EndSplineSet
Validated: 19457
EndChar

StartChar: U
Encoding: 53 85 53
Width: 708
VWidth: 0
Flags: W
HStem: -17 30<307.348 449.257> 664 29<43 94 231 282 479 540.228 626.72 682>
VStem: 94 137<113.908 664> 562 34<120.711 638.368>
AnchorPoint: "Bottom" 372 0 basechar 0
AnchorPoint: "TopCap" 377 762 basechar 0
LayerCount: 3
Fore
SplineSet
43 664 m 25
 43 693 l 25
 282 693 l 25
 282 664 l 25
 231 664 l 25
 231 176 l 18
 231 60 299 13 368 13 c 0
 500 13 562 99 562 206 c 18
 562 600 l 2
 562 650 528 664 479 664 c 1
 479 693 l 1
 682 693 l 1
 682 664 l 1
 645 664 596 645 596 599 c 2
 596 192 l 18
 596 78 512 -17 370 -17 c 0
 199 -17 94 48 94 243 c 10
 94 664 l 25
 43 664 l 25
EndSplineSet
Validated: 19457
Layer: 2
SplineSet
42.9688 664.062 m 25,0,-1
 42.9688 693.359 l 1,1,-1
 282.227 693.359 l 1,2,-1
 282.227 664.062 l 1,3,-1
 231.445 664.062 l 1,4,-1
 231.445 175.781 l 2,5,6
 231.445 94.7266 231.445 94.7266 271.24 53.7109 c 128,-1,7
 311.035 12.6953 311.035 12.6953 368.164 12.6953 c 0,8,9
 416.504 12.6953 416.504 12.6953 454.102 27.832 c 128,-1,10
 491.699 42.9688 491.699 42.9688 515.137 69.5801 c 128,-1,11
 538.574 96.1914 538.574 96.1914 550.537 130.859 c 128,-1,12
 562.5 165.527 562.5 165.527 562.5 206.055 c 2,13,-1
 562.5 599.609 l 2,14,15
 562.5 635.254 562.5 635.254 540.771 649.658 c 128,-1,16
 519.043 664.062 519.043 664.062 479.004 664.062 c 1,17,-1
 479.004 693.359 l 1,18,-1
 681.641 693.359 l 1,19,-1
 681.641 664.062 l 1,20,21
 661.621 664.062 661.621 664.062 642.822 657.715 c 128,-1,22
 624.023 651.367 624.023 651.367 609.863 635.742 c 128,-1,23
 595.703 620.117 595.703 620.117 595.703 598.633 c 2,24,-1
 595.703 191.895 l 2,25,26
 595.703 148.926 595.703 148.926 580.078 111.084 c 128,-1,27
 564.453 73.2422 564.453 73.2422 536.133 44.9219 c 128,-1,28
 507.812 16.6016 507.812 16.6016 464.6 0 c 128,-1,29
 421.387 -16.6016 421.387 -16.6016 369.629 -16.6016 c 0,30,31
 303.223 -16.6016 303.223 -16.6016 253.906 -3.17383 c 128,-1,32
 204.59 10.2539 204.59 10.2539 167.725 40.0391 c 128,-1,33
 130.859 69.8242 130.859 69.8242 112.305 120.605 c 128,-1,34
 93.75 171.387 93.75 171.387 93.75 243.164 c 2,35,-1
 93.75 664.062 l 1,36,-1
 42.9688 664.062 l 25,0,-1
EndSplineSet
Validated: 19457
EndChar

StartChar: V
Encoding: 54 86 54
Width: 683
VWidth: 0
Flags: W
HStem: 664 29<12 59 205 259 516 559.77 634.03 678>
DStem2: 205 664 59 664 0.36592 -0.930646<0 532.955> 400 168 378 15 0.354313 0.935127<0 489.241>
AnchorPoint: "Bottom" 345 0 basechar 0
LayerCount: 3
Fore
SplineSet
12 664 m 1
 12 693 l 1
 259 693 l 1
 259 664 l 1
 205 664 l 1
 400 168 l 1
 560 594 l 2
 564 604 568 618 568 628 c 0
 568 645 556 664 516 664 c 1
 516 693 l 1
 678 693 l 1
 678 664 l 1
 631 664 611 629 597 593 c 2
 378 15 l 2
 373 0 363 -14 346 -14 c 0
 329 -14 320 0 313 18 c 2
 59 664 l 1
 12 664 l 1
EndSplineSet
Validated: 19457
Layer: 2
SplineSet
11.7188 664.062 m 1,0,-1
 11.7188 693.359 l 1,1,-1
 258.789 693.359 l 1,2,-1
 258.789 664.062 l 1,3,-1
 204.59 664.062 l 1,4,-1
 400.391 168.457 l 1,5,-1
 560.059 593.75 l 2,6,7
 567.871 613.281 567.871 613.281 567.871 628.418 c 0,8,9
 567.871 643.066 567.871 643.066 555.42 653.564 c 128,-1,10
 542.969 664.062 542.969 664.062 515.625 664.062 c 1,11,-1
 515.625 693.359 l 1,12,-1
 677.734 693.359 l 1,13,-1
 677.734 664.062 l 1,14,15
 645.508 664.062 645.508 664.062 627.441 645.02 c 128,-1,16
 609.375 625.977 609.375 625.977 596.68 593.262 c 2,17,-1
 377.93 14.6484 l 2,18,19
 367.188 -14.1602 367.188 -14.1602 345.703 -14.1602 c 0,20,21
 325.195 -14.1602 325.195 -14.1602 312.988 17.5781 c 2,22,-1
 58.5938 664.062 l 1,23,-1
 11.7188 664.062 l 1,0,-1
EndSplineSet
Validated: 19457
EndChar

StartChar: W
Encoding: 55 87 55
Width: 1034
VWidth: 0
Flags: W
HStem: 664 29<12 59 203 253 435 482 625 676 873 918.274 990.787 1028>
DStem2: 203 664 59 664 0.318428 -0.947947<0 505.015> 363 185 344 15 0.308289 0.951293<0 400.071> 625 664 501 608 0.318428 -0.947947<0 13.6 69.5729 505.334> 786 185 767 15 0.307101 0.951677<0 466.464>
AnchorPoint: "Bottom" 533 0 basechar 0
AnchorPoint: "TopCap" 563 762 basechar 0
LayerCount: 3
Fore
SplineSet
12 664 m 1
 12 693 l 1
 253 693 l 1
 253 664 l 1
 203 664 l 1
 363 185 l 1
 501 608 l 1
 482 664 l 1
 435 664 l 1
 435 693 l 1
 676 693 l 1
 676 664 l 1
 625 664 l 1
 786 185 l 1
 917 589 l 2
 920 600 925 616 925 631 c 0
 925 648 912 664 873 664 c 1
 873 693 l 1
 1028 693 l 1
 1028 664 l 1
 990 664 966 630 949 579 c 2
 767 15 l 1
 762 0 750 -14 733 -14 c 0
 716 -14 706 0 699 18 c 1
 519 555 l 1
 344 15 l 2
 339 0 327 -14 310 -14 c 0
 293 -14 283 0 276 18 c 1
 59 664 l 1
 12 664 l 1
EndSplineSet
Validated: 19457
Layer: 2
SplineSet
11.7188 664.062 m 1,0,-1
 11.7188 693.359 l 1,1,-1
 252.93 693.359 l 1,2,-1
 252.93 664.062 l 1,3,-1
 202.637 664.062 l 1,4,-1
 363.281 185.059 l 1,5,-1
 500.977 607.91 l 1,6,-1
 481.934 664.062 l 1,7,-1
 434.57 664.062 l 1,8,-1
 434.57 693.359 l 1,9,-1
 675.781 693.359 l 1,10,-1
 675.781 664.062 l 1,11,-1
 625.488 664.062 l 1,12,-1
 786.133 185.059 l 1,13,-1
 916.504 589.355 l 1,14,15
 924.805 616.699 924.805 616.699 924.805 631.348 c 0,16,17
 924.805 645.508 924.805 645.508 912.354 654.785 c 128,-1,18
 899.902 664.062 899.902 664.062 873.047 664.062 c 1,19,-1
 873.047 693.359 l 1,20,-1
 1028.32 693.359 l 1,21,-1
 1028.32 664.062 l 1,22,23
 977.051 664.062 977.051 664.062 949.219 578.613 c 2,24,-1
 766.602 14.6484 l 1,25,26
 755.859 -14.1602 755.859 -14.1602 732.91 -14.1602 c 0,27,28
 711.426 -14.1602 711.426 -14.1602 699.219 17.5781 c 1,29,-1
 518.555 555.176 l 1,30,-1
 343.75 14.6484 l 2,31,32
 339.844 2.44141 339.844 2.44141 331.055 -5.85938 c 128,-1,33
 322.266 -14.1602 322.266 -14.1602 310.059 -14.1602 c 0,34,35
 288.574 -14.1602 288.574 -14.1602 276.367 17.5781 c 1,36,-1
 59.082 664.062 l 1,37,-1
 11.7188 664.062 l 1,0,-1
EndSplineSet
Validated: 19457
EndChar

StartChar: X
Encoding: 56 88 56
Width: 687
VWidth: 0
Flags: W
HStem: 0 29<27 71.0156 152.33 194 415 463 605 656> 664 29<47 98 240 292 478 522.205 598.45 645>
DStem2: 240 664 98 664 0.498343 -0.86698<0 271.017 308.228 323.418 359.264 661.663> 125 100 162 93 0.60633 0.795213<-18.4336 265.269 413.208 670.055>
AnchorPoint: "Bottom" 330 0 basechar 0
LayerCount: 3
Fore
SplineSet
27 0 m 1
 27 29 l 1
 71 29 101 68 125 100 c 2
 294 322 l 1
 98 664 l 1
 47 664 l 1
 47 693 l 1
 292 693 l 1
 292 664 l 1
 240 664 l 1
 375 429 l 1
 507 601 l 2
 514 611 524 626 524 639 c 0
 524 653 518 665 478 665 c 1
 478 694 l 1
 645 694 l 1
 645 665 l 1
 602 665 567 625 543 594 c 2
 394 397 l 1
 605 29 l 1
 656 29 l 1
 656 0 l 1
 415 0 l 1
 415 29 l 1
 463 29 l 1
 312 291 l 1
 162 93 l 2
 154 82 149 69 149 58 c 0
 149 44 154 29 194 29 c 1
 194 0 l 1
 27 0 l 1
EndSplineSet
Validated: 19457
Layer: 2
SplineSet
27.3438 0 m 1,0,-1
 27.3438 29.2969 l 1,1,2
 47.8516 29.2969 47.8516 29.2969 67.8711 41.5039 c 128,-1,3
 87.8906 53.7109 87.8906 53.7109 98.6328 66.1621 c 128,-1,4
 109.375 78.6133 109.375 78.6133 125.488 100.098 c 2,5,-1
 294.434 322.266 l 1,6,-1
 97.6562 664.062 l 1,7,-1
 46.875 664.062 l 1,8,-1
 46.875 693.359 l 1,9,-1
 291.504 693.359 l 1,10,-1
 291.504 664.062 l 1,11,-1
 239.746 664.062 l 1,12,-1
 375.488 428.711 l 1,13,-1
 506.836 601.074 l 2,14,15
 523.926 624.023 523.926 624.023 523.926 639.16 c 0,16,17
 523.926 651.367 523.926 651.367 514.648 657.959 c 128,-1,18
 505.371 664.551 505.371 664.551 478.027 664.551 c 1,19,-1
 478.027 693.848 l 1,20,-1
 645.02 693.848 l 1,21,-1
 645.02 664.551 l 1,22,23
 629.395 664.551 629.395 664.551 614.502 658.203 c 128,-1,24
 599.609 651.855 599.609 651.855 586.426 640.381 c 128,-1,25
 573.242 628.906 573.242 628.906 563.721 618.408 c 128,-1,26
 554.199 607.91 554.199 607.91 543.457 593.75 c 2,27,-1
 393.555 396.973 l 1,28,-1
 605.469 29.2969 l 1,29,-1
 656.25 29.2969 l 1,30,-1
 656.25 0 l 1,31,-1
 414.551 0 l 1,32,-1
 414.551 29.2969 l 1,33,-1
 463.379 29.2969 l 1,34,-1
 312.5 291.016 l 1,35,-1
 161.621 92.7734 l 1,36,37
 148.926 75.1953 148.926 75.1953 148.926 58.1055 c 0,38,39
 148.926 44.9219 148.926 44.9219 158.203 37.1094 c 128,-1,40
 167.48 29.2969 167.48 29.2969 194.336 29.2969 c 1,41,-1
 194.336 0 l 1,42,-1
 27.3438 0 l 1,0,-1
EndSplineSet
Validated: 19457
EndChar

StartChar: Y
Encoding: 57 89 57
Width: 693
VWidth: 0
Flags: W
HStem: 0 29<239 290 428 479> 664 29<14 61 214 268 517 560.77 641.92 688>
VStem: 290 138<29 273>
DStem2: 214 664 61 664 0.50538 -0.862897<0 375.802> 407 335 428 298 0.49264 0.870233<0 334.373>
AnchorPoint: "Bottom" 358 0 basechar 0
AnchorPoint: "TopCap" 379 762 basechar 0
LayerCount: 3
Fore
SplineSet
14 664 m 1
 14 693 l 1
 268 693 l 1
 268 664 l 1
 214 664 l 1
 407 335 l 1
 556 594 l 2
 561 604 569 618 569 628 c 0
 569 645 557 664 517 664 c 1
 517 693 l 1
 688 693 l 1
 688 664 l 1
 641 664 616 628 595 593 c 2
 428 298 l 1
 428 29 l 1
 479 29 l 1
 479 0 l 1
 239 0 l 1
 239 29 l 1
 290 29 l 1
 290 273 l 1
 61 664 l 1
 14 664 l 1
EndSplineSet
Validated: 19457
Layer: 2
SplineSet
13.6719 664.062 m 1,0,-1
 13.6719 693.359 l 1,1,-1
 268.066 693.359 l 1,2,-1
 268.066 664.062 l 1,3,-1
 213.867 664.062 l 1,4,-1
 407.227 334.961 l 1,5,-1
 555.664 593.75 l 1,6,7
 569.336 618.652 569.336 618.652 569.336 628.418 c 0,8,9
 569.336 643.066 569.336 643.066 556.885 653.564 c 128,-1,10
 544.434 664.062 544.434 664.062 517.09 664.062 c 1,11,-1
 517.09 693.359 l 1,12,-1
 687.5 693.359 l 1,13,-1
 687.5 664.062 l 1,14,15
 655.762 664.062 655.762 664.062 635.254 645.508 c 128,-1,16
 614.746 626.953 614.746 626.953 594.727 593.262 c 1,17,-1
 427.734 298.34 l 1,18,-1
 427.734 29.2969 l 1,19,-1
 478.516 29.2969 l 1,20,-1
 478.516 0 l 1,21,-1
 239.258 0 l 1,22,-1
 239.258 29.2969 l 1,23,-1
 290.039 29.2969 l 1,24,-1
 290.039 273.438 l 1,25,-1
 60.5469 664.062 l 1,26,-1
 13.6719 664.062 l 1,0,-1
EndSplineSet
Validated: 19457
EndChar

StartChar: Z
Encoding: 58 90 58
Width: 661
VWidth: 0
Flags: W
HStem: 0 29<200 424.542> 664 29<235.109 466>
DStem2: 47 29 200 29 0.551665 0.834065<84.4048 760.779>
AnchorPoint: "Bottom" 343 0 basechar 0
AnchorPoint: "TopCap" 363 762 basechar 0
LayerCount: 3
Fore
SplineSet
47 0 m 1
 47 29 l 1
 466 664 l 1
 308 664 l 2
 252 664 217 648 181 604 c 0
 157 574 140 543 124 509 c 0
 119 498 114 492 101 492 c 0
 91 492 83 498 83 507 c 0
 83 514 85 527 86 535 c 10
 107 693 l 9
 620 693 l 25
 620 664 l 25
 200 29 l 1
 348 29 l 18
 404 29 464 52 506 95 c 0
 534 123 564 178 582 220 c 0
 586 231 591 238 604 238 c 0
 614 238 622 231 622 222 c 0
 622 215 620 203 619 195 c 10
 579 0 l 9
 47 0 l 1
EndSplineSet
Validated: 19457
Layer: 2
SplineSet
46.875 0 m 1,0,-1
 46.875 29.2969 l 1,1,-1
 465.82 664.062 l 1,2,-1
 307.617 664.062 l 2,3,4
 265.625 664.062 265.625 664.062 236.572 650.391 c 128,-1,5
 207.52 636.719 207.52 636.719 180.664 604.004 c 0,6,7
 150.391 566.895 150.391 566.895 123.535 509.277 c 0,8,9
 115.723 491.699 115.723 491.699 100.586 491.699 c 0,10,11
 93.2617 491.699 93.2617 491.699 88.1348 496.094 c 128,-1,12
 83.0078 500.488 83.0078 500.488 83.0078 507.324 c 0,13,14
 83.0078 518.066 83.0078 518.066 85.9375 534.668 c 1,15,-1
 106.934 693.359 l 1,16,-1
 619.629 693.359 l 1,17,-1
 619.629 664.062 l 1,18,-1
 200.195 29.2969 l 1,19,-1
 347.656 29.2969 l 2,20,21
 391.113 29.2969 391.113 29.2969 433.105 46.1426 c 128,-1,22
 475.098 62.9883 475.098 62.9883 505.859 94.7266 c 0,23,24
 525.391 114.746 525.391 114.746 546.143 150.146 c 128,-1,25
 566.895 185.547 566.895 185.547 581.543 220.215 c 0,26,27
 588.867 237.793 588.867 237.793 604.492 237.793 c 0,28,29
 611.816 237.793 611.816 237.793 616.943 233.398 c 128,-1,30
 622.07 229.004 622.07 229.004 622.07 222.168 c 0,31,32
 622.07 211.426 622.07 211.426 619.141 194.824 c 2,33,-1
 579.102 0 l 1,34,-1
 46.875 0 l 1,0,-1
EndSplineSet
Validated: 19457
EndChar

StartChar: bracketleft
Encoding: 59 91 59
Width: 395
VWidth: 1014
Flags: W
HStem: -169 29<190.215 362.395> 664 29<190.215 362.395>
VStem: 93 97<-140 664>
LayerCount: 3
Fore
SplineSet
93 -146 m 2
 93 670 l 2
 93 686 98 693 114 693 c 2
 358 693 l 2
 359 693 364 691 364 687 c 0
 364 679 358 664 351 664 c 2
 208 664 l 2
 196 664 190 658 190 646 c 2
 190 -122 l 2
 190 -134 196 -140 208 -140 c 2
 358 -140 l 2
 359 -140 364 -142 364 -146 c 0
 364 -154 358 -169 351 -169 c 2
 114 -169 l 2
 98 -169 93 -162 93 -146 c 2
EndSplineSet
Validated: 19457
Layer: 2
SplineSet
92.7734 -145.508 m 2,0,-1
 92.7734 669.922 l 2,1,2
 92.7734 693.359 92.7734 693.359 114.258 693.359 c 2,3,-1
 358.398 693.359 l 2,4,5
 359.863 693.359 359.863 693.359 362.061 691.65 c 128,-1,6
 364.258 689.941 364.258 689.941 364.258 687.012 c 0,7,8
 364.258 680.176 364.258 680.176 360.107 672.119 c 128,-1,9
 355.957 664.062 355.957 664.062 350.586 664.062 c 2,10,-1
 208.008 664.062 l 2,11,12
 190.43 664.062 190.43 664.062 190.43 646.484 c 2,13,-1
 190.43 -122.07 l 2,14,15
 190.43 -139.648 190.43 -139.648 208.008 -139.648 c 2,16,-1
 358.398 -139.648 l 2,17,18
 359.863 -139.648 359.863 -139.648 362.061 -141.357 c 128,-1,19
 364.258 -143.066 364.258 -143.066 364.258 -145.996 c 0,20,21
 364.258 -152.832 364.258 -152.832 360.107 -160.889 c 128,-1,22
 355.957 -168.945 355.957 -168.945 350.586 -168.945 c 2,23,-1
 114.258 -168.945 l 2,24,25
 92.7734 -168.945 92.7734 -168.945 92.7734 -145.508 c 2,0,-1
EndSplineSet
Validated: 19457
EndChar

StartChar: backslash
Encoding: 60 92 60
Width: 484
VWidth: 1014
Flags: W
DStem2: 449 -58 399 -99 0.434282 -0.900777<-836.225 13.277>
LayerCount: 3
Fore
SplineSet
31 669 m 0
 31 677 35 688 61 703 c 0
 65 705 70 708 72 708 c 0
 77 708 82 703 85 697 c 2
 449 -58 l 2
 451 -62 453 -67 453 -71 c 0
 453 -79 449 -90 423 -105 c 0
 419 -107 414 -109 412 -109 c 0
 407 -109 402 -105 399 -99 c 2
 35 656 l 2
 33 660 31 665 31 669 c 0
EndSplineSet
Validated: 19457
Layer: 2
SplineSet
31.25 669.434 m 0,0,1
 31.25 685.547 31.25 685.547 61.0352 703.125 c 0,2,3
 68.8477 707.52 68.8477 707.52 72.2656 707.52 c 0,4,5
 80.0781 707.52 80.0781 707.52 84.9609 696.777 c 2,6,-1
 449.219 -58.1055 l 2,7,8
 453.125 -66.8945 453.125 -66.8945 453.125 -71.2891 c 0,9,10
 453.125 -87.4023 453.125 -87.4023 423.34 -104.98 c 0,11,12
 415.527 -109.375 415.527 -109.375 412.109 -109.375 c 0,13,14
 404.297 -109.375 404.297 -109.375 399.414 -98.6328 c 2,15,-1
 35.1562 656.25 l 2,16,17
 31.25 665.039 31.25 665.039 31.25 669.434 c 0,0,1
EndSplineSet
Validated: 19457
EndChar

StartChar: bracketright
Encoding: 61 93 61
Width: 395
VWidth: 1014
Flags: W
HStem: -169 29<32.8372 204.818> 664 29<32.8372 204.818>
VStem: 205 98<-139.996 663.996>
LayerCount: 3
Fore
SplineSet
31 -146 m 0
 31 -142 36 -140 37 -140 c 2
 188 -140 l 2
 200 -140 205 -134 205 -122 c 2
 205 646 l 2
 205 658 200 664 188 664 c 2
 45 664 l 2
 38 664 31 679 31 687 c 0
 31 691 36 693 37 693 c 2
 281 693 l 2
 297 693 303 686 303 670 c 2
 303 -146 l 2
 303 -162 297 -169 281 -169 c 2
 45 -169 l 2
 38 -169 31 -154 31 -146 c 0
EndSplineSet
Validated: 19457
Layer: 2
SplineSet
31.25 -145.996 m 0,0,1
 31.25 -143.066 31.25 -143.066 33.4473 -141.357 c 128,-1,2
 35.6445 -139.648 35.6445 -139.648 37.1094 -139.648 c 2,3,-1
 187.5 -139.648 l 2,4,5
 205.078 -139.648 205.078 -139.648 205.078 -122.07 c 2,6,-1
 205.078 646.484 l 2,7,8
 205.078 664.062 205.078 664.062 187.5 664.062 c 2,9,-1
 44.9219 664.062 l 2,10,11
 39.5508 664.062 39.5508 664.062 35.4004 672.119 c 128,-1,12
 31.25 680.176 31.25 680.176 31.25 687.012 c 0,13,14
 31.25 689.941 31.25 689.941 33.4473 691.65 c 128,-1,15
 35.6445 693.359 35.6445 693.359 37.1094 693.359 c 2,16,-1
 281.25 693.359 l 2,17,18
 302.734 693.359 302.734 693.359 302.734 669.922 c 2,19,-1
 302.734 -145.508 l 2,20,21
 302.734 -168.945 302.734 -168.945 281.25 -168.945 c 2,22,-1
 44.9219 -168.945 l 2,23,24
 39.5508 -168.945 39.5508 -168.945 35.4004 -160.889 c 128,-1,25
 31.25 -152.832 31.25 -152.832 31.25 -145.996 c 0,0,1
EndSplineSet
Validated: 19457
EndChar

StartChar: asciicircum
Encoding: 62 94 62
Width: 640
VWidth: 1014
Flags: W
DStem2: 74 345 319 623 0.535233 0.844704<-11.2741 365.96> 356 678 321 623 0.533419 -0.845851<27.8521 404.966>
LayerCount: 3
Fore
SplineSet
70 334 m 0
 70 338 72 341 74 345 c 2
 285 678 l 2
 294 693 304 707 320 707 c 0
 336 707 347 693 356 678 c 2
 566 345 l 2
 568 341 570 338 570 334 c 0
 570 329 565 325 545 313 c 0
 541 310 532 307 528 307 c 0
 521 307 517 312 514 317 c 2
 321 623 l 25
 319 623 l 25
 126 317 l 2
 123 312 119 307 112 307 c 0
 108 307 99 310 95 313 c 0
 75 325 70 329 70 334 c 0
EndSplineSet
Validated: 19457
Layer: 2
SplineSet
70.3125 333.984 m 0,0,1
 70.3125 338.379 70.3125 338.379 74.2188 344.727 c 2,2,-1
 284.668 678.223 l 2,3,4
 302.734 707.031 302.734 707.031 320.312 707.031 c 0,5,6
 338.379 707.031 338.379 707.031 356.445 678.223 c 2,7,-1
 566.406 344.727 l 2,8,9
 570.312 338.379 570.312 338.379 570.312 333.984 c 0,10,11
 570.312 330.566 570.312 330.566 565.674 326.904 c 128,-1,12
 561.035 323.242 561.035 323.242 545.41 313.477 c 0,13,14
 535.156 306.641 535.156 306.641 528.32 306.641 c 0,15,16
 520.508 306.641 520.508 306.641 514.16 316.895 c 2,17,-1
 321.289 622.559 l 1,18,-1
 319.336 622.559 l 1,19,-1
 126.465 316.895 l 2,20,21
 120.117 306.641 120.117 306.641 112.305 306.641 c 0,22,23
 105.469 306.641 105.469 306.641 95.2148 313.477 c 0,24,25
 79.5898 323.242 79.5898 323.242 74.9512 326.904 c 128,-1,26
 70.3125 330.566 70.3125 330.566 70.3125 333.984 c 0,0,1
EndSplineSet
Validated: 19457
EndChar

StartChar: underscore
Encoding: 63 95 63
Width: 500
VWidth: 1014
Flags: W
HStem: -185 60<-12.3524 512.035>
LayerCount: 3
Fore
SplineSet
-21 -173 m 0
 -21 -167 -19 -161 -13 -148 c 0
 -6 -132 -2 -125 5 -125 c 2
 504 -125 l 2
 511 -125 521 -130 521 -136 c 0
 521 -142 519 -148 513 -161 c 0
 506 -177 502 -185 495 -185 c 2
 -4 -185 l 2
 -11 -185 -21 -179 -21 -173 c 0
EndSplineSet
Validated: 19457
Layer: 2
SplineSet
-20.5078 -173.34 m 0,0,1
 -20.5078 -166.016 -20.5078 -166.016 -12.6953 -148.438 c 0,2,3
 -6.83594 -135.254 -6.83594 -135.254 -3.41797 -130.127 c 128,-1,4
 0 -125 0 -125 4.88281 -125 c 2,5,-1
 504.395 -125 l 2,6,7
 510.254 -125 510.254 -125 515.381 -128.418 c 128,-1,8
 520.508 -131.836 520.508 -131.836 520.508 -136.23 c 0,9,10
 520.508 -143.555 520.508 -143.555 512.695 -161.133 c 0,11,12
 506.836 -174.316 506.836 -174.316 503.418 -179.443 c 128,-1,13
 500 -184.57 500 -184.57 495.117 -184.57 c 2,14,-1
 -4.39453 -184.57 l 2,15,16
 -10.2539 -184.57 -10.2539 -184.57 -15.3809 -181.152 c 128,-1,17
 -20.5078 -177.734 -20.5078 -177.734 -20.5078 -173.34 c 0,0,1
EndSplineSet
Validated: 19457
EndChar

StartChar: grave
Encoding: 64 96 64
Width: 429
VWidth: 0
Flags: W
HStem: 536 257
VStem: 86 173
LayerCount: 3
Fore
SplineSet
86 760 m 0
 86 774 101 793 121 793 c 0
 142 793 200 769 207 744 c 10
 257 566 l 18
 258 563 259 557 259 555 c 0
 259 544 251 536 240 536 c 0
 228 536 222 544 215 554 c 26
 98 725 l 26
 90 737 86 751 86 760 c 0
EndSplineSet
Validated: 19457
Layer: 2
SplineSet
85.9375 760.254 m 0,0,1
 85.9375 771.484 85.9375 771.484 96.6797 782.227 c 128,-1,2
 107.422 792.969 107.422 792.969 121.094 792.969 c 0,3,4
 139.648 792.969 139.648 792.969 170.898 777.1 c 128,-1,5
 202.148 761.23 202.148 761.23 207.031 743.652 c 2,6,-1
 256.836 565.918 l 2,7,8
 258.789 559.082 258.789 559.082 258.789 554.688 c 0,9,10
 258.789 546.387 258.789 546.387 253.418 541.26 c 128,-1,11
 248.047 536.133 248.047 536.133 239.746 536.133 c 0,12,13
 227.539 536.133 227.539 536.133 214.844 554.199 c 2,14,-1
 98.1445 724.609 l 2,15,16
 85.9375 742.676 85.9375 742.676 85.9375 760.254 c 0,0,1
EndSplineSet
Validated: 19457
EndChar

StartChar: a
Encoding: 65 97 65
Width: 544
VWidth: 0
Flags: W
HStem: -18 62<127 234.383 399.5 480.242> 234 27<256.901 310> 408 66<175.868 279.553>
VStem: 43 109<59.1112 146.983> 310 112<82.8929 234 256.841 376.67>
AnchorPoint: "Bottom" 242 0 basechar 0
AnchorPoint: "Acute" 260 557 basechar 0
AnchorPoint: "Grave" 260 547 basechar 0
AnchorPoint: "Top" 260 537 basechar 0
LayerCount: 3
Fore
SplineSet
43 79 m 0
 43 143 90 181 127 202 c 0
 184 234 240 246 310 261 c 1
 310 328 l 2
 310 385 252 408 213 408 c 0
 192 408 156 389 126 365 c 0
 113 355 88 334 74 334 c 0
 63 334 57 342 57 353 c 0
 57 386 184 474 250 474 c 0
 341 474 422 429 422 348 c 2
 422 107 l 2
 422 70 443 44 467 44 c 0
 479 44 490 52 501 64 c 0
 509 73 518 81 525 81 c 0
 531 81 539 74 539 63 c 0
 539 47 471 -18 419 -18 c 0
 380 -18 339 13 325 55 c 1
 322 55 l 1
 278 19 195 -20 149 -20 c 0
 105 -20 43 6 43 79 c 0
152 108 m 0
 152 64 185 44 218 44 c 0
 252 44 286 55 317 82 c 1
 313 101 310 123 310 155 c 2
 310 234 l 1
 270 226 231 216 197 195 c 0
 163 174 152 137 152 108 c 0
EndSplineSet
Validated: 19457
Layer: 2
SplineSet
42.9688 78.6133 m 0,0,1
 42.9688 154.785 42.9688 154.785 126.953 202.148 c 0,2,3
 153.809 217.285 153.809 217.285 186.035 228.76 c 128,-1,4
 218.262 240.234 218.262 240.234 241.943 246.094 c 128,-1,5
 265.625 251.953 265.625 251.953 309.57 261.23 c 1,6,-1
 309.57 327.637 l 2,7,8
 309.57 354.492 309.57 354.492 292.969 373.535 c 128,-1,9
 276.367 392.578 276.367 392.578 255.371 400.391 c 128,-1,10
 234.375 408.203 234.375 408.203 212.891 408.203 c 0,11,12
 197.266 408.203 197.266 408.203 173.096 395.996 c 128,-1,13
 148.926 383.789 148.926 383.789 125.977 364.746 c 0,14,15
 88.3789 334.473 88.3789 334.473 73.7305 334.473 c 0,16,17
 57.1289 334.473 57.1289 334.473 57.1289 353.027 c 0,18,19
 57.1289 369.141 57.1289 369.141 91.0645 398.193 c 128,-1,20
 125 427.246 125 427.246 171.875 450.439 c 128,-1,21
 218.75 473.633 218.75 473.633 250 473.633 c 0,22,23
 296.387 473.633 296.387 473.633 334.961 459.229 c 128,-1,24
 373.535 444.824 373.535 444.824 397.705 415.771 c 128,-1,25
 421.875 386.719 421.875 386.719 421.875 347.656 c 2,26,-1
 421.875 106.934 l 2,27,28
 421.875 80.0781 421.875 80.0781 435.059 62.0117 c 128,-1,29
 448.242 43.9453 448.242 43.9453 466.797 43.9453 c 0,30,31
 482.91 43.9453 482.91 43.9453 501.465 63.9648 c 1,32,33
 516.113 80.5664 516.113 80.5664 525.391 80.5664 c 0,34,35
 530.273 80.5664 530.273 80.5664 534.668 75.6836 c 128,-1,36
 539.062 70.8008 539.062 70.8008 539.062 62.9883 c 0,37,38
 539.062 54.6875 539.062 54.6875 520.264 35.6445 c 128,-1,39
 501.465 16.6016 501.465 16.6016 472.168 -0.488281 c 128,-1,40
 442.871 -17.5781 442.871 -17.5781 418.945 -17.5781 c 0,41,42
 389.648 -17.5781 389.648 -17.5781 362.793 2.92969 c 128,-1,43
 335.938 23.4375 335.938 23.4375 325.195 54.6875 c 1,44,-1
 321.777 54.6875 l 1,45,46
 287.109 26.8555 287.109 26.8555 234.619 3.66211 c 128,-1,47
 182.129 -19.5312 182.129 -19.5312 148.926 -19.5312 c 0,48,49
 134.766 -19.5312 134.766 -19.5312 120.85 -16.3574 c 128,-1,50
 106.934 -13.1836 106.934 -13.1836 92.5293 -5.85938 c 128,-1,51
 78.125 1.46484 78.125 1.46484 67.3828 12.4512 c 128,-1,52
 56.6406 23.4375 56.6406 23.4375 49.8047 40.5273 c 128,-1,53
 42.9688 57.6172 42.9688 57.6172 42.9688 78.6133 c 0,0,1
152.344 107.91 m 0,54,55
 152.344 76.6602 152.344 76.6602 171.387 60.3027 c 128,-1,56
 190.43 43.9453 190.43 43.9453 217.773 43.9453 c 0,57,58
 272.461 43.9453 272.461 43.9453 316.895 82.0312 c 1,59,60
 309.57 113.77 309.57 113.77 309.57 154.785 c 2,61,-1
 309.57 234.375 l 1,62,63
 236.816 220.215 236.816 220.215 197.266 195.312 c 0,64,65
 173.828 180.664 173.828 180.664 163.086 156.738 c 128,-1,66
 152.344 132.812 152.344 132.812 152.344 107.91 c 0,54,55
EndSplineSet
Validated: 19457
EndChar

StartChar: b
Encoding: 66 98 66
Width: 600
VWidth: 0
Flags: W
HStem: -12 43<234.927 378.478> 412 58<279.574 429> 713 30<9.01468 72.4302> 733 20G<172 190.5>
VStem: 90 112<61.2089 384.459 407 702.717> 437 117<153.489 324.891>
AnchorPoint: "Bottom" 296 0 basechar 0
LayerCount: 3
Fore
SplineSet
9 727 m 0xec
 9 739 12 743 25 743 c 0xec
 39 743 80 746 105 748 c 0
 137 751 164 753 180 753 c 0xdc
 201 753 202 739 202 725 c 2
 202 407 l 1
 205 405 l 1
 242 431 304 470 375 470 c 0
 483 470 554 387 554 259 c 0
 554 94 409 -12 296 -12 c 0
 261 -12 227 -1 195 10 c 0
 174 17 143 23 120 26 c 0
 95 29 69 34 69 41 c 0
 69 49 72 58 77 77 c 0
 83 98 90 140 90 159 c 2
 90 668 l 2
 90 689 85 697 73 703 c 0
 61 709 39 712 25 713 c 0
 14 714 9 714 9 727 c 0xec
202 112 m 2
 202 51 268 31 317 31 c 0
 393 31 437 110 437 205 c 0
 437 298 403 412 298 412 c 0
 269 412 229 392 202 369 c 1
 202 112 l 2
EndSplineSet
Validated: 19457
Layer: 2
SplineSet
8.78906 727.051 m 0,0,1
 8.78906 735.84 8.78906 735.84 12.207 739.502 c 128,-1,2
 15.625 743.164 15.625 743.164 24.9023 743.164 c 0,3,4
 60.0586 743.164 60.0586 743.164 104.98 747.559 c 0,5,6
 163.086 752.93 163.086 752.93 180.176 752.93 c 0,7,8
 190.43 752.93 190.43 752.93 195.557 748.291 c 128,-1,9
 200.684 743.652 200.684 743.652 201.416 738.77 c 128,-1,10
 202.148 733.887 202.148 733.887 202.148 725.098 c 2,11,-1
 202.148 407.227 l 1,12,-1
 205.078 404.785 l 1,13,14
 295.41 469.727 295.41 469.727 375.488 469.727 c 0,15,16
 457.031 469.727 457.031 469.727 505.371 412.598 c 128,-1,17
 553.711 355.469 553.711 355.469 553.711 259.277 c 0,18,19
 553.711 200.195 553.711 200.195 529.541 147.949 c 128,-1,20
 505.371 95.7031 505.371 95.7031 467.529 61.5234 c 128,-1,21
 429.688 27.3438 429.688 27.3438 384.521 7.8125 c 128,-1,22
 339.355 -11.7188 339.355 -11.7188 296.387 -11.7188 c 0,23,24
 259.766 -11.7188 259.766 -11.7188 194.824 10.2539 c 0,25,26
 165.039 20.5078 165.039 20.5078 119.629 26.3672 c 0,27,28
 69.3359 33.2031 69.3359 33.2031 69.3359 41.0156 c 128,-1,29
 69.3359 48.8281 69.3359 48.8281 77.1484 76.6602 c 0,30,31
 81.543 92.2852 81.543 92.2852 85.6934 118.408 c 128,-1,32
 89.8438 144.531 89.8438 144.531 89.8438 158.691 c 2,33,-1
 89.8438 667.969 l 2,34,35
 89.8438 683.105 89.8438 683.105 85.9375 690.674 c 128,-1,36
 82.0312 698.242 82.0312 698.242 72.7539 703.125 c 0,37,38
 58.1055 710.449 58.1055 710.449 25.3906 712.891 c 0,39,40
 18.5547 713.379 18.5547 713.379 15.8691 714.111 c 128,-1,41
 13.1836 714.844 13.1836 714.844 10.9863 717.773 c 128,-1,42
 8.78906 720.703 8.78906 720.703 8.78906 727.051 c 0,0,1
202.148 112.305 m 2,43,44
 202.148 90.8203 202.148 90.8203 212.891 74.2188 c 128,-1,45
 223.633 57.6172 223.633 57.6172 241.455 48.8281 c 128,-1,46
 259.277 40.0391 259.277 40.0391 278.32 35.6445 c 128,-1,47
 297.363 31.25 297.363 31.25 316.895 31.25 c 0,48,49
 372.07 31.25 372.07 31.25 404.297 81.2988 c 128,-1,50
 436.523 131.348 436.523 131.348 436.523 205.078 c 0,51,52
 436.523 242.676 436.523 242.676 429.443 277.1 c 128,-1,53
 422.363 311.523 422.363 311.523 407.227 343.018 c 128,-1,54
 392.09 374.512 392.09 374.512 364.014 393.311 c 128,-1,55
 335.938 412.109 335.938 412.109 298.34 412.109 c 0,56,57
 276.855 412.109 276.855 412.109 250 399.658 c 128,-1,58
 223.145 387.207 223.145 387.207 202.148 369.141 c 1,59,-1
 202.148 112.305 l 2,43,44
EndSplineSet
Validated: 19457
EndChar

StartChar: c
Encoding: 67 99 67
Width: 474
VWidth: 0
Flags: W
HStem: -12 74<242.28 340.429> 444 34<217.734 305.234>
VStem: 39 118<161.396 332.073> 340 103<367.544 412.602>
AnchorPoint: "Bottom" 248 0 basechar 0
AnchorPoint: "Acute" 270 557 basechar 0
AnchorPoint: "Grave" 270 547 basechar 0
AnchorPoint: "Top" 270 537 basechar 0
LayerCount: 3
Fore
SplineSet
39 228 m 0
 39 358 135 478 276 478 c 0
 322 478 357 468 390 451 c 0
 419 436 443 415 443 399 c 0
 443 383 395 338 376 338 c 0
 361 338 351 349 340 374 c 0
 326 406 304 444 264 444 c 0
 212 444 157 386 157 274 c 0
 157 154 217 62 318 62 c 0
 345 62 377 78 391 88 c 0
 411 103 420 109 431 109 c 0
 441 109 447 102 447 94 c 0
 447 60 332 -12 247 -12 c 0
 132 -12 39 89 39 228 c 0
EndSplineSet
Validated: 19457
Layer: 2
SplineSet
39.0625 227.539 m 0,0,1
 39.0625 275.879 39.0625 275.879 56.3965 321.289 c 128,-1,2
 73.7305 366.699 73.7305 366.699 104.248 401.367 c 128,-1,3
 134.766 436.035 134.766 436.035 179.688 456.787 c 128,-1,4
 224.609 477.539 224.609 477.539 275.879 477.539 c 0,5,6
 338.379 477.539 338.379 477.539 389.648 450.684 c 0,7,8
 412.598 438.477 412.598 438.477 427.979 424.561 c 128,-1,9
 443.359 410.645 443.359 410.645 443.359 398.926 c 128,-1,10
 443.359 387.207 443.359 387.207 416.504 362.549 c 128,-1,11
 389.648 337.891 389.648 337.891 375.977 337.891 c 0,12,13
 365.234 337.891 365.234 337.891 356.934 346.436 c 128,-1,14
 348.633 354.98 348.633 354.98 340.332 374.023 c 0,15,16
 309.57 444.336 309.57 444.336 263.672 444.336 c 0,17,18
 221.191 444.336 221.191 444.336 189.209 398.926 c 128,-1,19
 157.227 353.516 157.227 353.516 157.227 274.414 c 0,20,21
 157.227 182.129 157.227 182.129 200.684 122.314 c 128,-1,22
 244.141 62.5 244.141 62.5 317.871 62.5 c 0,23,24
 336.426 62.5 336.426 62.5 357.666 70.8008 c 128,-1,25
 378.906 79.1016 378.906 79.1016 391.113 88.3789 c 0,26,27
 417.969 109.375 417.969 109.375 431.152 109.375 c 0,28,29
 438.477 109.375 438.477 109.375 442.871 104.98 c 128,-1,30
 447.266 100.586 447.266 100.586 447.266 94.2383 c 0,31,32
 447.266 77.6367 447.266 77.6367 415.527 52.4902 c 128,-1,33
 383.789 27.3438 383.789 27.3438 335.449 7.8125 c 128,-1,34
 287.109 -11.7188 287.109 -11.7188 247.07 -11.7188 c 0,35,36
 159.668 -11.7188 159.668 -11.7188 99.3652 56.3965 c 128,-1,37
 39.0625 124.512 39.0625 124.512 39.0625 227.539 c 0,0,1
EndSplineSet
Validated: 19457
EndChar

StartChar: d
Encoding: 68 100 68
Width: 614
VWidth: 0
Flags: W
HStem: -10 61<171 324.51> 427 43<224.858 361.726> 713 30<317.018 380.431> 733 20G<481 499.5>
VStem: 47 117<133.109 304.511> 398 113<73.5414 394.739 446 702.717>
AnchorPoint: "Bottom" 311 0 basechar 0
LayerCount: 3
Fore
SplineSet
47 199 m 0xdc
 47 364 191 470 304 470 c 0
 337 470 375 457 396 443 c 9
 398 446 l 1
 398 668 l 2
 398 689 393 697 381 703 c 0
 369 709 348 712 334 713 c 0
 323 714 317 714 317 727 c 0
 317 739 320 743 333 743 c 0xec
 347 743 389 746 414 748 c 0
 446 751 473 753 489 753 c 0
 510 753 511 739 511 725 c 2
 511 76 l 2
 511 59 519 51 534 51 c 0
 540 51 553 52 563 54 c 0
 576 56 586 58 593 58 c 0
 599 58 603 52 603 46 c 0
 603 38 593 29 571 23 c 0
 543 15 519 6 498 -2 c 0
 486 -7 468 -10 453 -10 c 0
 430 -10 409 26 402 53 c 1
 399 56 l 1
 361 29 298 -12 225 -12 c 0
 117 -12 47 71 47 199 c 0xdc
164 253 m 0
 164 160 197 46 302 46 c 0
 331 46 371 66 398 89 c 1
 398 343 l 2
 398 404 333 427 284 427 c 0
 208 427 164 348 164 253 c 0
EndSplineSet
Validated: 19457
Layer: 2
SplineSet
46.875 198.73 m 0,0,1
 46.875 257.812 46.875 257.812 71.0449 310.059 c 128,-1,2
 95.2148 362.305 95.2148 362.305 133.057 396.484 c 128,-1,3
 170.898 430.664 170.898 430.664 216.064 450.195 c 128,-1,4
 261.23 469.727 261.23 469.727 304.199 469.727 c 0,5,6
 328.125 469.727 328.125 469.727 353.271 462.158 c 128,-1,7
 378.418 454.59 378.418 454.59 395.508 443.359 c 1,8,-1
 398.438 445.801 l 1,9,-1
 398.438 667.969 l 2,10,11
 398.438 683.105 398.438 683.105 394.531 690.674 c 128,-1,12
 390.625 698.242 390.625 698.242 381.348 703.125 c 0,13,14
 366.699 710.449 366.699 710.449 333.984 712.891 c 0,15,16
 327.148 713.379 327.148 713.379 324.463 714.111 c 128,-1,17
 321.777 714.844 321.777 714.844 319.58 717.773 c 128,-1,18
 317.383 720.703 317.383 720.703 317.383 727.051 c 0,19,20
 317.383 735.84 317.383 735.84 320.801 739.502 c 128,-1,21
 324.219 743.164 324.219 743.164 333.496 743.164 c 0,22,23
 368.652 743.164 368.652 743.164 413.574 747.559 c 0,24,25
 471.68 752.93 471.68 752.93 488.77 752.93 c 0,26,27
 499.023 752.93 499.023 752.93 504.15 748.291 c 128,-1,28
 509.277 743.652 509.277 743.652 510.01 738.77 c 128,-1,29
 510.742 733.887 510.742 733.887 510.742 725.098 c 2,30,-1
 510.742 76.1719 l 2,31,32
 510.742 50.7812 510.742 50.7812 533.691 50.7812 c 0,33,34
 545.41 50.7812 545.41 50.7812 563.477 54.1992 c 0,35,36
 584.473 58.1055 584.473 58.1055 593.262 58.1055 c 0,37,38
 597.656 58.1055 597.656 58.1055 600.098 54.6875 c 128,-1,39
 602.539 51.2695 602.539 51.2695 602.539 46.3867 c 0,40,41
 602.539 31.7383 602.539 31.7383 571.289 22.9492 c 0,42,43
 531.25 11.7188 531.25 11.7188 497.559 -1.95312 c 0,44,45
 479.004 -9.76562 479.004 -9.76562 452.637 -9.76562 c 0,46,47
 436.523 -9.76562 436.523 -9.76562 422.363 10.0098 c 128,-1,48
 408.203 29.7852 408.203 29.7852 401.855 53.2227 c 1,49,-1
 398.926 55.6641 l 1,50,51
 306.152 -11.7188 306.152 -11.7188 225.098 -11.7188 c 0,52,53
 143.555 -11.7188 143.555 -11.7188 95.2148 45.4102 c 128,-1,54
 46.875 102.539 46.875 102.539 46.875 198.73 c 0,0,1
164.062 252.93 m 0,55,56
 164.062 215.332 164.062 215.332 171.143 180.908 c 128,-1,57
 178.223 146.484 178.223 146.484 193.359 114.99 c 128,-1,58
 208.496 83.4961 208.496 83.4961 236.572 64.6973 c 128,-1,59
 264.648 45.8984 264.648 45.8984 302.246 45.8984 c 0,60,61
 323.73 45.8984 323.73 45.8984 350.586 58.3496 c 128,-1,62
 377.441 70.8008 377.441 70.8008 398.438 88.8672 c 1,63,-1
 398.438 342.773 l 2,64,65
 398.438 371.094 398.438 371.094 379.395 391.113 c 128,-1,66
 360.352 411.133 360.352 411.133 335.449 418.945 c 128,-1,67
 310.547 426.758 310.547 426.758 283.691 426.758 c 0,68,69
 228.516 426.758 228.516 426.758 196.289 376.709 c 128,-1,70
 164.062 326.66 164.062 326.66 164.062 252.93 c 0,55,56
EndSplineSet
Validated: 19457
EndChar

StartChar: e
Encoding: 69 101 69
Width: 494
VWidth: 0
Flags: W
HStem: -12 72<243.22 343.72> 444 34<211.334 310.771>
VStem: 39 113<198.275 336.055> 351 114<292.187 396.072>
DStem2: 155 238 160 209 0.959921 0.280269<0 203.045>
AnchorPoint: "Bottom" 264 0 basechar 0
AnchorPoint: "Acute" 271 557 basechar 0
AnchorPoint: "Grave" 271 547 basechar 0
AnchorPoint: "Top" 271 537 basechar 0
LayerCount: 3
Fore
SplineSet
39 232 m 0
 39 373 143 478 271 478 c 0
 414 478 465 383 465 328 c 0
 465 306 453 294 434 289 c 2
 160 209 l 1
 176 117 240 60 318 60 c 0
 355 60 382 79 398 91 c 0
 415 104 423 110 434 110 c 0
 444 110 449 103 449 95 c 0
 449 61 337 -12 252 -12 c 0
 113 -12 39 111 39 232 c 0
152 277 m 0
 152 265 153 251 155 238 c 1
 313 284 l 2
 338 291 351 304 351 336 c 0
 351 384 329 444 257 444 c 0
 205 444 152 385 152 277 c 0
EndSplineSet
Validated: 19457
Layer: 2
SplineSet
39.0625 232.422 m 0,0,1
 39.0625 336.914 39.0625 336.914 106.445 407.227 c 128,-1,2
 173.828 477.539 173.828 477.539 270.508 477.539 c 0,3,4
 320.801 477.539 320.801 477.539 360.352 462.158 c 128,-1,5
 399.902 446.777 399.902 446.777 421.631 423.096 c 128,-1,6
 443.359 399.414 443.359 399.414 454.102 375 c 128,-1,7
 464.844 350.586 464.844 350.586 464.844 328.125 c 0,8,9
 464.844 297.363 464.844 297.363 433.594 288.574 c 2,10,-1
 160.156 209.473 l 1,11,12
 172.363 141.113 172.363 141.113 215.82 100.342 c 128,-1,13
 259.277 59.5703 259.277 59.5703 318.359 59.5703 c 0,14,15
 355.469 59.5703 355.469 59.5703 397.949 91.3086 c 0,16,17
 422.852 109.863 422.852 109.863 434.082 109.863 c 0,18,19
 449.219 109.863 449.219 109.863 449.219 94.7266 c 0,20,21
 449.219 82.5195 449.219 82.5195 430.176 63.9648 c 128,-1,22
 411.133 45.4102 411.133 45.4102 382.812 28.8086 c 128,-1,23
 354.492 12.207 354.492 12.207 318.359 0.244141 c 128,-1,24
 282.227 -11.7188 282.227 -11.7188 251.953 -11.7188 c 0,25,26
 201.66 -11.7188 201.66 -11.7188 160.4 9.27734 c 128,-1,27
 119.141 30.2734 119.141 30.2734 93.2617 65.1855 c 128,-1,28
 67.3828 100.098 67.3828 100.098 53.2227 143.311 c 128,-1,29
 39.0625 186.523 39.0625 186.523 39.0625 232.422 c 0,0,1
152.344 276.855 m 0,30,31
 152.344 254.883 152.344 254.883 154.785 238.281 c 1,32,-1
 313.477 284.18 l 2,33,34
 333.496 290.039 333.496 290.039 342.041 301.27 c 128,-1,35
 350.586 312.5 350.586 312.5 350.586 335.938 c 0,36,37
 350.586 355.469 350.586 355.469 345.703 373.291 c 128,-1,38
 340.82 391.113 340.82 391.113 330.811 407.715 c 128,-1,39
 320.801 424.316 320.801 424.316 301.514 434.326 c 128,-1,40
 282.227 444.336 282.227 444.336 256.836 444.336 c 0,41,42
 214.844 444.336 214.844 444.336 183.594 399.17 c 128,-1,43
 152.344 354.004 152.344 354.004 152.344 276.855 c 0,30,31
EndSplineSet
Validated: 19457
EndChar

StartChar: f
Encoding: 70 102 70
Width: 406
VWidth: 0
Flags: W
HStem: -6 29<35.0118 112.608 232.485 309.985> 433 29<37.4073 116 229 360.016> 720 39<224.199 330>
VStem: 116 113<26.295 433 462 655.418>
AnchorPoint: "Bottom" 173 0 basechar 0
LayerCount: 3
Fore
SplineSet
35 8 m 0
 35 17 39 23 49 23 c 2
 91 26 l 2
 104 27 116 31 116 50 c 2
 116 433 l 1
 43 433 l 2
 39 433 35 435 35 439 c 0
 35 446 43 462 54 462 c 2
 116 462 l 1
 116 544 l 2
 116 719 225 759 313 759 c 0
 347 759 395 749 395 738 c 0
 395 707 367 643 344 643 c 0
 332 643 321 656 312 675 c 0
 302 696 287 720 260 720 c 0
 235 720 212 698 212 656 c 0
 212 644 216 605 219 585 c 0
 224 556 229 510 229 491 c 2
 229 462 l 1
 354 462 l 2
 358 462 362 459 362 455 c 0
 362 448 354 433 343 433 c 2
 229 433 l 1
 229 50 l 2
 229 31 241 27 254 26 c 2
 296 23 l 2
 306 23 310 17 310 8 c 0
 310 -2 305 -6 299 -6 c 0
 286 -6 259 -4 239 -2 c 0
 216 0 191 2 172 2 c 0
 153 2 128 0 105 -2 c 0
 85 -4 58 -6 45 -6 c 0
 39 -6 35 -2 35 8 c 0
EndSplineSet
Validated: 19457
Layer: 2
SplineSet
35.1562 7.8125 m 0,0,1
 35.1562 22.9492 35.1562 22.9492 48.8281 23.4375 c 2,2,-1
 90.8203 26.3672 l 2,3,4
 102.539 27.3438 102.539 27.3438 109.375 31.9824 c 128,-1,5
 116.211 36.6211 116.211 36.6211 116.211 49.8047 c 2,6,-1
 116.211 432.617 l 1,7,-1
 42.9688 432.617 l 2,8,9
 40.0391 432.617 40.0391 432.617 37.5977 434.57 c 128,-1,10
 35.1562 436.523 35.1562 436.523 35.1562 439.453 c 0,11,12
 35.1562 445.801 35.1562 445.801 40.7715 453.857 c 128,-1,13
 46.3867 461.914 46.3867 461.914 53.7109 461.914 c 2,14,-1
 116.211 461.914 l 1,15,-1
 116.211 544.434 l 2,16,17
 116.211 594.727 116.211 594.727 128.418 633.545 c 128,-1,18
 140.625 672.363 140.625 672.363 159.912 695.557 c 128,-1,19
 179.199 718.75 179.199 718.75 205.811 733.398 c 128,-1,20
 232.422 748.047 232.422 748.047 258.301 753.418 c 128,-1,21
 284.18 758.789 284.18 758.789 312.988 758.789 c 0,22,23
 340.332 758.789 340.332 758.789 367.432 752.441 c 128,-1,24
 394.531 746.094 394.531 746.094 394.531 738.281 c 0,25,26
 394.531 712.891 394.531 712.891 377.441 677.734 c 128,-1,27
 360.352 642.578 360.352 642.578 343.75 642.578 c 0,28,29
 328.125 642.578 328.125 642.578 312.5 675.293 c 0,30,31
 291.504 719.727 291.504 719.727 260.254 719.727 c 0,32,33
 239.746 719.727 239.746 719.727 225.83 703.125 c 128,-1,34
 211.914 686.523 211.914 686.523 211.914 656.25 c 0,35,36
 211.914 624.023 211.914 624.023 218.75 584.961 c 0,37,38
 228.516 526.367 228.516 526.367 228.516 490.723 c 2,39,-1
 228.516 461.914 l 1,40,-1
 354.004 461.914 l 2,41,42
 356.934 461.914 356.934 461.914 359.375 459.961 c 128,-1,43
 361.816 458.008 361.816 458.008 361.816 455.078 c 0,44,45
 361.816 448.73 361.816 448.73 356.201 440.674 c 128,-1,46
 350.586 432.617 350.586 432.617 343.262 432.617 c 2,47,-1
 228.516 432.617 l 1,48,-1
 228.516 49.8047 l 2,49,50
 228.516 36.6211 228.516 36.6211 235.352 31.9824 c 128,-1,51
 242.188 27.3438 242.188 27.3438 253.906 26.3672 c 2,52,-1
 295.898 23.4375 l 2,53,54
 309.57 22.9492 309.57 22.9492 309.57 7.8125 c 0,55,56
 309.57 -5.85938 309.57 -5.85938 299.316 -5.85938 c 0,57,58
 279.297 -5.85938 279.297 -5.85938 239.258 -1.95312 c 0,59,60
 202.637 1.95312 202.637 1.95312 172.363 1.95312 c 128,-1,61
 142.09 1.95312 142.09 1.95312 105.469 -1.95312 c 0,62,63
 65.4297 -5.85938 65.4297 -5.85938 45.4102 -5.85938 c 0,64,65
 35.1562 -5.85938 35.1562 -5.85938 35.1562 7.8125 c 0,0,1
EndSplineSet
Validated: 19457
EndChar

StartChar: g
Encoding: 71 103 71
Width: 535
VWidth: -4
Flags: W
HStem: -268 38<233.806 386.72> 141 35<243.149 344.088> 439 36<209.243 312.662>
VStem: 54 105<-10.5 101> 74 99<248.044 372.203> 382 98<242.875 367.302> 422 76<-182.925 -106.876> 436 99<502.156 579.103>
AnchorPoint: "Top" 277 537 basechar 0
AnchorPoint: "Grave" 277 547 basechar 0
AnchorPoint: "Acute" 277 537 basechar 0
AnchorPoint: "HighMark" 277 605 basechar 0
LayerCount: 3
Fore
SplineSet
31 -145 m 0xf2
 31 -119 81 -72 108 -72 c 0
 123 -72 129 -83 141 -107 c 0
 179 -185 230 -230 316 -230 c 0
 371 -230 422 -205 422 -153 c 0
 422 -105 374 -67 228 -49 c 0
 147 -39 54 -24 54 3 c 0xf2
 54 52 97 118 178 149 c 1
 178 151 l 1
 115 172 74 224 74 288 c 0
 74 419 199 475 305 475 c 0
 314 475 340 473 353 471 c 0
 366 469 385 468 392 468 c 0
 428 468 436 488 436 520 c 0
 436 537 429 557 420 575 c 1
 441 585 478 586 496 586 c 0
 526 586 535 573 535 562 c 0xe9
 535 507 484 458 415 448 c 1
 415 445 l 1
 450 423 480 382 480 327 c 0xe4
 480 196 356 141 250 141 c 0
 220 141 200 136 185 128 c 0
 167 118 159 106 159 96 c 0
 159 81 181 72 248 63 c 0
 430 39 498 -32 498 -116 c 0
 498 -194 415 -268 280 -268 c 0
 138 -268 31 -199 31 -145 c 0xf2
173 331 m 0xec
 173 247 235 176 295 176 c 0
 352 176 382 227 382 284 c 0
 382 368 320 439 260 439 c 0
 203 439 173 388 173 331 c 0xec
EndSplineSet
Validated: 19457
Layer: 2
SplineSet
31.25 -144.531 m 0,0,1
 31.25 -125 31.25 -125 59.3262 -98.3887 c 128,-1,2
 87.4023 -71.7773 87.4023 -71.7773 107.91 -71.7773 c 0,3,4
 118.652 -71.7773 118.652 -71.7773 124.756 -79.1016 c 128,-1,5
 130.859 -86.4258 130.859 -86.4258 140.625 -107.422 c 0,6,7
 169.922 -168.457 169.922 -168.457 211.914 -199.463 c 128,-1,8
 253.906 -230.469 253.906 -230.469 316.406 -230.469 c 0,9,10
 360.352 -230.469 360.352 -230.469 391.113 -210.449 c 128,-1,11
 421.875 -190.43 421.875 -190.43 421.875 -153.32 c 0,12,13
 421.875 -72.7539 421.875 -72.7539 228.027 -49.3164 c 0,14,15
 54.1992 -28.3203 54.1992 -28.3203 54.1992 3.41797 c 0,16,17
 54.1992 42.9688 54.1992 42.9688 87.4023 84.9609 c 128,-1,18
 120.605 126.953 120.605 126.953 178.223 148.926 c 1,19,-1
 178.223 151.367 l 1,20,21
 130.371 167.48 130.371 167.48 102.295 203.857 c 128,-1,22
 74.2188 240.234 74.2188 240.234 74.2188 288.086 c 0,23,24
 74.2188 326.172 74.2188 326.172 88.1348 357.91 c 128,-1,25
 102.051 389.648 102.051 389.648 124.756 410.645 c 128,-1,26
 147.461 431.641 147.461 431.641 177.734 446.533 c 128,-1,27
 208.008 461.426 208.008 461.426 239.99 468.018 c 128,-1,28
 271.973 474.609 271.973 474.609 304.688 474.609 c 0,29,30
 327.148 474.609 327.148 474.609 352.539 470.703 c 0,31,32
 371.582 467.773 371.582 467.773 391.602 467.773 c 0,33,34
 416.992 467.773 416.992 467.773 426.27 480.469 c 128,-1,35
 435.547 493.164 435.547 493.164 435.547 519.531 c 0,36,37
 435.547 544.434 435.547 544.434 420.41 574.707 c 1,38,39
 444.336 585.938 444.336 585.938 496.094 585.938 c 0,40,41
 516.602 585.938 516.602 585.938 525.879 578.857 c 128,-1,42
 535.156 571.777 535.156 571.777 535.156 562.5 c 0,43,44
 535.156 520.996 535.156 520.996 500.977 488.281 c 128,-1,45
 466.797 455.566 466.797 455.566 415.039 448.242 c 1,46,-1
 414.551 444.824 l 1,47,48
 442.871 426.758 442.871 426.758 461.67 396.24 c 128,-1,49
 480.469 365.723 480.469 365.723 480.469 326.66 c 0,50,51
 480.469 288.574 480.469 288.574 466.553 257.08 c 128,-1,52
 452.637 225.586 452.637 225.586 429.932 204.346 c 128,-1,53
 407.227 183.105 407.227 183.105 376.953 168.457 c 128,-1,54
 346.68 153.809 346.68 153.809 314.697 147.217 c 128,-1,55
 282.715 140.625 282.715 140.625 250 140.625 c 0,56,57
 207.52 140.625 207.52 140.625 185.059 127.93 c 0,58,59
 158.691 113.281 158.691 113.281 158.691 95.7031 c 0,60,61
 158.691 84.4727 158.691 84.4727 178.467 76.9043 c 128,-1,62
 198.242 69.3359 198.242 69.3359 247.559 62.9883 c 0,63,64
 377.441 45.8984 377.441 45.8984 437.744 -1.2207 c 128,-1,65
 498.047 -48.3398 498.047 -48.3398 498.047 -115.723 c 0,66,67
 498.047 -177.246 498.047 -177.246 437.744 -222.412 c 128,-1,68
 377.441 -267.578 377.441 -267.578 280.273 -267.578 c 0,69,70
 212.891 -267.578 212.891 -267.578 154.053 -247.803 c 128,-1,71
 95.2148 -228.027 95.2148 -228.027 63.2324 -199.951 c 128,-1,72
 31.25 -171.875 31.25 -171.875 31.25 -144.531 c 0,0,1
172.852 331.055 m 0,73,74
 172.852 269.531 172.852 269.531 210.938 222.656 c 128,-1,75
 249.023 175.781 249.023 175.781 294.922 175.781 c 0,76,77
 335.449 175.781 335.449 175.781 358.643 207.52 c 128,-1,78
 381.836 239.258 381.836 239.258 381.836 284.18 c 0,79,80
 381.836 345.703 381.836 345.703 343.75 392.578 c 128,-1,81
 305.664 439.453 305.664 439.453 259.766 439.453 c 0,82,83
 219.238 439.453 219.238 439.453 196.045 407.715 c 128,-1,84
 172.852 375.977 172.852 375.977 172.852 331.055 c 0,73,74
EndSplineSet
Validated: 19457
EndChar

StartChar: h
Encoding: 72 104 72
Width: 624
VWidth: 0
Flags: W
HStem: -6 29<21.0145 99.6082 218.392 295.988 328.012 405.608 524.392 602.985> 418 55<314.987 446.5> 713 30<21.0175 84.431> 733 20G<185 203.5>
VStem: 103 112<26.4515 376.451 401 702.717> 409 112<26.4515 404.311>
AnchorPoint: "HighMark" 311 791 basechar 0
AnchorPoint: "Bottom" 311 0 basechar 0
LayerCount: 3
Fore
SplineSet
21 8 m 0xdc
 21 17 25 23 35 23 c 2
 77 26 l 2
 90 27 103 31 103 50 c 2
 103 668 l 2
 103 689 97 697 85 703 c 0
 73 709 52 712 38 713 c 0
 27 714 21 714 21 727 c 0
 21 739 25 743 38 743 c 0xec
 52 743 93 746 118 748 c 0
 150 751 177 753 193 753 c 0
 214 753 215 739 215 725 c 2
 215 401 l 1
 218 398 l 1
 275 433 342 473 399 473 c 0
 494 473 521 422 521 340 c 2
 521 50 l 2
 521 31 534 27 547 26 c 2
 589 23 l 2
 599 23 603 17 603 8 c 0
 603 -2 598 -6 592 -6 c 0
 579 -6 552 -4 532 -2 c 0
 509 0 484 2 465 2 c 0
 446 2 421 0 398 -2 c 0
 378 -4 351 -6 338 -6 c 0
 332 -6 328 -2 328 8 c 0
 328 17 332 23 342 23 c 2
 384 26 l 2
 397 27 409 31 409 50 c 2
 409 353 l 2
 409 380 398 418 346 418 c 0
 300 418 252 387 215 362 c 1
 215 50 l 2
 215 31 227 27 240 26 c 2
 282 23 l 2
 292 23 296 17 296 8 c 0
 296 -2 292 -6 286 -6 c 0
 273 -6 246 -4 226 -2 c 0
 203 0 178 2 159 2 c 0
 140 2 115 0 92 -2 c 0
 72 -4 45 -6 32 -6 c 0
 26 -6 21 -2 21 8 c 0xdc
EndSplineSet
Validated: 19457
Layer: 2
SplineSet
21.4844 7.8125 m 0,0,1
 21.4844 22.9492 21.4844 22.9492 35.1562 23.4375 c 2,2,-1
 77.1484 26.3672 l 2,3,4
 88.8672 27.3438 88.8672 27.3438 95.7031 31.9824 c 128,-1,5
 102.539 36.6211 102.539 36.6211 102.539 49.8047 c 2,6,-1
 102.539 667.969 l 2,7,8
 102.539 683.105 102.539 683.105 98.6328 690.674 c 128,-1,9
 94.7266 698.242 94.7266 698.242 85.4492 703.125 c 0,10,11
 70.8008 710.449 70.8008 710.449 38.0859 712.891 c 0,12,13
 31.25 713.379 31.25 713.379 28.5645 714.111 c 128,-1,14
 25.8789 714.844 25.8789 714.844 23.6816 717.773 c 128,-1,15
 21.4844 720.703 21.4844 720.703 21.4844 727.051 c 0,16,17
 21.4844 735.84 21.4844 735.84 24.9023 739.502 c 128,-1,18
 28.3203 743.164 28.3203 743.164 37.5977 743.164 c 0,19,20
 72.7539 743.164 72.7539 743.164 117.676 747.559 c 0,21,22
 175.781 752.93 175.781 752.93 192.871 752.93 c 0,23,24
 203.125 752.93 203.125 752.93 208.252 748.291 c 128,-1,25
 213.379 743.652 213.379 743.652 214.111 738.77 c 128,-1,26
 214.844 733.887 214.844 733.887 214.844 725.098 c 2,27,-1
 214.844 401.367 l 1,28,-1
 218.262 397.949 l 1,29,30
 256.348 421.387 256.348 421.387 279.785 434.082 c 128,-1,31
 303.223 446.777 303.223 446.777 338.135 459.717 c 128,-1,32
 373.047 472.656 373.047 472.656 399.414 472.656 c 0,33,34
 467.285 472.656 467.285 472.656 494.385 439.453 c 128,-1,35
 521.484 406.25 521.484 406.25 521.484 340.332 c 2,36,-1
 521.484 49.8047 l 2,37,38
 521.484 36.6211 521.484 36.6211 528.32 31.9824 c 128,-1,39
 535.156 27.3438 535.156 27.3438 546.875 26.3672 c 2,40,-1
 588.867 23.4375 l 2,41,42
 602.539 22.9492 602.539 22.9492 602.539 7.8125 c 0,43,44
 602.539 -5.85938 602.539 -5.85938 592.285 -5.85938 c 0,45,46
 572.266 -5.85938 572.266 -5.85938 532.227 -1.95312 c 0,47,48
 495.605 1.95312 495.605 1.95312 465.332 1.95312 c 128,-1,49
 435.059 1.95312 435.059 1.95312 398.438 -1.95312 c 0,50,51
 358.398 -5.85938 358.398 -5.85938 338.379 -5.85938 c 0,52,53
 328.125 -5.85938 328.125 -5.85938 328.125 7.8125 c 0,54,55
 328.125 22.9492 328.125 22.9492 341.797 23.4375 c 2,56,-1
 383.789 26.3672 l 2,57,58
 395.508 27.3438 395.508 27.3438 402.344 31.9824 c 128,-1,59
 409.18 36.6211 409.18 36.6211 409.18 49.8047 c 2,60,-1
 409.18 352.539 l 2,61,62
 409.18 363.77 409.18 363.77 406.494 374.268 c 128,-1,63
 403.809 384.766 403.809 384.766 397.217 395.02 c 128,-1,64
 390.625 405.273 390.625 405.273 377.441 411.621 c 128,-1,65
 364.258 417.969 364.258 417.969 345.703 417.969 c 0,66,67
 295.898 417.969 295.898 417.969 214.844 361.816 c 1,68,-1
 214.844 49.8047 l 2,69,70
 214.844 36.6211 214.844 36.6211 221.68 31.9824 c 128,-1,71
 228.516 27.3438 228.516 27.3438 240.234 26.3672 c 2,72,-1
 282.227 23.4375 l 2,73,74
 295.898 22.9492 295.898 22.9492 295.898 7.8125 c 0,75,76
 295.898 -5.85938 295.898 -5.85938 285.645 -5.85938 c 0,77,78
 265.625 -5.85938 265.625 -5.85938 225.586 -1.95312 c 0,79,80
 188.965 1.95312 188.965 1.95312 158.691 1.95312 c 128,-1,81
 128.418 1.95312 128.418 1.95312 91.7969 -1.95312 c 0,82,83
 51.7578 -5.85938 51.7578 -5.85938 31.7383 -5.85938 c 0,84,85
 21.4844 -5.85938 21.4844 -5.85938 21.4844 7.8125 c 0,0,1
EndSplineSet
Validated: 19457
EndChar

StartChar: k
Encoding: 75 107 75
Width: 619
VWidth: 0
Flags: W
HStem: -16 51<522.125 584.706> -6 29<21.0145 99.6082 218.392 295.988> 439 30<335.033 383.597 488.818 547.967> 713 30<21.0175 84.431> 733 20G<185 203.5>
VStem: 103 112<26.4515 220 259 702.717> 386 162<402.5 460>
DStem2: 215 259 251 248 0.792748 0.60955<0 21.8339 125.85 226.733> 333 312 251 248 0.57728 -0.816547<4.92207 325.855>
AnchorPoint: "Bottom" 337 0 basechar 0
LayerCount: 3
Fore
SplineSet
21 8 m 0x66
 21 17 25 23 35 23 c 2
 77 26 l 2
 90 27 103 31 103 50 c 2
 103 668 l 2
 103 689 97 697 85 703 c 0
 73 709 52 712 38 713 c 0
 27 714 21 714 21 727 c 0
 21 739 25 743 38 743 c 0x76
 52 743 93 746 118 748 c 0
 150 751 177 753 193 753 c 0
 214 753 215 739 215 725 c 2
 215 259 l 1
 341 357 l 2
 355 368 386 392 386 413 c 0
 386 429 375 437 349 439 c 0
 339 439 335 446 335 455 c 0
 335 465 340 469 346 469 c 0
 353 469 371 467 391 465 c 0
 414 462 428 461 441 461 c 0
 454 461 469 462 492 465 c 0
 512 467 530 469 537 469 c 0
 543 469 548 465 548 455 c 0
 548 446 544 442 534 440 c 0
 506 434 474 419 453 403 c 2
 333 312 l 1
 485 97 l 2
 511 60 533 44 570 35 c 0
 581 32 594 29 594 21 c 0
 594 3 554 -16 523 -16 c 0xae
 467 -16 425 2 376 71 c 2
 251 248 l 1
 215 220 l 1
 215 50 l 2
 215 31 227 27 240 26 c 2
 282 23 l 2
 292 23 296 17 296 8 c 0
 296 -2 292 -6 286 -6 c 0
 273 -6 246 -4 226 -2 c 0
 203 0 178 2 159 2 c 0
 140 2 115 0 92 -2 c 0
 72 -4 45 -6 32 -6 c 0
 26 -6 21 -2 21 8 c 0x66
EndSplineSet
Validated: 19457
Layer: 2
SplineSet
21.4844 7.8125 m 0,0,1
 21.4844 22.9492 21.4844 22.9492 35.1562 23.4375 c 2,2,-1
 77.1484 26.3672 l 2,3,4
 88.8672 27.3438 88.8672 27.3438 95.7031 31.9824 c 128,-1,5
 102.539 36.6211 102.539 36.6211 102.539 49.8047 c 2,6,-1
 102.539 667.969 l 2,7,8
 102.539 683.105 102.539 683.105 98.6328 690.674 c 128,-1,9
 94.7266 698.242 94.7266 698.242 85.4492 703.125 c 0,10,11
 70.8008 710.449 70.8008 710.449 38.0859 712.891 c 0,12,13
 31.25 713.379 31.25 713.379 28.5645 714.111 c 128,-1,14
 25.8789 714.844 25.8789 714.844 23.6816 717.773 c 128,-1,15
 21.4844 720.703 21.4844 720.703 21.4844 727.051 c 0,16,17
 21.4844 735.84 21.4844 735.84 24.9023 739.502 c 128,-1,18
 28.3203 743.164 28.3203 743.164 37.5977 743.164 c 0,19,20
 72.7539 743.164 72.7539 743.164 117.676 747.559 c 0,21,22
 175.781 752.93 175.781 752.93 192.871 752.93 c 0,23,24
 203.125 752.93 203.125 752.93 208.252 748.291 c 128,-1,25
 213.379 743.652 213.379 743.652 214.111 738.77 c 128,-1,26
 214.844 733.887 214.844 733.887 214.844 725.098 c 2,27,-1
 214.844 258.789 l 1,28,-1
 340.82 356.934 l 2,29,30
 385.742 392.09 385.742 392.09 385.742 413.086 c 0,31,32
 385.742 436.523 385.742 436.523 348.633 439.453 c 1,33,34
 334.961 439.941 334.961 439.941 334.961 455.078 c 0,35,36
 334.961 468.75 334.961 468.75 345.703 468.75 c 0,37,38
 359.863 468.75 359.863 468.75 391.113 464.844 c 0,39,40
 421.875 460.938 421.875 460.938 441.406 460.938 c 128,-1,41
 460.938 460.938 460.938 460.938 491.699 464.844 c 0,42,43
 522.949 468.75 522.949 468.75 537.109 468.75 c 0,44,45
 547.852 468.75 547.852 468.75 547.852 455.078 c 0,46,47
 547.852 443.359 547.852 443.359 533.691 440.43 c 0,48,49
 488.281 430.176 488.281 430.176 452.637 402.832 c 2,50,-1
 333.496 312.5 l 1,51,-1
 484.863 97.168 l 2,52,53
 503.906 69.8242 503.906 69.8242 522.949 55.9082 c 128,-1,54
 541.992 41.9922 541.992 41.9922 570.312 35.1562 c 1,55,56
 593.75 28.8086 593.75 28.8086 593.75 20.5078 c 0,57,58
 593.75 7.8125 593.75 7.8125 570.312 -3.90625 c 128,-1,59
 546.875 -15.625 546.875 -15.625 522.949 -15.625 c 0,60,61
 478.516 -15.625 478.516 -15.625 445.312 2.92969 c 128,-1,62
 412.109 21.4844 412.109 21.4844 376.465 71.2891 c 2,63,-1
 250.977 248.047 l 1,64,-1
 214.844 219.727 l 1,65,-1
 214.844 49.8047 l 2,66,67
 214.844 36.6211 214.844 36.6211 221.68 31.9824 c 128,-1,68
 228.516 27.3438 228.516 27.3438 240.234 26.3672 c 2,69,-1
 282.227 23.4375 l 2,70,71
 295.898 22.9492 295.898 22.9492 295.898 7.8125 c 0,72,73
 295.898 -5.85938 295.898 -5.85938 285.645 -5.85938 c 0,74,75
 265.625 -5.85938 265.625 -5.85938 225.586 -1.95312 c 0,76,77
 188.965 1.95312 188.965 1.95312 158.691 1.95312 c 128,-1,78
 128.418 1.95312 128.418 1.95312 91.7969 -1.95312 c 0,79,80
 51.7578 -5.85938 51.7578 -5.85938 31.7383 -5.85938 c 0,81,82
 21.4844 -5.85938 21.4844 -5.85938 21.4844 7.8125 c 0,0,1
EndSplineSet
Validated: 19457
EndChar

StartChar: l
Encoding: 76 108 76
Width: 317
VWidth: 0
Flags: W
HStem: -6 29<21.0145 99.6082 218.392 295.988> 713 30<21.0175 84.431> 733 20G<185 203.5>
VStem: 103 112<26.4515 702.717>
AnchorPoint: "HighMark" 153 791 basechar 0
AnchorPoint: "Bottom" 159 0 basechar 0
LayerCount: 3
Fore
SplineSet
21 8 m 0xb0
 21 17 25 23 35 23 c 10
 77 26 l 18
 90 27 103 31 103 50 c 10
 103 668 l 18
 103 689 97 697 85 703 c 0
 73 709 52 712 38 713 c 0
 27 714 21 714 21 727 c 0
 21 739 25 743 38 743 c 0xd0
 52 743 93 746 118 748 c 0
 150 751 177 753 193 753 c 0
 214 753 215 739 215 725 c 10
 215 50 l 18
 215 31 227 27 240 26 c 10
 282 23 l 18
 292 23 296 17 296 8 c 0
 296 -2 292 -6 286 -6 c 0
 273 -6 246 -4 226 -2 c 0
 203 0 178 2 159 2 c 0
 140 2 115 0 92 -2 c 0
 72 -4 45 -6 32 -6 c 0
 26 -6 21 -2 21 8 c 0xb0
EndSplineSet
Validated: 19457
Layer: 2
SplineSet
21.4844 7.8125 m 0,0,1
 21.4844 22.9492 21.4844 22.9492 35.1562 23.4375 c 2,2,-1
 77.1484 26.3672 l 2,3,4
 88.8672 27.3438 88.8672 27.3438 95.7031 31.9824 c 128,-1,5
 102.539 36.6211 102.539 36.6211 102.539 49.8047 c 2,6,-1
 102.539 667.969 l 2,7,8
 102.539 683.105 102.539 683.105 98.6328 690.674 c 128,-1,9
 94.7266 698.242 94.7266 698.242 85.4492 703.125 c 0,10,11
 70.8008 710.449 70.8008 710.449 38.0859 712.891 c 0,12,13
 31.25 713.379 31.25 713.379 28.5645 714.111 c 128,-1,14
 25.8789 714.844 25.8789 714.844 23.6816 717.773 c 128,-1,15
 21.4844 720.703 21.4844 720.703 21.4844 727.051 c 0,16,17
 21.4844 735.84 21.4844 735.84 24.9023 739.502 c 128,-1,18
 28.3203 743.164 28.3203 743.164 37.5977 743.164 c 0,19,20
 72.7539 743.164 72.7539 743.164 117.676 747.559 c 0,21,22
 175.781 752.93 175.781 752.93 192.871 752.93 c 0,23,24
 203.125 752.93 203.125 752.93 208.252 748.291 c 128,-1,25
 213.379 743.652 213.379 743.652 214.111 738.77 c 128,-1,26
 214.844 733.887 214.844 733.887 214.844 725.098 c 2,27,-1
 214.844 49.8047 l 2,28,29
 214.844 36.6211 214.844 36.6211 221.68 31.9824 c 128,-1,30
 228.516 27.3438 228.516 27.3438 240.234 26.3672 c 2,31,-1
 282.227 23.4375 l 2,32,33
 295.898 22.9492 295.898 22.9492 295.898 7.8125 c 0,34,35
 295.898 -5.85938 295.898 -5.85938 285.645 -5.85938 c 0,36,37
 265.625 -5.85938 265.625 -5.85938 225.586 -1.95312 c 0,38,39
 188.965 1.95312 188.965 1.95312 158.691 1.95312 c 128,-1,40
 128.418 1.95312 128.418 1.95312 91.7969 -1.95312 c 0,41,42
 51.7578 -5.85938 51.7578 -5.85938 31.7383 -5.85938 c 0,43,44
 21.4844 -5.85938 21.4844 -5.85938 21.4844 7.8125 c 0,0,1
EndSplineSet
Validated: 19457
EndChar

StartChar: m
Encoding: 77 109 77
Width: 924
VWidth: 0
Flags: W
HStem: -6 29<31.0145 108.49 228.485 296.988 338.015 407.608 526.392 595.988 637.012 706.608 825.392 902.988> 418 55<328.112 441.389 625.733 751.389> 428 30<31.0175 94.431>
VStem: 112 113<26.295 373.192 397 417.717> 411 112<26.4515 371.688> 710 112<26.4515 407.183>
AnchorPoint: "Bottom" 467 0 basechar 0
LayerCount: 3
Fore
SplineSet
31 8 m 0xdc
 31 17 35 23 45 23 c 2
 87 26 l 2
 100 27 112 31 112 50 c 2
 112 383 l 2
 112 404 107 412 95 418 c 0xdc
 83 424 62 427 48 428 c 0
 37 429 31 429 31 442 c 0
 31 454 34 458 47 458 c 0xbc
 61 458 102 460 127 462 c 0
 159 465 187 468 203 468 c 0
 224 468 225 454 225 440 c 2
 225 397 l 1
 228 394 l 1
 285 430 352 473 409 473 c 0
 481 473 510 442 519 392 c 1
 522 391 l 1
 580 431 655 473 707 473 c 0
 802 473 822 422 822 340 c 2
 822 50 l 2
 822 31 835 27 848 26 c 2
 890 23 l 2
 900 23 903 17 903 8 c 0
 903 -2 899 -6 893 -6 c 0
 880 -6 853 -4 833 -2 c 0
 810 0 785 2 766 2 c 0
 747 2 722 0 699 -2 c 0
 679 -4 657 -6 647 -6 c 0
 641 -6 637 -2 637 8 c 0
 637 17 641 23 651 23 c 2
 685 26 l 2
 698 27 710 31 710 50 c 2
 710 353 l 2
 710 380 706 418 654 418 c 0
 612 418 563 385 523 357 c 1
 523 50 l 2
 523 31 536 27 549 26 c 2
 583 23 l 2
 593 23 596 17 596 8 c 0
 596 -2 592 -6 586 -6 c 0
 576 -6 554 -4 534 -2 c 0
 511 0 486 2 467 2 c 0
 448 2 423 0 400 -2 c 0
 380 -4 359 -6 349 -6 c 0
 343 -6 338 -2 338 8 c 0
 338 17 342 23 352 23 c 2
 386 26 l 2
 399 27 411 31 411 50 c 2
 411 353 l 2
 411 380 407 418 355 418 c 0
 309 418 261 384 225 358 c 1
 225 50 l 2
 225 31 237 27 250 26 c 2
 284 23 l 2
 294 23 297 17 297 8 c 0
 297 -2 293 -6 287 -6 c 0
 277 -6 255 -4 235 -2 c 0
 212 0 187 2 168 2 c 0
 149 2 125 0 102 -2 c 0
 82 -4 55 -6 42 -6 c 0
 36 -6 31 -2 31 8 c 0xdc
EndSplineSet
Validated: 19457
Layer: 2
SplineSet
31.25 7.8125 m 0,0,1
 31.25 22.9492 31.25 22.9492 44.9219 23.4375 c 2,2,-1
 86.9141 26.3672 l 2,3,4
 98.6328 27.3438 98.6328 27.3438 105.469 31.9824 c 128,-1,5
 112.305 36.6211 112.305 36.6211 112.305 49.8047 c 2,6,-1
 112.305 382.812 l 2,7,8
 112.305 397.949 112.305 397.949 108.398 405.518 c 128,-1,9
 104.492 413.086 104.492 413.086 95.2148 417.969 c 0,10,11
 80.5664 425.293 80.5664 425.293 47.8516 427.734 c 0,12,13
 41.0156 428.223 41.0156 428.223 38.3301 428.955 c 128,-1,14
 35.6445 429.688 35.6445 429.688 33.4473 432.617 c 128,-1,15
 31.25 435.547 31.25 435.547 31.25 441.895 c 0,16,17
 31.25 450.684 31.25 450.684 34.668 454.346 c 128,-1,18
 38.0859 458.008 38.0859 458.008 47.3633 458.008 c 0,19,20
 82.5195 458.008 82.5195 458.008 127.441 462.402 c 0,21,22
 185.547 467.773 185.547 467.773 202.637 467.773 c 0,23,24
 212.891 467.773 212.891 467.773 218.018 463.135 c 128,-1,25
 223.145 458.496 223.145 458.496 223.877 453.613 c 128,-1,26
 224.609 448.73 224.609 448.73 224.609 439.941 c 2,27,-1
 224.609 397.461 l 1,28,-1
 228.027 394.043 l 1,29,30
 266.113 418.457 266.113 418.457 289.307 431.885 c 128,-1,31
 312.5 445.312 312.5 445.312 347.656 458.984 c 128,-1,32
 382.812 472.656 382.812 472.656 409.18 472.656 c 0,33,34
 460.938 472.656 460.938 472.656 486.084 452.148 c 128,-1,35
 511.23 431.641 511.23 431.641 518.555 391.602 c 1,36,-1
 521.973 390.625 l 1,37,38
 642.578 472.656 642.578 472.656 706.543 472.656 c 0,39,40
 741.211 472.656 741.211 472.656 764.648 463.867 c 128,-1,41
 788.086 455.078 788.086 455.078 800.293 436.768 c 128,-1,42
 812.5 418.457 812.5 418.457 817.383 395.752 c 128,-1,43
 822.266 373.047 822.266 373.047 822.266 340.332 c 2,44,-1
 822.266 49.8047 l 2,45,46
 822.266 36.6211 822.266 36.6211 829.102 31.9824 c 128,-1,47
 835.938 27.3438 835.938 27.3438 847.656 26.3672 c 2,48,-1
 889.648 23.4375 l 2,49,50
 903.32 22.9492 903.32 22.9492 903.32 7.8125 c 0,51,52
 903.32 -5.85938 903.32 -5.85938 893.066 -5.85938 c 0,53,54
 873.047 -5.85938 873.047 -5.85938 833.008 -1.95312 c 0,55,56
 796.387 1.95312 796.387 1.95312 766.113 1.95312 c 128,-1,57
 735.84 1.95312 735.84 1.95312 699.219 -1.95312 c 0,58,59
 659.18 -5.85938 659.18 -5.85938 647.461 -5.85938 c 0,60,61
 637.207 -5.85938 637.207 -5.85938 637.207 7.8125 c 0,62,63
 637.207 22.9492 637.207 22.9492 650.879 23.4375 c 1,64,-1
 684.57 26.3672 l 2,65,66
 696.289 27.3438 696.289 27.3438 703.125 31.9824 c 128,-1,67
 709.961 36.6211 709.961 36.6211 709.961 49.8047 c 2,68,-1
 709.961 352.539 l 2,69,70
 709.961 365.234 709.961 365.234 708.252 374.512 c 128,-1,71
 706.543 383.789 706.543 383.789 701.66 394.775 c 128,-1,72
 696.777 405.762 696.777 405.762 684.57 411.865 c 128,-1,73
 672.363 417.969 672.363 417.969 653.809 417.969 c 0,74,75
 634.277 417.969 634.277 417.969 608.887 407.471 c 128,-1,76
 583.496 396.973 583.496 396.973 566.406 386.23 c 128,-1,77
 549.316 375.488 549.316 375.488 523.438 357.422 c 1,78,-1
 523.438 49.8047 l 2,79,80
 523.438 36.6211 523.438 36.6211 530.273 31.9824 c 128,-1,81
 537.109 27.3438 537.109 27.3438 548.828 26.3672 c 2,82,-1
 582.52 23.4375 l 1,83,84
 596.191 22.9492 596.191 22.9492 596.191 7.8125 c 0,85,86
 596.191 -5.85938 596.191 -5.85938 585.938 -5.85938 c 0,87,88
 574.219 -5.85938 574.219 -5.85938 534.18 -1.95312 c 0,89,90
 497.559 1.95312 497.559 1.95312 467.285 1.95312 c 128,-1,91
 437.012 1.95312 437.012 1.95312 400.391 -1.95312 c 0,92,93
 360.352 -5.85938 360.352 -5.85938 348.633 -5.85938 c 0,94,95
 338.379 -5.85938 338.379 -5.85938 338.379 7.8125 c 0,96,97
 338.379 22.9492 338.379 22.9492 352.051 23.4375 c 1,98,-1
 385.742 26.3672 l 2,99,100
 397.461 27.3438 397.461 27.3438 404.297 31.9824 c 128,-1,101
 411.133 36.6211 411.133 36.6211 411.133 49.8047 c 2,102,-1
 411.133 352.539 l 2,103,104
 411.133 365.234 411.133 365.234 409.668 374.512 c 128,-1,105
 408.203 383.789 408.203 383.789 403.076 394.775 c 128,-1,106
 397.949 405.762 397.949 405.762 385.986 411.865 c 128,-1,107
 374.023 417.969 374.023 417.969 355.469 417.969 c 0,108,109
 333.984 417.969 333.984 417.969 308.105 407.471 c 128,-1,110
 282.227 396.973 282.227 396.973 265.381 386.23 c 128,-1,111
 248.535 375.488 248.535 375.488 224.609 357.91 c 1,112,-1
 224.609 49.8047 l 2,113,114
 224.609 36.6211 224.609 36.6211 231.445 31.9824 c 128,-1,115
 238.281 27.3438 238.281 27.3438 250 26.3672 c 2,116,-1
 283.691 23.4375 l 1,117,118
 297.363 22.9492 297.363 22.9492 297.363 7.8125 c 0,119,120
 297.363 -5.85938 297.363 -5.85938 287.109 -5.85938 c 0,121,122
 275.391 -5.85938 275.391 -5.85938 235.352 -1.95312 c 0,123,124
 198.73 1.95312 198.73 1.95312 168.457 1.95312 c 128,-1,125
 138.184 1.95312 138.184 1.95312 101.562 -1.95312 c 0,126,127
 61.5234 -5.85938 61.5234 -5.85938 41.5039 -5.85938 c 0,128,129
 31.25 -5.85938 31.25 -5.85938 31.25 7.8125 c 0,0,1
EndSplineSet
Validated: 19457
EndChar

StartChar: n
Encoding: 78 110 78
Width: 633
VWidth: 0
Flags: W
HStem: -6 29<31.0145 108.49 228.485 305.985 338.012 415.608 534.392 611.988> 418 55<324.548 456.5> 428 30<31.0175 94.431>
VStem: 112 113<26.295 376.451 401 417.717> 419 112<26.4515 404.311>
AnchorPoint: "Acute" 320 557 basechar 0
AnchorPoint: "Grave" 320 547 basechar 0
AnchorPoint: "Top" 320 537 basechar 0
AnchorPoint: "Bottom" 320 0 basechar 0
LayerCount: 3
Fore
SplineSet
31 8 m 0xd8
 31 17 35 23 45 23 c 2
 87 26 l 2
 100 27 112 31 112 50 c 2
 112 383 l 2
 112 404 107 412 95 418 c 0xd8
 83 424 62 427 48 428 c 0
 37 429 31 429 31 442 c 0
 31 454 34 458 47 458 c 0xb8
 61 458 102 460 127 462 c 0
 159 465 187 468 203 468 c 0
 224 468 225 454 225 440 c 2
 225 401 l 1
 228 398 l 1
 285 433 352 473 409 473 c 0
 504 473 531 422 531 340 c 2
 531 50 l 2
 531 31 544 27 557 26 c 2
 599 23 l 2
 609 23 612 17 612 8 c 0
 612 -2 608 -6 602 -6 c 0
 589 -6 562 -4 542 -2 c 0
 519 0 494 2 475 2 c 0
 456 2 431 0 408 -2 c 0
 388 -4 361 -6 348 -6 c 0
 342 -6 338 -2 338 8 c 0
 338 17 342 23 352 23 c 2
 394 26 l 2
 407 27 419 31 419 50 c 2
 419 353 l 2
 419 380 407 418 355 418 c 0
 309 418 262 387 225 362 c 1
 225 50 l 2
 225 31 237 27 250 26 c 2
 292 23 l 2
 302 23 306 17 306 8 c 0
 306 -2 301 -6 295 -6 c 0
 282 -6 255 -4 235 -2 c 0
 212 0 187 2 168 2 c 0
 149 2 125 0 102 -2 c 0
 82 -4 55 -6 42 -6 c 0
 36 -6 31 -2 31 8 c 0xd8
EndSplineSet
Validated: 19457
Layer: 2
SplineSet
31.25 7.8125 m 0,0,1
 31.25 22.9492 31.25 22.9492 44.9219 23.4375 c 2,2,-1
 86.9141 26.3672 l 2,3,4
 98.6328 27.3438 98.6328 27.3438 105.469 31.9824 c 128,-1,5
 112.305 36.6211 112.305 36.6211 112.305 49.8047 c 2,6,-1
 112.305 382.812 l 2,7,8
 112.305 397.949 112.305 397.949 108.398 405.518 c 128,-1,9
 104.492 413.086 104.492 413.086 95.2148 417.969 c 0,10,11
 80.5664 425.293 80.5664 425.293 47.8516 427.734 c 0,12,13
 41.0156 428.223 41.0156 428.223 38.3301 428.955 c 128,-1,14
 35.6445 429.688 35.6445 429.688 33.4473 432.617 c 128,-1,15
 31.25 435.547 31.25 435.547 31.25 441.895 c 0,16,17
 31.25 450.684 31.25 450.684 34.668 454.346 c 128,-1,18
 38.0859 458.008 38.0859 458.008 47.3633 458.008 c 0,19,20
 82.5195 458.008 82.5195 458.008 127.441 462.402 c 0,21,22
 185.547 467.773 185.547 467.773 202.637 467.773 c 0,23,24
 212.891 467.773 212.891 467.773 218.018 463.135 c 128,-1,25
 223.145 458.496 223.145 458.496 223.877 453.613 c 128,-1,26
 224.609 448.73 224.609 448.73 224.609 439.941 c 2,27,-1
 224.609 401.367 l 1,28,-1
 228.027 397.949 l 1,29,30
 266.113 421.387 266.113 421.387 289.551 434.082 c 128,-1,31
 312.988 446.777 312.988 446.777 347.9 459.717 c 128,-1,32
 382.812 472.656 382.812 472.656 409.18 472.656 c 0,33,34
 477.051 472.656 477.051 472.656 504.15 439.453 c 128,-1,35
 531.25 406.25 531.25 406.25 531.25 340.332 c 2,36,-1
 531.25 49.8047 l 2,37,38
 531.25 36.6211 531.25 36.6211 538.086 31.9824 c 128,-1,39
 544.922 27.3438 544.922 27.3438 556.641 26.3672 c 2,40,-1
 598.633 23.4375 l 2,41,42
 612.305 22.9492 612.305 22.9492 612.305 7.8125 c 0,43,44
 612.305 -5.85938 612.305 -5.85938 602.051 -5.85938 c 0,45,46
 582.031 -5.85938 582.031 -5.85938 541.992 -1.95312 c 0,47,48
 505.371 1.95312 505.371 1.95312 475.098 1.95312 c 128,-1,49
 444.824 1.95312 444.824 1.95312 408.203 -1.95312 c 0,50,51
 368.164 -5.85938 368.164 -5.85938 348.145 -5.85938 c 0,52,53
 337.891 -5.85938 337.891 -5.85938 337.891 7.8125 c 0,54,55
 337.891 22.9492 337.891 22.9492 351.562 23.4375 c 2,56,-1
 393.555 26.3672 l 2,57,58
 405.273 27.3438 405.273 27.3438 412.109 31.9824 c 128,-1,59
 418.945 36.6211 418.945 36.6211 418.945 49.8047 c 2,60,-1
 418.945 352.539 l 2,61,62
 418.945 363.77 418.945 363.77 416.26 374.268 c 128,-1,63
 413.574 384.766 413.574 384.766 406.982 395.02 c 128,-1,64
 400.391 405.273 400.391 405.273 387.207 411.621 c 128,-1,65
 374.023 417.969 374.023 417.969 355.469 417.969 c 0,66,67
 305.664 417.969 305.664 417.969 224.609 361.816 c 1,68,-1
 224.609 49.8047 l 2,69,70
 224.609 36.6211 224.609 36.6211 231.445 31.9824 c 128,-1,71
 238.281 27.3438 238.281 27.3438 250 26.3672 c 2,72,-1
 291.992 23.4375 l 2,73,74
 305.664 22.9492 305.664 22.9492 305.664 7.8125 c 0,75,76
 305.664 -5.85938 305.664 -5.85938 295.41 -5.85938 c 0,77,78
 275.391 -5.85938 275.391 -5.85938 235.352 -1.95312 c 0,79,80
 198.73 1.95312 198.73 1.95312 168.457 1.95312 c 128,-1,81
 138.184 1.95312 138.184 1.95312 101.562 -1.95312 c 0,82,83
 61.5234 -5.85938 61.5234 -5.85938 41.5039 -5.85938 c 0,84,85
 31.25 -5.85938 31.25 -5.85938 31.25 7.8125 c 0,0,1
EndSplineSet
Validated: 19457
EndChar

StartChar: o
Encoding: 79 111 79
Width: 572
VWidth: 0
Flags: W
HStem: -14 31<245.035 346.513> 445 31<225.488 326.965>
VStem: 35 125<124.996 335.527> 412 125<126.473 337.004>
AnchorPoint: "Grave" 286 547 basechar 0
AnchorPoint: "Acute" 286 557 basechar 0
AnchorPoint: "Bottom" 286 0 basechar 0
AnchorPoint: "Top" 286 537 basechar 0
LayerCount: 3
Fore
SplineSet
35 231 m 0
 35 376 140 476 286 476 c 0
 432 476 537 376 537 231 c 0
 537 86 432 -14 286 -14 c 0
 140 -14 35 86 35 231 c 0
160 268 m 0
 160 121 209 17 295 17 c 0
 371 17 412 91 412 194 c 0
 412 341 363 445 277 445 c 0
 201 445 160 371 160 268 c 0
EndSplineSet
Validated: 19457
Layer: 2
SplineSet
35.1562 230.957 m 128,-1,1
 35.1562 338.867 35.1562 338.867 105.469 407.227 c 128,-1,2
 175.781 475.586 175.781 475.586 286.133 475.586 c 128,-1,3
 396.484 475.586 396.484 475.586 466.797 407.227 c 128,-1,4
 537.109 338.867 537.109 338.867 537.109 230.957 c 128,-1,5
 537.109 123.047 537.109 123.047 466.797 54.6875 c 128,-1,6
 396.484 -13.6719 396.484 -13.6719 286.133 -13.6719 c 128,-1,7
 175.781 -13.6719 175.781 -13.6719 105.469 54.6875 c 128,-1,0
 35.1562 123.047 35.1562 123.047 35.1562 230.957 c 128,-1,1
160.156 267.578 m 0,8,9
 160.156 154.785 160.156 154.785 196.045 85.6934 c 128,-1,10
 231.934 16.6016 231.934 16.6016 295.41 16.6016 c 0,11,12
 351.074 16.6016 351.074 16.6016 381.592 65.6738 c 128,-1,13
 412.109 114.746 412.109 114.746 412.109 194.336 c 0,14,15
 412.109 307.129 412.109 307.129 376.221 376.221 c 128,-1,16
 340.332 445.312 340.332 445.312 276.855 445.312 c 0,17,18
 221.191 445.312 221.191 445.312 190.674 396.24 c 128,-1,19
 160.156 347.168 160.156 347.168 160.156 267.578 c 0,8,9
EndSplineSet
Validated: 19457
EndChar

